<svg id="Layer_1" data-name="Layer 1" xmlns="http://www.w3.org/2000/svg" viewBox="0 0 1000 1000"><path d="M879,713.33l-1.66,29.29L121,699.67l1.66-29.28,466,26.46s5.2-91.65,7.56-133.22-26.79-72.6-64.52-74.74l-130.92-7.44c-12.32-.71-19.43,2-28,16.2s-38.36,62.74-38.36,62.74l-28.27-1.61-.78,13.62-8.31-.48-1.24,21.93-12-.67-5,61.73,2-61.89-12-.67,1.24-21.94-8.31-.48.78-13.61-33.69-2s-5.24-206.62-4.23-224.32,13.9-27,26.24-26.33L660.17,327l.57-9.86,21,1.2,3.19-56a5.23,5.23,0,0,1,10.44.6l-3.18,56,21.06,1.21-.56,9.86,40.33,2.28A65.39,65.39,0,0,1,800.25,356l26,1.49c16.36.92,27.86,33.4,25.63,72.51s-17.33,70.11-33.69,69.17l-9.73-.55-.31,5.19c-.83,14.62-13.27,16.27-24.09,15.65s-17.9,2.81-18.73,17.44-9.63,169.44-9.63,169.44l123.25,7Z"/></svg>