<?xml version="1.0" encoding="utf-8"?>
<!-- Generator: Adobe Illustrator 26.0.1, SVG Export Plug-In . SVG Version: 6.00 Build 0)  -->
<svg version="1.1" id="Layer_1" xmlns="http://www.w3.org/2000/svg" xmlns:xlink="http://www.w3.org/1999/xlink" x="0px" y="0px"
	 viewBox="0 0 423 520" style="enable-background:new 0 0 423 520;" xml:space="preserve">
<style type="text/css">
	.st0{fill:#010101;}
	.st1{fill:#FFFFFF;}
	.st2{fill:none;stroke:#010101;stroke-width:3;stroke-miterlimit:10;}
	.st3{fill:#FFFFFF;stroke:#010101;stroke-miterlimit:10;}
</style>
<g>
	<circle class="st0" cx="210.47" cy="275.33" r="5"/>
	<circle class="st0" cx="210.47" cy="320.33" r="5"/>
	<g>
		<g>
			<g>
				<path class="st1" d="M89.73,407.87c0.11,5.5,4.7,10,10.2,10h14.67c5.5,0,10-4.5,9.99-10c0,0-0.06-94.74,7.34-152
					c0.9-6.99,1.47-10.86,1.47-10.86c0.79-5.44,1.44-9.9,1.44-9.9c0,0,0.11-0.74,0.25-1.64c0.14-0.9-0.17-7.71-0.99-13.15
					c0,0-9.43-62.05-12.06-72.77c-0.92-3.73-3.34-13.32-7.11-14c-0.41-0.08-0.41-0.08-0.41-0.08c-0.42,0.14-0.99,0.44-1.26,0.65
					c-0.27,0.22-0.88,0.72-0.88,0.72s-0.06,0.06-0.11,0.12c0,0,0,0-0.05,0.06c-0.76,0.9-0.76,0.9-0.76,0.9
					c-0.73,1.14-2.09,6.5-3.03,11.92c0,0-12.1,69.65-15.84,115.37C87.96,319.9,89.73,407.87,89.73,407.87z"/>
				<path class="st2" d="M89.73,407.87c0.11,5.5,4.7,10,10.2,10h14.67c5.5,0,10-4.5,9.99-10c0,0-0.06-94.74,7.34-152
					c0.9-6.99,1.47-10.86,1.47-10.86c0.79-5.44,1.44-9.9,1.44-9.9c0,0,0.11-0.74,0.25-1.64c0.14-0.9-0.17-7.71-0.99-13.15
					c0,0-9.43-62.05-12.06-72.77c-0.92-3.73-3.34-13.32-7.11-14c-0.41-0.08-0.41-0.08-0.41-0.08c-0.42,0.14-0.99,0.44-1.26,0.65
					c-0.27,0.22-0.88,0.72-0.88,0.72s-0.06,0.06-0.11,0.12c0,0,0,0-0.05,0.06c-0.76,0.9-0.76,0.9-0.76,0.9
					c-0.73,1.14-2.09,6.5-3.03,11.92c0,0-12.1,69.65-15.84,115.37C87.96,319.9,89.73,407.87,89.73,407.87z"/>
			</g>
			<g>
				<path class="st1" d="M122.66,129.15c-4.9,2.5-8.9,4.55-8.9,4.55s0.35-0.11,0.77-0.25c0,0,0,0,0.41,0.08
					c3.77,0.68,6.19,10.27,7.11,14c2.63,10.72,12.06,72.77,12.06,72.77c0.83,5.44,1.39,10.62,1.25,11.52
					c-0.14,0.9-0.26,1.63-0.51,3.27c0,0,0,0,0,0.01c0,0,0.88,2.19,1.96,4.86c0,0,0,0,1.29,4.93c3.6,13.7,2.67,24.9,2.34,29.33
					c-2.26,29.7,1.59,21.92-3,70.67c-1.77,18.77-7.65,61.76-7.65,61.76c-0.74,5.45,2.73,11.8,7.72,14.11c0,0,13.4,6.21,28.26,8.46
					c10.43,1.58,17.12,2.51,23.67-0.66c7.14-3.46,12.08-10.81,18.33-36.67c0.98-4.08,2.12-8.02,2.66-11.95
					c4.59-33.35,3.85-91.03,2.73-103.44c-0.05-0.51-0.12-1-0.21-1.5c-0.29-1.63-1.13-6.78-1.13-6.78c-0.88-5.43-1.57-9.45-1.54-8.94
					s-0.84,1.15-2.02,0.29c0,0,0,0-1.81-2.26c-0.81-1.01-1.71-2.2-2.68-3.57c-10.18-14.15-27.93-44.11-42.22-79.94
					c-7.42-18.6-12.45-36.02-12.45-36.02c-1.53-5.28-0.16-11.62,3.04-14.09c3.2-2.46,4.96-5.7,4.95-5.71
					c-0.01-0.01-0.42-0.25-0.9-0.5c0,0,0,0-0.91,0c-1.2,0-1.2,0-1.2,0c-2.23,0.45-3.84,0.26-3.59-0.43
					c0.25-0.69-2.95-0.59-7.84,1.93L122.66,129.15z"/>
				<path class="st2" d="M122.66,129.15c-4.9,2.5-8.9,4.55-8.9,4.55s0.35-0.11,0.77-0.25c0,0,0,0,0.41,0.08
					c3.77,0.68,6.19,10.27,7.11,14c2.63,10.72,12.06,72.77,12.06,72.77c0.83,5.44,1.39,10.62,1.25,11.52
					c-0.14,0.9-0.26,1.63-0.51,3.27c0,0,0,0,0,0.01c0,0,0.88,2.19,1.96,4.86c0,0,0,0,1.29,4.93c3.6,13.7,2.67,24.9,2.34,29.33
					c-2.26,29.7,1.59,21.92-3,70.67c-1.77,18.77-7.65,61.76-7.65,61.76c-0.74,5.45,2.73,11.8,7.72,14.11c0,0,13.4,6.21,28.26,8.46
					c10.43,1.58,17.12,2.51,23.67-0.66c7.14-3.46,12.08-10.81,18.33-36.67c0.98-4.08,2.12-8.02,2.66-11.95
					c4.59-33.35,3.85-91.03,2.73-103.44c-0.05-0.51-0.12-1-0.21-1.5c-0.29-1.63-1.13-6.78-1.13-6.78c-0.88-5.43-1.57-9.45-1.54-8.94
					s-0.84,1.15-2.02,0.29c0,0,0,0-1.81-2.26c-0.81-1.01-1.71-2.2-2.68-3.57c-10.18-14.15-27.93-44.11-42.22-79.94
					c-7.42-18.6-12.45-36.02-12.45-36.02c-1.53-5.28-0.16-11.62,3.04-14.09c3.2-2.46,4.96-5.7,4.95-5.71
					c-0.01-0.01-0.42-0.25-0.9-0.5c0,0,0,0-0.91,0c-1.2,0-1.2,0-1.2,0c-2.23,0.45-3.84,0.26-3.59-0.43
					c0.25-0.69-2.95-0.59-7.84,1.93L122.66,129.15z"/>
			</g>
			<g>
				<path class="st1" d="M152.14,123.69c-3.2,2.46-4.57,8.8-3.04,14.09c0,0,5.03,17.42,12.45,36.02
					c14.29,35.83,32.04,65.79,42.22,79.94c0.97,1.37,1.87,2.56,2.68,3.57c1.81,2.26,1.81,2.26,1.81,2.26
					c1.17,0.86,2.08,0.73,2.02-0.29c0,0,0,0-0.07-0.93c-0.05-0.63-0.05-0.63-0.05-0.63c-0.05-0.69-0.1-1.26-0.1-1.26
					s-0.01-0.05-0.03-0.1c0,0,0,0-0.01-0.03c-0.25-0.75-0.54-1.62-0.86-2.6c-0.45-1.32-0.05-0.18-0.67-1.93
					c-0.31-0.92-0.66-1.9-1.02-2.95c-0.03-0.08-0.03-0.08-0.03-0.08c-0.03-0.08-0.21-0.6-0.4-1.15c0,0,0,0-0.17-0.52
					c-0.5-1.42-1.03-2.97-1.59-4.62c-0.2-0.56-0.2-0.56-0.2-0.56c-0.21-0.65-0.44-1.32-0.51-1.49s-0.27-0.78-0.33-0.96
					c0,0,0,0-0.05-0.14c-0.15-0.44-0.29-0.88-0.45-1.34c-0.65-1.91-1.33-3.95-2.05-6.13c-0.24-0.71-0.47-1.44-0.71-2.18
					c-0.51-1.51-1.02-3.07-1.54-4.71c-2.22-6.81-9.72-30.12-17.4-59.64c-0.64-2.47-1.28-5-1.93-7.56
					c-5.09-20.28-8.32-35.92-8.91-55.81c-0.16-5.27-0.16-5.27-0.16-5.27c0.09-4.05-3.24-4.42-7.4-0.82c0,0-1.64,1.42-6.19,7.94
					c-1.38,1.98-2.56,3.92-3.56,5.77c-0.65,1.19-0.65,1.19-0.65,1.19c-0.59,1.25-1.08,2.27-1.08,2.27c0,0-0.19,0.41-0.43,0.92
					c0,0,0,0-0.2,0.44c-0.59,1.39-0.59,1.39-0.59,1.39c-0.51,1.38,0.9,2.14,3.13,1.69c0,0,0,0,1.2,0c0.91,0,0.91,0,0.91,0
					c0.47,0.25,0.87,0.47,0.88,0.48C157.09,117.97,155.34,121.23,152.14,123.69z"/>
				<path class="st2" d="M152.14,123.69c-3.2,2.46-4.57,8.8-3.04,14.09c0,0,5.03,17.42,12.45,36.02
					c14.29,35.83,32.04,65.79,42.22,79.94c0.97,1.37,1.87,2.56,2.68,3.57c1.81,2.26,1.81,2.26,1.81,2.26
					c1.17,0.86,2.08,0.73,2.02-0.29c0,0,0,0-0.07-0.93c-0.05-0.63-0.05-0.63-0.05-0.63c-0.05-0.69-0.1-1.26-0.1-1.26
					s-0.01-0.05-0.03-0.1c0,0,0,0-0.01-0.03c-0.25-0.75-0.54-1.62-0.86-2.6c-0.45-1.32-0.05-0.18-0.67-1.93
					c-0.31-0.92-0.66-1.9-1.02-2.95c-0.03-0.08-0.03-0.08-0.03-0.08c-0.03-0.08-0.21-0.6-0.4-1.15c0,0,0,0-0.17-0.52
					c-0.5-1.42-1.03-2.97-1.59-4.62c-0.2-0.56-0.2-0.56-0.2-0.56c-0.21-0.65-0.44-1.32-0.51-1.49s-0.27-0.78-0.33-0.96
					c0,0,0,0-0.05-0.14c-0.15-0.44-0.29-0.88-0.45-1.34c-0.65-1.91-1.33-3.95-2.05-6.13c-0.24-0.71-0.47-1.44-0.71-2.18
					c-0.51-1.51-1.02-3.07-1.54-4.71c-2.22-6.81-9.72-30.12-17.4-59.64c-0.64-2.47-1.28-5-1.93-7.56
					c-5.09-20.28-8.32-35.92-8.91-55.81c-0.16-5.27-0.16-5.27-0.16-5.27c0.09-4.05-3.24-4.42-7.4-0.82c0,0-1.64,1.42-6.19,7.94
					c-1.38,1.98-2.56,3.92-3.56,5.77c-0.65,1.19-0.65,1.19-0.65,1.19c-0.59,1.25-1.08,2.27-1.08,2.27c0,0-0.19,0.41-0.43,0.92
					c0,0,0,0-0.2,0.44c-0.59,1.39-0.59,1.39-0.59,1.39c-0.51,1.38,0.9,2.14,3.13,1.69c0,0,0,0,1.2,0c0.91,0,0.91,0,0.91,0
					c0.47,0.25,0.87,0.47,0.88,0.48C157.09,117.97,155.34,121.23,152.14,123.69z"/>
			</g>
		</g>
	</g>
	<g>
		<g>
			<g>
				<path class="st1" d="M326.53,407.87c-0.11,5.5-4.7,10-10.2,10h-14.67c-5.5,0-10-4.5-9.99-10c0,0,0.06-94.74-7.34-152
					c-0.9-6.99-1.47-10.86-1.47-10.86c-0.79-5.44-1.44-9.9-1.44-9.9c0,0-0.11-0.74-0.25-1.64c-0.14-0.9,0.17-7.71,0.99-13.15
					c0,0,9.43-62.05,12.06-72.77c0.92-3.73,3.34-13.32,7.11-14c0.41-0.08,0.41-0.08,0.41-0.08c0.42,0.14,0.99,0.44,1.26,0.65
					c0.27,0.22,0.88,0.72,0.88,0.72s0.06,0.06,0.11,0.12c0,0,0,0,0.05,0.06c0.76,0.9,0.76,0.9,0.76,0.9
					c0.73,1.14,2.09,6.5,3.03,11.92c0,0,12.1,69.65,15.84,115.37C328.31,319.9,326.53,407.87,326.53,407.87z"/>
				<path class="st2" d="M326.53,407.87c-0.11,5.5-4.7,10-10.2,10h-14.67c-5.5,0-10-4.5-9.99-10c0,0,0.06-94.74-7.34-152
					c-0.9-6.99-1.47-10.86-1.47-10.86c-0.79-5.44-1.44-9.9-1.44-9.9c0,0-0.11-0.74-0.25-1.64c-0.14-0.9,0.17-7.71,0.99-13.15
					c0,0,9.43-62.05,12.06-72.77c0.92-3.73,3.34-13.32,7.11-14c0.41-0.08,0.41-0.08,0.41-0.08c0.42,0.14,0.99,0.44,1.26,0.65
					c0.27,0.22,0.88,0.72,0.88,0.72s0.06,0.06,0.11,0.12c0,0,0,0,0.05,0.06c0.76,0.9,0.76,0.9,0.76,0.9
					c0.73,1.14,2.09,6.5,3.03,11.92c0,0,12.1,69.65,15.84,115.37C328.31,319.9,326.53,407.87,326.53,407.87z"/>
			</g>
			<g>
				<path class="st1" d="M293.6,129.15c4.9,2.5,8.9,4.55,8.9,4.55s-0.35-0.11-0.77-0.25c0,0,0,0-0.41,0.08
					c-3.77,0.68-6.19,10.27-7.11,14c-2.63,10.72-12.06,72.77-12.06,72.77c-0.83,5.44-1.39,10.62-1.25,11.52s0.26,1.63,0.51,3.27
					c0,0,0,0,0,0.01c0,0-0.88,2.19-1.96,4.86c0,0,0,0-1.29,4.93c-3.6,13.7-2.67,24.9-2.34,29.33c2.26,29.7-1.59,21.92,3,70.67
					c1.77,18.77,7.65,61.76,7.65,61.76c0.74,5.45-2.73,11.8-7.72,14.11c0,0-13.4,6.21-28.26,8.46c-10.43,1.58-17.12,2.51-23.67-0.66
					c-7.14-3.46-12.08-10.81-18.33-36.67c-0.98-4.08-2.12-8.02-2.66-11.95c-4.59-33.35-3.85-91.03-2.73-103.44
					c0.05-0.51,0.12-1,0.21-1.5c0.29-1.63,1.13-6.78,1.13-6.78c0.88-5.43,1.57-9.45,1.54-8.94s0.84,1.15,2.02,0.29
					c0,0,0,0,1.81-2.26c0.81-1.01,1.71-2.2,2.68-3.57c10.18-14.15,27.93-44.11,42.22-79.94c7.42-18.6,12.45-36.02,12.45-36.02
					c1.53-5.28,0.16-11.62-3.04-14.09c-3.2-2.46-4.96-5.7-4.95-5.71c0.01-0.01,0.42-0.25,0.9-0.5c0,0,0,0,0.91,0c1.2,0,1.2,0,1.2,0
					c2.23,0.45,3.84,0.26,3.59-0.43c-0.25-0.69,2.95-0.59,7.84,1.93L293.6,129.15z"/>
				<path class="st2" d="M293.6,129.15c4.9,2.5,8.9,4.55,8.9,4.55s-0.35-0.11-0.77-0.25c0,0,0,0-0.41,0.08
					c-3.77,0.68-6.19,10.27-7.11,14c-2.63,10.72-12.06,72.77-12.06,72.77c-0.83,5.44-1.39,10.62-1.25,11.52s0.26,1.63,0.51,3.27
					c0,0,0,0,0,0.01c0,0-0.88,2.19-1.96,4.86c0,0,0,0-1.29,4.93c-3.6,13.7-2.67,24.9-2.34,29.33c2.26,29.7-1.59,21.92,3,70.67
					c1.77,18.77,7.65,61.76,7.65,61.76c0.74,5.45-2.73,11.8-7.72,14.11c0,0-13.4,6.21-28.26,8.46c-10.43,1.58-17.12,2.51-23.67-0.66
					c-7.14-3.46-12.08-10.81-18.33-36.67c-0.98-4.08-2.12-8.02-2.66-11.95c-4.59-33.35-3.85-91.03-2.73-103.44
					c0.05-0.51,0.12-1,0.21-1.5c0.29-1.63,1.13-6.78,1.13-6.78c0.88-5.43,1.57-9.45,1.54-8.94s0.84,1.15,2.02,0.29
					c0,0,0,0,1.81-2.26c0.81-1.01,1.71-2.2,2.68-3.57c10.18-14.15,27.93-44.11,42.22-79.94c7.42-18.6,12.45-36.02,12.45-36.02
					c1.53-5.28,0.16-11.62-3.04-14.09c-3.2-2.46-4.96-5.7-4.95-5.71c0.01-0.01,0.42-0.25,0.9-0.5c0,0,0,0,0.91,0c1.2,0,1.2,0,1.2,0
					c2.23,0.45,3.84,0.26,3.59-0.43c-0.25-0.69,2.95-0.59,7.84,1.93L293.6,129.15z"/>
			</g>
			<g>
				<path class="st1" d="M264.12,123.69c3.2,2.46,4.57,8.8,3.04,14.09c0,0-5.03,17.42-12.45,36.02
					c-14.29,35.83-32.04,65.79-42.22,79.94c-0.97,1.37-1.87,2.56-2.68,3.57c-1.81,2.26-1.81,2.26-1.81,2.26
					c-1.17,0.86-2.08,0.73-2.02-0.29c0,0,0,0,0.07-0.93c0.05-0.63,0.05-0.63,0.05-0.63c0.05-0.69,0.1-1.26,0.1-1.26
					s0.01-0.05,0.03-0.1c0,0,0,0,0.01-0.03c0.25-0.75,0.54-1.62,0.86-2.6c0.45-1.32,0.05-0.18,0.67-1.93
					c0.31-0.92,0.66-1.9,1.02-2.95c0.03-0.08,0.03-0.08,0.03-0.08c0.03-0.08,0.21-0.6,0.4-1.15c0,0,0,0,0.17-0.52
					c0.5-1.42,1.03-2.97,1.59-4.62c0.2-0.56,0.2-0.56,0.2-0.56c0.21-0.65,0.44-1.32,0.51-1.49c0.06-0.17,0.27-0.78,0.33-0.96
					c0,0,0,0,0.05-0.14c0.15-0.44,0.29-0.88,0.45-1.34c0.65-1.91,1.33-3.95,2.05-6.13c0.24-0.71,0.47-1.44,0.71-2.18
					c0.51-1.51,1.02-3.07,1.54-4.71c2.22-6.81,9.72-30.12,17.4-59.64c0.64-2.47,1.28-5,1.93-7.56c5.09-20.28,8.32-35.92,8.91-55.81
					c0.16-5.27,0.16-5.27,0.16-5.27c-0.09-4.05,3.24-4.42,7.4-0.82c0,0,1.64,1.42,6.19,7.94c1.38,1.98,2.56,3.92,3.56,5.77
					c0.65,1.19,0.65,1.19,0.65,1.19c0.59,1.25,1.08,2.27,1.08,2.27s0.19,0.41,0.43,0.92c0,0,0,0,0.2,0.44
					c0.59,1.39,0.59,1.39,0.59,1.39c0.51,1.38-0.9,2.14-3.13,1.69c0,0,0,0-1.2,0c-0.91,0-0.91,0-0.91,0
					c-0.47,0.25-0.87,0.47-0.88,0.48S260.93,121.23,264.12,123.69z"/>
				<path class="st2" d="M264.12,123.69c3.2,2.46,4.57,8.8,3.04,14.09c0,0-5.03,17.42-12.45,36.02
					c-14.29,35.83-32.04,65.79-42.22,79.94c-0.97,1.37-1.87,2.56-2.68,3.57c-1.81,2.26-1.81,2.26-1.81,2.26
					c-1.17,0.86-2.08,0.73-2.02-0.29c0,0,0,0,0.07-0.93c0.05-0.63,0.05-0.63,0.05-0.63c0.05-0.69,0.1-1.26,0.1-1.26
					s0.01-0.05,0.03-0.1c0,0,0,0,0.01-0.03c0.25-0.75,0.54-1.62,0.86-2.6c0.45-1.32,0.05-0.18,0.67-1.93
					c0.31-0.92,0.66-1.9,1.02-2.95c0.03-0.08,0.03-0.08,0.03-0.08c0.03-0.08,0.21-0.6,0.4-1.15c0,0,0,0,0.17-0.52
					c0.5-1.42,1.03-2.97,1.59-4.62c0.2-0.56,0.2-0.56,0.2-0.56c0.21-0.65,0.44-1.32,0.51-1.49c0.06-0.17,0.27-0.78,0.33-0.96
					c0,0,0,0,0.05-0.14c0.15-0.44,0.29-0.88,0.45-1.34c0.65-1.91,1.33-3.95,2.05-6.13c0.24-0.71,0.47-1.44,0.71-2.18
					c0.51-1.51,1.02-3.07,1.54-4.71c2.22-6.81,9.72-30.12,17.4-59.64c0.64-2.47,1.28-5,1.93-7.56c5.09-20.28,8.32-35.92,8.91-55.81
					c0.16-5.27,0.16-5.27,0.16-5.27c-0.09-4.05,3.24-4.42,7.4-0.82c0,0,1.64,1.42,6.19,7.94c1.38,1.98,2.56,3.92,3.56,5.77
					c0.65,1.19,0.65,1.19,0.65,1.19c0.59,1.25,1.08,2.27,1.08,2.27s0.19,0.41,0.43,0.92c0,0,0,0,0.2,0.44
					c0.59,1.39,0.59,1.39,0.59,1.39c0.51,1.38-0.9,2.14-3.13,1.69c0,0,0,0-1.2,0c-0.91,0-0.91,0-0.91,0
					c-0.47,0.25-0.87,0.47-0.88,0.48S260.93,121.23,264.12,123.69z"/>
			</g>
		</g>
	</g>
	<circle class="st0" cx="211.47" cy="275.33" r="5"/>
	<circle class="st0" cx="211.47" cy="322.33" r="5"/>
	<g>
		<polygon class="st3" points="278.3,346.45 278.17,346.46 277.19,327.45 239.85,328.78 239.85,326.34 277.19,325 		"/>
		<path class="st3" d="M278.3,348.89l-31.23,2.54c-3.89,0.32-7.22-2.75-7.22-6.65v-16l37.34-1.33l0.98,19.01L278.3,348.89z"/>
		<line class="st3" x1="254.74" y1="245.78" x2="253.63" y2="325"/>
	</g>
	<g>
		<polygon class="st3" points="138.85,346.45 138.98,346.46 139.96,327.45 177.3,328.78 177.3,326.34 139.96,325 		"/>
		<path class="st3" d="M138.85,348.89l31.23,2.54c3.89,0.32,7.22-2.75,7.22-6.65v-16l-37.34-1.33l-0.98,19.01L138.85,348.89z"/>
		<line class="st3" x1="162.41" y1="245.78" x2="163.52" y2="325"/>
	</g>
	<path class="st3" d="M250.92,184.03c9.7-0.37,15.3-1.63,25-2c0,3.63,0,7.37,0,11c-12.07,1.19-17.93,2.81-30,4
		C248.29,192.59,248.55,188.47,250.92,184.03z"/>
</g>
</svg>
