<?xml version="1.0" encoding="utf-8"?>
<!-- Generator: Adobe Illustrator 26.0.1, SVG Export Plug-In . SVG Version: 6.00 Build 0)  -->
<svg version="1.1" id="Layer_1" xmlns="http://www.w3.org/2000/svg" xmlns:xlink="http://www.w3.org/1999/xlink" x="0px" y="0px"
	 viewBox="0 0 423 520" style="enable-background:new 0 0 423 520;" xml:space="preserve">
<style type="text/css">
	.st0{fill:#010101;}
	.st1{fill:#FFFFFF;}
	.st2{fill:none;stroke:#010101;stroke-width:3;stroke-miterlimit:10;}
	.st3{stroke:#010101;stroke-width:3;stroke-miterlimit:10;}
	.st4{fill:#FFFFFF;stroke:#010101;stroke-miterlimit:10;}
	.st5{fill:none;stroke:#010101;stroke-miterlimit:10;}
</style>
<circle class="st0" cx="210.5" cy="275.3" r="5"/>
<circle class="st0" cx="210.5" cy="320.3" r="5"/>
<g>
	<path class="st1" d="M89.7,407.9c0.1,5.5,4.7,10,10.2,10h14.7c5.5,0,10-4.5,10-10c0,0-0.1-94.7,7.3-152c0.9-7,1.5-10.9,1.5-10.9
		c0.8-5.4,1.4-9.9,1.4-9.9s0.1-0.7,0.2-1.6s-0.2-7.7-1-13.1c0,0-9.4-62.1-12.1-72.8c-0.9-3.7-3.3-13.3-7.1-14
		c-0.4-0.1-0.4-0.1-0.4-0.1c-0.4,0.1-1,0.4-1.3,0.6c-0.3,0.2-0.9,0.7-0.9,0.7l-0.1,0.1c0,0,0,0-0.1,0.1c-0.8,0.9-0.8,0.9-0.8,0.9
		c-0.7,1.1-2.1,6.5-3,11.9c0,0-12.1,69.6-15.8,115.4C88,319.9,89.7,407.9,89.7,407.9z"/>
	<path class="st2" d="M89.7,407.9c0.1,5.5,4.7,10,10.2,10h14.7c5.5,0,10-4.5,10-10c0,0-0.1-94.7,7.3-152c0.9-7,1.5-10.9,1.5-10.9
		c0.8-5.4,1.4-9.9,1.4-9.9s0.1-0.7,0.2-1.6s-0.2-7.7-1-13.1c0,0-9.4-62.1-12.1-72.8c-0.9-3.7-3.3-13.3-7.1-14
		c-0.4-0.1-0.4-0.1-0.4-0.1c-0.4,0.1-1,0.4-1.3,0.6c-0.3,0.2-0.9,0.7-0.9,0.7l-0.1,0.1c0,0,0,0-0.1,0.1c-0.8,0.9-0.8,0.9-0.8,0.9
		c-0.7,1.1-2.1,6.5-3,11.9c0,0-12.1,69.6-15.8,115.4C88,319.9,89.7,407.9,89.7,407.9z"/>
</g>
<g>
	<path class="st1" d="M122.7,129.1c-4.9,2.5-8.9,4.6-8.9,4.6s0.3-0.1,0.8-0.2c0,0,0,0,0.4,0.1c3.8,0.7,6.2,10.3,7.1,14
		c2.6,10.7,12.1,72.8,12.1,72.8c0.8,5.4,1.4,10.6,1.2,11.5c-0.1,0.9-0.3,1.6-0.5,3.3l0,0c0,0,0.9,2.2,2,4.9c0,0,0,0,1.3,4.9
		c3.6,13.7,2.7,24.9,2.3,29.3c-2.3,29.7,1.6,21.9-3,70.7c-1.8,18.8-7.6,61.8-7.6,61.8c-0.7,5.5,2.7,11.8,7.7,14.1
		c0,0,13.4,6.2,28.3,8.5c10.4,1.6,17.1,2.5,23.7-0.7c7.1-3.5,12.1-10.8,18.3-36.7c1-4.1,2.1-8,2.7-12c4.6-33.4,3.9-91,2.7-103.4
		c-0.1-0.5-0.1-1-0.2-1.5c-0.3-1.6-1.1-6.8-1.1-6.8c-0.9-5.4-1.6-9.5-1.5-8.9s-0.8,1.1-2,0.3c0,0,0,0-1.8-2.3
		c-0.8-1-1.7-2.2-2.7-3.6c-10.2-14.1-27.9-44.1-42.2-79.9c-7.4-18.6-12.4-36-12.4-36c-1.5-5.3-0.2-11.6,3-14.1s5-5.7,4.9-5.7
		c0,0-0.4-0.2-0.9-0.5c0,0,0,0-0.9,0c-1.2,0-1.2,0-1.2,0c-2.2,0.4-3.8,0.3-3.6-0.4s-2.9-0.6-7.8,1.9L122.7,129.1z"/>
	<path class="st2" d="M122.7,129.1c-4.9,2.5-8.9,4.6-8.9,4.6s0.3-0.1,0.8-0.2c0,0,0,0,0.4,0.1c3.8,0.7,6.2,10.3,7.1,14
		c2.6,10.7,12.1,72.8,12.1,72.8c0.8,5.4,1.4,10.6,1.2,11.5c-0.1,0.9-0.3,1.6-0.5,3.3l0,0c0,0,0.9,2.2,2,4.9c0,0,0,0,1.3,4.9
		c3.6,13.7,2.7,24.9,2.3,29.3c-2.3,29.7,1.6,21.9-3,70.7c-1.8,18.8-7.6,61.8-7.6,61.8c-0.7,5.5,2.7,11.8,7.7,14.1
		c0,0,13.4,6.2,28.3,8.5c10.4,1.6,17.1,2.5,23.7-0.7c7.1-3.5,12.1-10.8,18.3-36.7c1-4.1,2.1-8,2.7-12c4.6-33.4,3.9-91,2.7-103.4
		c-0.1-0.5-0.1-1-0.2-1.5c-0.3-1.6-1.1-6.8-1.1-6.8c-0.9-5.4-1.6-9.5-1.5-8.9s-0.8,1.1-2,0.3c0,0,0,0-1.8-2.3
		c-0.8-1-1.7-2.2-2.7-3.6c-10.2-14.1-27.9-44.1-42.2-79.9c-7.4-18.6-12.4-36-12.4-36c-1.5-5.3-0.2-11.6,3-14.1s5-5.7,4.9-5.7
		c0,0-0.4-0.2-0.9-0.5c0,0,0,0-0.9,0c-1.2,0-1.2,0-1.2,0c-2.2,0.4-3.8,0.3-3.6-0.4s-2.9-0.6-7.8,1.9L122.7,129.1z"/>
</g>
<g>
	<path d="M152.1,123.7c-3.2,2.5-4.6,8.8-3,14.1c0,0,5,17.4,12.4,36c14.3,35.8,32,65.8,42.2,79.9c1,1.4,1.9,2.6,2.7,3.6
		c1.8,2.3,1.8,2.3,1.8,2.3c1.2,0.9,2.1,0.7,2-0.3c0,0,0,0-0.1-0.9c-0.1-0.6-0.1-0.6-0.1-0.6c-0.1-0.7-0.1-1.3-0.1-1.3s0,0,0-0.1l0,0
		c-0.2-0.8-0.5-1.6-0.9-2.6c-0.4-1.3-0.1-0.2-0.7-1.9c-0.3-0.9-0.7-1.9-1-2.9c0-0.1,0-0.1,0-0.1c0-0.1-0.2-0.6-0.4-1.1
		c0,0,0,0-0.2-0.5c-0.5-1.4-1-3-1.6-4.6c-0.2-0.6-0.2-0.6-0.2-0.6c-0.2-0.6-0.4-1.3-0.5-1.5s-0.3-0.8-0.3-1c0,0,0,0-0.1-0.1
		c-0.1-0.4-0.3-0.9-0.4-1.3c-0.6-1.9-1.3-3.9-2.1-6.1c-0.2-0.7-0.5-1.4-0.7-2.2c-0.5-1.5-1-3.1-1.5-4.7c-2.2-6.8-9.7-30.1-17.4-59.6
		c-0.6-2.5-1.3-5-1.9-7.6c-5.1-20.3-8.3-35.9-8.9-55.8c-0.2-5.3-0.2-5.3-0.2-5.3c0.1-4.1-3.2-4.4-7.4-0.8c0,0-1.6,1.4-6.2,7.9
		c-1.4,2-2.6,3.9-3.6,5.8c-0.6,1.2-0.6,1.2-0.6,1.2c-0.6,1.2-1.1,2.3-1.1,2.3s-0.2,0.4-0.4,0.9c0,0,0,0-0.2,0.4
		c-0.6,1.4-0.6,1.4-0.6,1.4c-0.5,1.4,0.9,2.1,3.1,1.7c0,0,0,0,1.2,0c0.9,0,0.9,0,0.9,0c0.5,0.2,0.9,0.5,0.9,0.5
		C157.1,118,155.3,121.2,152.1,123.7z"/>
	<path class="st3" d="M152.1,123.7c-3.2,2.5-4.6,8.8-3,14.1c0,0,5,17.4,12.4,36c14.3,35.8,32,65.8,42.2,79.9c1,1.4,1.9,2.6,2.7,3.6
		c1.8,2.3,1.8,2.3,1.8,2.3c1.2,0.9,2.1,0.7,2-0.3c0,0,0,0-0.1-0.9c-0.1-0.6-0.1-0.6-0.1-0.6c-0.1-0.7-0.1-1.3-0.1-1.3s0,0,0-0.1l0,0
		c-0.2-0.8-0.5-1.6-0.9-2.6c-0.4-1.3-0.1-0.2-0.7-1.9c-0.3-0.9-0.7-1.9-1-2.9c0-0.1,0-0.1,0-0.1c0-0.1-0.2-0.6-0.4-1.1
		c0,0,0,0-0.2-0.5c-0.5-1.4-1-3-1.6-4.6c-0.2-0.6-0.2-0.6-0.2-0.6c-0.2-0.6-0.4-1.3-0.5-1.5s-0.3-0.8-0.3-1c0,0,0,0-0.1-0.1
		c-0.1-0.4-0.3-0.9-0.4-1.3c-0.6-1.9-1.3-3.9-2.1-6.1c-0.2-0.7-0.5-1.4-0.7-2.2c-0.5-1.5-1-3.1-1.5-4.7c-2.2-6.8-9.7-30.1-17.4-59.6
		c-0.6-2.5-1.3-5-1.9-7.6c-5.1-20.3-8.3-35.9-8.9-55.8c-0.2-5.3-0.2-5.3-0.2-5.3c0.1-4.1-3.2-4.4-7.4-0.8c0,0-1.6,1.4-6.2,7.9
		c-1.4,2-2.6,3.9-3.6,5.8c-0.6,1.2-0.6,1.2-0.6,1.2c-0.6,1.2-1.1,2.3-1.1,2.3s-0.2,0.4-0.4,0.9c0,0,0,0-0.2,0.4
		c-0.6,1.4-0.6,1.4-0.6,1.4c-0.5,1.4,0.9,2.1,3.1,1.7c0,0,0,0,1.2,0c0.9,0,0.9,0,0.9,0c0.5,0.2,0.9,0.5,0.9,0.5
		C157.1,118,155.3,121.2,152.1,123.7z"/>
</g>
<g>
	<path class="st1" d="M326.5,407.9c-0.1,5.5-4.7,10-10.2,10h-14.7c-5.5,0-10-4.5-10-10c0,0,0.1-94.7-7.3-152
		c-0.9-7-1.5-10.9-1.5-10.9c-0.8-5.4-1.4-9.9-1.4-9.9s-0.1-0.7-0.2-1.6s0.2-7.7,1-13.1c0,0,9.4-62.1,12.1-72.8
		c0.9-3.7,3.3-13.3,7.1-14c0.4-0.1,0.4-0.1,0.4-0.1c0.4,0.1,1,0.4,1.3,0.6c0.3,0.2,0.9,0.7,0.9,0.7l0.1,0.1c0,0,0,0,0,0.1
		c0.8,0.9,0.8,0.9,0.8,0.9c0.7,1.1,2.1,6.5,3,11.9c0,0,12.1,69.6,15.8,115.4C328.3,319.9,326.5,407.9,326.5,407.9z"/>
	<path class="st2" d="M326.5,407.9c-0.1,5.5-4.7,10-10.2,10h-14.7c-5.5,0-10-4.5-10-10c0,0,0.1-94.7-7.3-152
		c-0.9-7-1.5-10.9-1.5-10.9c-0.8-5.4-1.4-9.9-1.4-9.9s-0.1-0.7-0.2-1.6s0.2-7.7,1-13.1c0,0,9.4-62.1,12.1-72.8
		c0.9-3.7,3.3-13.3,7.1-14c0.4-0.1,0.4-0.1,0.4-0.1c0.4,0.1,1,0.4,1.3,0.6c0.3,0.2,0.9,0.7,0.9,0.7l0.1,0.1c0,0,0,0,0,0.1
		c0.8,0.9,0.8,0.9,0.8,0.9c0.7,1.1,2.1,6.5,3,11.9c0,0,12.1,69.6,15.8,115.4C328.3,319.9,326.5,407.9,326.5,407.9z"/>
</g>
<g>
	<path class="st1" d="M293.6,129.1c4.9,2.5,8.9,4.6,8.9,4.6s-0.4-0.1-0.8-0.2c0,0,0,0-0.4,0.1c-3.8,0.7-6.2,10.3-7.1,14
		c-2.6,10.7-12.1,72.8-12.1,72.8c-0.8,5.4-1.4,10.6-1.2,11.5s0.3,1.6,0.5,3.3l0,0c0,0-0.9,2.2-2,4.9c0,0,0,0-1.3,4.9
		c-3.6,13.7-2.7,24.9-2.3,29.3c2.3,29.7-1.6,21.9,3,70.7c1.8,18.8,7.6,61.8,7.6,61.8c0.7,5.5-2.7,11.8-7.7,14.1
		c0,0-13.4,6.2-28.3,8.5c-10.4,1.6-17.1,2.5-23.7-0.7c-7.1-3.5-12.1-10.8-18.3-36.7c-1-4.1-2.1-8-2.7-12c-4.6-33.4-3.9-91-2.7-103.4
		c0.1-0.5,0.1-1,0.2-1.5c0.3-1.6,1.1-6.8,1.1-6.8c0.9-5.4,1.6-9.5,1.5-8.9s0.8,1.1,2,0.3c0,0,0,0,1.8-2.3c0.8-1,1.7-2.2,2.7-3.6
		c10.2-14.1,27.9-44.1,42.2-79.9c7.4-18.6,12.4-36,12.4-36c1.5-5.3,0.2-11.6-3-14.1s-5-5.7-5-5.7s0.4-0.2,0.9-0.5c0,0,0,0,0.9,0
		c1.2,0,1.2,0,1.2,0c2.2,0.4,3.8,0.3,3.6-0.4s3-0.6,7.8,1.9L293.6,129.1z"/>
	<path class="st2" d="M301.3,133.6c-3.8,0.7-6.2,10.3-7.1,14c-2.6,10.7-12.1,72.8-12.1,72.8c-0.8,5.4-1.4,10.6-1.2,11.5
		s0.3,1.6,0.5,3.3l0,0c0,0-0.9,2.2-2,4.9c0,0,0,0-1.3,4.9c-3.6,13.7-2.7,24.9-2.3,29.3c2.3,29.7-1.6,21.9,3,70.7
		c1.8,18.8,7.6,61.8,7.6,61.8c0.7,5.5-2.7,11.8-7.7,14.1c0,0-13.4,6.2-28.3,8.5c-10.4,1.6-17.1,2.5-23.7-0.7
		c-7.1-3.5-12.1-10.8-18.3-36.7c-1-4.1-2.1-8-2.7-12c-4.6-33.4-3.9-91-2.7-103.4c0.1-0.5,0.1-1,0.2-1.5c0.3-1.6,1.1-6.8,1.1-6.8
		c0.9-5.4,1.6-9.5,1.5-8.9s0.8,1.1,2,0.3c0,0,0,0,1.8-2.3c0.8-1,1.7-2.2,2.7-3.6c10.2-14.1,27.9-44.1,42.2-79.9
		c7.4-18.6,12.4-36,12.4-36c1.5-5.3,0.2-11.6-3-14.1s-5-5.7-5-5.7s0.4-0.2,0.9-0.5c0,0,0,0,0.9,0c1.2,0,1.2,0,1.2,0
		c2.2,0.4,3.8,0.3,3.6-0.4s3-0.6,7.8,1.9l20.3,10c4.9,2.5,7.9,4.3,7.9,4.3L301.3,133.6z"/>
</g>
<g>
	<path d="M264.1,123.7c3.2,2.5,4.6,8.8,3,14.1c0,0-5,17.4-12.4,36c-14.3,35.8-32,65.8-42.2,79.9c-1,1.4-1.9,2.6-2.7,3.6
		c-1.8,2.3-1.8,2.3-1.8,2.3c-1.2,0.9-2.1,0.7-2-0.3c0,0,0,0,0.1-0.9c0.1-0.6,0.1-0.6,0.1-0.6c0.1-0.7,0.1-1.3,0.1-1.3s0,0,0-0.1l0,0
		c0.2-0.8,0.5-1.6,0.9-2.6c0.4-1.3,0.1-0.2,0.7-1.9c0.3-0.9,0.7-1.9,1-2.9c0-0.1,0-0.1,0-0.1c0-0.1,0.2-0.6,0.4-1.1c0,0,0,0,0.2-0.5
		c0.5-1.4,1-3,1.6-4.6c0.2-0.6,0.2-0.6,0.2-0.6c0.2-0.6,0.4-1.3,0.5-1.5s0.3-0.8,0.3-1c0,0,0,0,0.1-0.1c0.1-0.4,0.3-0.9,0.4-1.3
		c0.6-1.9,1.3-3.9,2.1-6.1c0.2-0.7,0.5-1.4,0.7-2.2c0.5-1.5,1-3.1,1.5-4.7c2.2-6.8,9.7-30.1,17.4-59.6c0.6-2.5,1.3-5,1.9-7.6
		c5.1-20.3,8.3-35.9,8.9-55.8c0.2-5.3,0.2-5.3,0.2-5.3c-0.1-4.1,3.2-4.4,7.4-0.8c0,0,1.6,1.4,6.2,7.9c1.4,2,2.6,3.9,3.6,5.8
		c0.6,1.2,0.6,1.2,0.6,1.2c0.6,1.2,1.1,2.3,1.1,2.3s0.2,0.4,0.4,0.9c0,0,0,0,0.2,0.4c0.6,1.4,0.6,1.4,0.6,1.4
		c0.5,1.4-0.9,2.1-3.1,1.7c0,0,0,0-1.2,0c-0.9,0-0.9,0-0.9,0c-0.5,0.2-0.9,0.5-0.9,0.5S260.9,121.2,264.1,123.7z"/>
	<path class="st3" d="M264.1,123.7c3.2,2.5,4.6,8.8,3,14.1c0,0-5,17.4-12.4,36c-14.3,35.8-32,65.8-42.2,79.9c-1,1.4-1.9,2.6-2.7,3.6
		c-1.8,2.3-1.8,2.3-1.8,2.3c-1.2,0.9-2.1,0.7-2-0.3c0,0,0,0,0.1-0.9c0.1-0.6,0.1-0.6,0.1-0.6c0.1-0.7,0.1-1.3,0.1-1.3s0,0,0-0.1l0,0
		c0.2-0.8,0.5-1.6,0.9-2.6c0.4-1.3,0.1-0.2,0.7-1.9c0.3-0.9,0.7-1.9,1-2.9c0-0.1,0-0.1,0-0.1c0-0.1,0.2-0.6,0.4-1.1c0,0,0,0,0.2-0.5
		c0.5-1.4,1-3,1.6-4.6c0.2-0.6,0.2-0.6,0.2-0.6c0.2-0.6,0.4-1.3,0.5-1.5s0.3-0.8,0.3-1c0,0,0,0,0.1-0.1c0.1-0.4,0.3-0.9,0.4-1.3
		c0.6-1.9,1.3-3.9,2.1-6.1c0.2-0.7,0.5-1.4,0.7-2.2c0.5-1.5,1-3.1,1.5-4.7c2.2-6.8,9.7-30.1,17.4-59.6c0.6-2.5,1.3-5,1.9-7.6
		c5.1-20.3,8.3-35.9,8.9-55.8c0.2-5.3,0.2-5.3,0.2-5.3c-0.1-4.1,3.2-4.4,7.4-0.8c0,0,1.6,1.4,6.2,7.9c1.4,2,2.6,3.9,3.6,5.8
		c0.6,1.2,0.6,1.2,0.6,1.2c0.6,1.2,1.1,2.3,1.1,2.3s0.2,0.4,0.4,0.9c0,0,0,0,0.2,0.4c0.6,1.4,0.6,1.4,0.6,1.4
		c0.5,1.4-0.9,2.1-3.1,1.7c0,0,0,0-1.2,0c-0.9,0-0.9,0-0.9,0c-0.5,0.2-0.9,0.5-0.9,0.5S260.9,121.2,264.1,123.7z"/>
</g>
<circle class="st0" cx="211.5" cy="275.3" r="5"/>
<circle class="st0" cx="211.5" cy="322.3" r="5"/>
<polygon class="st3" points="278.3,346.5 278.2,346.5 277.2,327.5 239.9,328.8 239.9,326.3 277.2,325 "/>
<path class="st4" d="M278.3,348.9l-31.2,2.5c-3.9,0.3-7.2-2.8-7.2-6.6v-16l37.3-1.3l1,19L278.3,348.9z"/>
<line class="st5" x1="254.7" y1="245.8" x2="253.6" y2="325"/>
<polygon class="st3" points="138.9,346.5 139,346.5 140,327.5 177.3,328.8 177.3,326.3 140,325 "/>
<path class="st4" d="M138.9,348.9l31.2,2.5c3.9,0.3,7.2-2.8,7.2-6.6v-16l-37.3-1.3l-1,19L138.9,348.9z"/>
<line class="st5" x1="162.4" y1="245.8" x2="163.5" y2="325"/>
<path class="st4" d="M250.9,184c9.7-0.4,15.3-1.6,25-2c0,3.6,0,7.4,0,11c-12.1,1.2-17.9,2.8-30,4C248.3,192.6,248.6,188.5,250.9,184
	z"/>
</svg>
