<?xml version="1.0" encoding="utf-8"?>
<!-- Generator: Adobe Illustrator 26.0.1, SVG Export Plug-In . SVG Version: 6.00 Build 0)  -->
<svg version="1.1" id="Layer_1" xmlns="http://www.w3.org/2000/svg" xmlns:xlink="http://www.w3.org/1999/xlink" x="0px" y="0px"
	 viewBox="0 0 423 520" style="enable-background:new 0 0 423 520;" xml:space="preserve">
<style type="text/css">
	.st0{fill:#FFFFFF;}
	.st1{fill:none;stroke:#010101;stroke-width:3;stroke-miterlimit:10;}
</style>
<g>
	<path class="st0" d="M312.09,145.13c-2.66,0.7-3.28,2.91-1.39,4.9l13.2,14.54c1.85,2.03,2.52,5.77,1.47,8.32
		c0,0-41.92,102.25-55.9,134.16c-8.31,18.96-18.02,40.23-36.95,63.88c-4.19,5.24-8.4,10.05-12.53,14.45
		c-2.88,3.07-5.72,5.94-8.5,8.62c-7.85,7.57-17.33,15.15-17.33,15.15c-2.15,1.72-2.93,1.1-1.73-1.38c0,0,6.35-13.15,10.57-22.39
		c2.85-6.23,5.69-12.59,8.5-19.08c23.69-54.62,45.73-118.07,61.6-189.84c6.99-31.61,15.13-85.79,15.13-85.79
		c0.41-2.72,2.24-3.27,4.08-1.22l39.02,45.66c1.88,2.01,1.24,4.23-1.42,4.93L312.09,145.13z"/>
	<path class="st1" d="M312.09,145.13c-2.66,0.7-3.28,2.91-1.39,4.9l13.2,14.54c1.85,2.03,2.52,5.77,1.47,8.32
		c0,0-41.92,102.25-55.9,134.16c-8.31,18.96-18.02,40.23-36.95,63.88c-4.19,5.24-8.4,10.05-12.53,14.45
		c-2.88,3.07-5.72,5.94-8.5,8.62c-7.85,7.57-17.33,15.15-17.33,15.15c-2.15,1.72-2.93,1.1-1.73-1.38c0,0,6.35-13.15,10.57-22.39
		c2.85-6.23,5.69-12.59,8.5-19.08c23.69-54.62,45.73-118.07,61.6-189.84c6.99-31.61,15.13-85.79,15.13-85.79
		c0.41-2.72,2.24-3.27,4.08-1.22l39.02,45.66c1.88,2.01,1.24,4.23-1.42,4.93L312.09,145.13z"/>
</g>
<g>
	<path class="st0" d="M209.69,361.64c0.99,2.56,0.9,6.72-0.21,9.24l-4.43,9.95c-1.13,2.51-3.57,2.89-5.42,0.85
		c0,0-4.98-5.5-9.17-10.74c-18.94-23.65-28.65-44.92-36.95-63.88c-13.98-31.91-55.91-134.16-55.91-134.16
		c-1.04-2.54-0.38-6.29,1.48-8.32l13.2-14.54c1.9-1.99,1.27-4.2-1.39-4.9l-17.8-5.09c-2.66-0.7-3.3-2.92-1.42-4.93l39.02-45.66
		c1.84-2.05,3.67-1.5,4.08,1.22c0,0,8.14,54.18,15.12,85.79C165.76,248.23,209.69,361.64,209.69,361.64z"/>
	<path class="st1" d="M209.69,361.64c0.99,2.56,0.9,6.72-0.21,9.24l-4.43,9.95c-1.13,2.51-3.57,2.89-5.42,0.85
		c0,0-4.98-5.5-9.17-10.74c-18.94-23.65-28.65-44.92-36.95-63.88c-13.98-31.91-55.91-134.16-55.91-134.16
		c-1.04-2.54-0.38-6.29,1.48-8.32l13.2-14.54c1.9-1.99,1.27-4.2-1.39-4.9l-17.8-5.09c-2.66-0.7-3.3-2.92-1.42-4.93l39.02-45.66
		c1.84-2.05,3.67-1.5,4.08,1.22c0,0,8.14,54.18,15.12,85.79C165.76,248.23,209.69,361.64,209.69,361.64z"/>
</g>
</svg>
