<svg id="Layer_1" data-name="Layer 1" xmlns="http://www.w3.org/2000/svg" viewBox="0 0 423 520"><defs><style>.cls-1,.cls-2,.cls-3,.cls-5,.cls-6,.cls-7{fill:#fff;}.cls-1,.cls-2,.cls-4,.cls-5,.cls-6,.cls-7{stroke:#000;stroke-miterlimit:10;}.cls-1{stroke-width:2.63px;}.cls-2{stroke-width:2.52px;}.cls-4{fill:none;stroke-width:3px;}.cls-5{stroke-width:3.05px;}.cls-6{stroke-width:3.07px;}</style></defs><path class="cls-1" d="M182.59,86.66l8.18-2.4a78.88,78.88,0,0,1,44.29,0l8.18,2.4V411.27H182.59Z"/><path class="cls-2" d="M196.64,109.34c.31.13.62.26.94.41L197.51,133l-.18,57.76c-1.05-.19-2.08-.4-3.11-.62-29.37-6.45-50.89-27.38-50.89-52.21,0-12.6,5.54-24.19,14.83-33.39,7.94-3.38,15.65-6.66,22.65-9.66a24,24,0,0,0,2.94,7.31,22.79,22.79,0,0,0,1.37,2,29,29,0,0,0,11.52,8.9Z"/><path class="cls-2" d="M283.37,137.93a44.68,44.68,0,0,1-8.07,25.31A57.14,57.14,0,0,1,264,175.38a74.66,74.66,0,0,1-28,13.9q-2.9.76-5.89,1.34L230,133l-.05-23.46c.24-.12.49-.22.73-.32v3.87a29.76,29.76,0,0,0,10-7.08,24.17,24.17,0,0,0,5.78-11c6.8,2.91,14.28,6.09,22,9.36C277.78,113.64,283.37,125.27,283.37,137.93Z"/><path class="cls-3" d="M197.27,109.61a84.93,84.93,0,0,1,.28,10.14V123c0,5.5,0,14.5-.06,20l-.12,37.76c0,5.5,0,14.5-.06,20l-.63,207.61c0,5.5-.75,9.88-1.64,9.73l-.81-.14c-20.2-3.42-50.45-8.59-50.45-8.59a10.68,10.68,0,0,1-8.69-11.61s10.44-88.54,10.39-107.4c0-14.35-2-18.34-1-33.37.35-5.47,1.17-11.83-1.24-20.41a48.3,48.3,0,0,0-3.9-9.69l-.61-1.13c-.49-.81-2.13-1.52-3.65-1.59s-3.24-5.63-4-11.08c0,0-9-62.37-11.58-73.1a66.67,66.67,0,0,0-4.2-12.47l-.87-1.69c-1.06-1,2.21-3.6,7.27-5.76l36.48-15.53,13.45-5.73c5.06-2.16,9.56-2.78,10-1.37a50.35,50.35,0,0,0,2.56,5.47,62.12,62.12,0,0,0,4.4,4.7c1.89,1.87,8.07,4.64,8.07,3.61S197.09,109.53,197.27,109.61Z"/><path class="cls-4" d="M197.27,109.61a84.93,84.93,0,0,1,.28,10.14V123c0,5.5,0,14.5-.06,20l-.12,37.76c0,5.5,0,14.5-.06,20l-.63,207.61c0,5.5-.75,9.88-1.64,9.73l-.81-.14c-20.2-3.42-50.45-8.59-50.45-8.59a10.68,10.68,0,0,1-8.69-11.61s10.44-88.54,10.39-107.4c0-14.35-2-18.34-1-33.37.35-5.47,1.17-11.83-1.24-20.41a48.3,48.3,0,0,0-3.9-9.69l-.61-1.13c-.49-.81-2.13-1.52-3.65-1.59s-3.24-5.63-4-11.08c0,0-9-62.37-11.58-73.1a66.67,66.67,0,0,0-4.2-12.47l-.87-1.69c-1.06-1,2.21-3.6,7.27-5.76l36.48-15.53,13.45-5.73c5.06-2.16,9.56-2.78,10-1.37a50.35,50.35,0,0,0,2.56,5.47,62.12,62.12,0,0,0,4.4,4.7c1.89,1.87,8.07,4.64,8.07,3.61S197.09,109.53,197.27,109.61Z"/><path class="cls-3" d="M305.17,120.07c5.06,2.16,8.45,4.59,7.54,5.4l-.76,1.35c-2.21,3.94-3.95,10.59-4.58,13.17-2.63,10.73-11.58,73.1-11.58,73.1-.78,5.45-2.66,9.95-4.18,10a4.64,4.64,0,0,0-3.1,2l-.33.56a48.59,48.59,0,0,0-4.57,10.91c-2.41,8.58-1.59,14.94-1.24,20.41,1,15-.95,19-1,33.37-.05,18.86,10.39,107.4,10.39,107.4a10.69,10.69,0,0,1-8.69,11.62s-27.88,4.78-47.08,8l-1.79.3c-2,.33-3.57-3.9-3.58-9.4l-.5-207.67c0-5.5,0-14.5,0-20L230,143c0-5.5,0-14.5,0-20v-3.46c0-5.5.09-10.05.22-10.11s.49.66.49,1.72,3.29.1,7.31-2.16l2.7-3,2.77-3c1.66-4.36,7.15-6.16,12.21-4l12.77,5.44Z"/><path class="cls-4" d="M305.17,120.07c5.06,2.16,8.45,4.59,7.54,5.4l-.76,1.35c-2.21,3.94-3.95,10.59-4.58,13.17-2.63,10.73-11.58,73.1-11.58,73.1-.78,5.45-2.66,9.95-4.18,10a4.64,4.64,0,0,0-3.1,2l-.33.56a48.59,48.59,0,0,0-4.57,10.91c-2.41,8.58-1.59,14.94-1.24,20.41,1,15-.95,19-1,33.37-.05,18.86,10.39,107.4,10.39,107.4a10.69,10.69,0,0,1-8.69,11.62s-27.88,4.78-47.08,8l-1.79.3c-2,.33-3.57-3.9-3.58-9.4l-.5-207.67c0-5.5,0-14.5,0-20L230,143c0-5.5,0-14.5,0-20v-3.46c0-5.5.09-10.05.22-10.11s.49.66.49,1.72,3.29.1,7.31-2.16l2.7-3,2.77-3c1.66-4.36,7.15-6.16,12.21-4l12.77,5.44Z"/><path class="cls-5" d="M197.22,99.5v13.59a30,30,0,0,1-11.94-8.9,23.33,23.33,0,0,1-1.42-2,23.66,23.66,0,0,1-3.05-7.31l-.09-.39c-.05-.2,0-.81,0-1l1-2c.52-1,.77-1.76,1.05-2.38A4,4,0,0,1,184,87.49c.2.34.41.67.62,1A32.53,32.53,0,0,0,197.22,99.5Z"/><path class="cls-6" d="M246.57,94.49a5.09,5.09,0,0,1-.14.56,23.76,23.76,0,0,1-6,11,31.19,31.19,0,0,1-10.47,7.08V99.5a32.67,32.67,0,0,0,12.63-10.84c.26-.38.52-.77.75-1.17a4.34,4.34,0,0,1,1.27,1.89c.24.57.5,1.24,1,2.11l1,2C246.53,93.68,246.62,94.29,246.57,94.49Z"/><path class="cls-3" d="M91.47,398a10.28,10.28,0,0,0,10.2,10h14.66a10,10,0,0,0,10-10s-.06-94.73,7.34-152q1.47-11.37,3.17-22.49l.16-1.06c.18-1.17-.34-6.57-1.17-12,0,0-9.42-62-12.05-72.77-.85-3.46-3-12-6.32-13.71a2.7,2.7,0,0,0-.79-.29l-1.94-.36c-1.56,2.64-3.61,9.23-4.55,14.65,0,0-12.1,69.66-15.85,115.37C89.69,310,91.47,398,91.47,398Z"/><path class="cls-4" d="M91.47,398a10.28,10.28,0,0,0,10.2,10h14.66a10,10,0,0,0,10-10s-.06-94.73,7.34-152q1.47-11.37,3.17-22.49l.16-1.06c.18-1.17-.34-6.57-1.17-12,0,0-9.42-62-12.05-72.77-.85-3.46-3-12-6.32-13.71a2.7,2.7,0,0,0-.79-.29l-1.94-.36c-1.56,2.64-3.61,9.23-4.55,14.65,0,0-12.1,69.66-15.85,115.37C89.69,310,91.47,398,91.47,398Z"/><path class="cls-3" d="M338.23,400A10.28,10.28,0,0,1,328,410H313.37a10,10,0,0,1-10-10s.06-94.73-7.34-152q-1.47-11.37-3.17-22.49l-.16-1.06c-.18-1.17.34-6.57,1.17-12,0,0,9.42-62,12.05-72.77.85-3.46,3-12,6.32-13.71a2.7,2.7,0,0,1,.79-.29l1.94-.36c1.56,2.64,3.61,9.23,4.55,14.65,0,0,12.1,69.66,15.85,115.37C340,312,338.23,400,338.23,400Z"/><path class="cls-4" d="M338.23,400A10.28,10.28,0,0,1,328,410H313.37a10,10,0,0,1-10-10s.06-94.73-7.34-152q-1.47-11.37-3.17-22.49l-.16-1.06c-.18-1.17.34-6.57,1.17-12,0,0,9.42-62,12.05-72.77.85-3.46,3-12,6.32-13.71a2.7,2.7,0,0,1,.79-.29l1.94-.36c1.56,2.64,3.61,9.23,4.55,14.65,0,0,12.1,69.66,15.85,115.37C340,312,338.23,400,338.23,400Z"/><path class="cls-7" d="M241.22,165.8c9.7-.37,28.3-2.38,38-2.76v10.89c-12.07,1.19-28.93,2.69-41,3.87C239.22,172.8,240.22,169.8,241.22,165.8Z"/></svg>