<?xml version="1.0" encoding="utf-8"?>
<!-- Generator: Adobe Illustrator 26.0.1, SVG Export Plug-In . SVG Version: 6.00 Build 0)  -->
<svg version="1.1" id="Layer_1" xmlns="http://www.w3.org/2000/svg" xmlns:xlink="http://www.w3.org/1999/xlink" x="0px" y="0px"
	 viewBox="0 0 423 520" style="enable-background:new 0 0 423 520;" xml:space="preserve">
<style type="text/css">
	.st0{fill:#FFFFFF;}
	.st1{fill:none;stroke:#010101;stroke-width:3;stroke-miterlimit:10;}
</style>
<g>
	<path class="st0" d="M334.16,154.63c2.66-0.69,3.94,0.8,2.84,3.32c0,0-55.79,128.19-69.77,160.1
		c-8.31,18.96-18.02,40.23-36.95,63.88c-3.17,3.97-6.36,7.69-9.51,11.17c-1.01,1.12-2.02,2.21-3.02,3.28
		c-2.11,2.24-4.19,4.38-6.24,6.42c-0.76,0.74-1.51,1.48-2.26,2.2c-7.85,7.57-17.33,15.15-17.33,15.15c-2.15,1.72-2.93,1.1-1.73-1.38
		c0,0,6.35-13.15,10.57-22.39c0.5-1.09,1-2.18,1.49-3.28c2.35-5.18,4.69-10.44,7.01-15.8c0.75-1.73,1.5-3.48,2.26-5.23
		c22.82-53.43,43.97-115.12,59.34-184.61c6.99-31.61,15.13-85.79,15.13-85.79c0.41-2.72,2.24-3.27,4.08-1.22l39.02,45.66
		c1.88,2.01,1.24,4.23-1.42,4.93l-17.81,5.09c-2.66,0.7-2.6,1.02,0.13,0.7L334.16,154.63z"/>
	<path class="st1" d="M334.16,154.63c2.66-0.69,3.94,0.8,2.84,3.32c0,0-55.79,128.19-69.77,160.1
		c-8.31,18.96-18.02,40.23-36.95,63.88c-3.17,3.97-6.36,7.69-9.51,11.17c-1.01,1.12-2.02,2.21-3.02,3.28
		c-2.11,2.24-4.19,4.38-6.24,6.42c-0.76,0.74-1.51,1.48-2.26,2.2c-7.85,7.57-17.33,15.15-17.33,15.15c-2.15,1.72-2.93,1.1-1.73-1.38
		c0,0,6.35-13.15,10.57-22.39c0.5-1.09,1-2.18,1.49-3.28c2.35-5.18,4.69-10.44,7.01-15.8c0.75-1.73,1.5-3.48,2.26-5.23
		c22.82-53.43,43.97-115.12,59.34-184.61c6.99-31.61,15.13-85.79,15.13-85.79c0.41-2.72,2.24-3.27,4.08-1.22l39.02,45.66
		c1.88,2.01,1.24,4.23-1.42,4.93l-17.81,5.09c-2.66,0.7-2.6,1.02,0.13,0.7L334.16,154.63z"/>
</g>
<g>
	<path class="st0" d="M209.72,367.4c0.98,2.57,1.1,6.25,0.27,8.17c0,0,0,0-0.75,1.73c-2.32,5.36-4.96,11.24-4.96,11.24
		c-1.13,2.51-3.54,2.87-5.35,0.81c0,0-3.04-3.45-6.21-7.42c-18.93-23.65-28.64-44.92-36.95-63.88C141.79,286.14,86,157.95,86,157.95
		c-1.1-2.52,0.18-4.02,2.84-3.32l24.19,2.2c2.73,0.32,2.79,0.01,0.13-0.7l-17.81-5.09c-2.66-0.7-3.3-2.92-1.42-4.93l39.02-45.66
		c1.84-2.05,3.67-1.5,4.08,1.22c0,0,8.14,54.18,15.13,85.79C167.53,256.95,209.72,367.4,209.72,367.4z"/>
	<path class="st1" d="M209.72,367.4c0.98,2.57,1.1,6.25,0.27,8.17c0,0,0,0-0.75,1.73c-2.32,5.36-4.96,11.24-4.96,11.24
		c-1.13,2.51-3.54,2.87-5.35,0.81c0,0-3.04-3.45-6.21-7.42c-18.93-23.65-28.64-44.92-36.95-63.88C141.79,286.14,86,157.95,86,157.95
		c-1.1-2.52,0.18-4.02,2.84-3.32l24.19,2.2c2.73,0.32,2.79,0.01,0.13-0.7l-17.81-5.09c-2.66-0.7-3.3-2.92-1.42-4.93l39.02-45.66
		c1.84-2.05,3.67-1.5,4.08,1.22c0,0,8.14,54.18,15.13,85.79C167.53,256.95,209.72,367.4,209.72,367.4z"/>
</g>
</svg>
