<svg id="Layer_1" data-name="Layer 1" xmlns="http://www.w3.org/2000/svg" viewBox="0 0 423 520"><defs><style>.cls-1,.cls-2,.cls-4{fill:#fff;}.cls-1,.cls-3,.cls-4,.cls-5{stroke:#010101;stroke-miterlimit:10;}.cls-1,.cls-3{stroke-width:3px;}.cls-3,.cls-5{fill:none;}</style></defs><path class="cls-1" d="M206.57,123.1v0l-.52.21Z"/><path class="cls-2" d="M116.83,126.54a9.4,9.4,0,0,0-4.8,12.89,40.46,40.46,0,0,1,2.6,7c2.63,10.73,11.58,73.1,11.58,73.1.78,5.44,2.66,9.95,4.18,10s4.26,4,6.28,7.34l1.72,6.13c2.41,8.58,1.59,14.93,1.24,20.4-1,15,1,19,1,33.38,0,18.86-10.39,107.4-10.39,107.4a10.62,10.62,0,0,0,8.69,11.57l63.23,10.95a8.13,8.13,0,0,0,9.78-8.36l.17-284.26c0-5.5-.59-10.2-1.2-10.45s-2.18-.6-2.18-.24-4.33-.58-9.62-2.08l-14.59-7.92a109.54,109.54,0,0,1-7-8.42,8.11,8.11,0,0,1-.59-2.55c0-.82-4.14.26-9.2,2.41Z"/><path class="cls-3" d="M116.83,126.54a9.4,9.4,0,0,0-4.8,12.89,40.46,40.46,0,0,1,2.6,7c2.63,10.73,11.58,73.1,11.58,73.1.78,5.44,2.66,9.95,4.18,10s4.26,4,6.28,7.34l1.72,6.13c2.41,8.58,1.59,14.93,1.24,20.4-1,15,1,19,1,33.38,0,18.86-10.39,107.4-10.39,107.4a10.62,10.62,0,0,0,8.69,11.57l63.23,10.95a8.13,8.13,0,0,0,9.78-8.36l.17-284.26c0-5.5-.59-10.2-1.2-10.45s-2.18-.6-2.18-.24-4.33-.58-9.62-2.08l-14.59-7.92a109.54,109.54,0,0,1-7-8.42,8.11,8.11,0,0,1-.59-2.55c0-.82-4.14.26-9.2,2.41Z"/><path class="cls-2" d="M300.49,126.52a9.4,9.4,0,0,1,4.8,12.89,40.46,40.46,0,0,0-2.6,7c-2.63,10.73-11.58,73.1-11.58,73.1-.78,5.44-2.66,9.95-4.18,10s-4.26,4-6.28,7.34L278.93,243c-2.41,8.58-1.59,14.93-1.24,20.4,1,15-.95,19-1,33.38-.05,18.86,10.39,107.4,10.39,107.4a10.62,10.62,0,0,1-8.69,11.57l-63.23,11c-5.43.9-6.28-2-6.23-7.45L208.77,135c0-5.5.59-10.2,1.2-10.45s2.18-.6,2.18-.24.78-1.49,6.07-3l14.59-7.92a109.54,109.54,0,0,0,7.05-8.42,7.85,7.85,0,0,0,.59-2.55c0-.82,4.14.26,9.2,2.41Z"/><path class="cls-3" d="M218.22,121.33l14.59-7.92a109.54,109.54,0,0,0,7.05-8.42,7.85,7.85,0,0,0,.59-2.55c0-.82,4.14.26,9.2,2.41l50.84,21.67a9.4,9.4,0,0,1,4.8,12.89,40.46,40.46,0,0,0-2.6,7c-2.63,10.73-11.58,73.1-11.58,73.1-.78,5.44-2.66,9.95-4.18,10s-4.26,4-6.28,7.34L278.93,243c-2.41,8.58-1.59,14.93-1.24,20.4,1,15-.95,19-1,33.38-.05,18.86,10.39,107.4,10.39,107.4a10.62,10.62,0,0,1-8.69,11.57l-63.23,11c-5.43.9-6.28-2-6.23-7.45L208.77,135c0-5.5.59-10.2,1.2-10.45Z"/><path class="cls-1" d="M176.9,98l-1,2c0,.19-.05.81,0,1,3,14,17.32,21.63,32.9,22.13V110.28c-12.11-.38-24.2-6.88-29.67-16.32C177.94,95,177.94,96,176.9,98Z"/><path class="cls-1" d="M240.7,98l1,2c0,.19.05.81,0,1-3,14-17.17,21.63-32.61,22.13V110.28c12-.38,24-6.88,29.41-16.32C239.67,95,239.67,96,240.7,98Z"/><path class="cls-2" d="M89.62,404.46a10.28,10.28,0,0,0,10.2,10h14.66a10,10,0,0,0,10-10s0-94.73,7.35-152Q133.29,241.09,135,230l.16-1.06c.18-1.17-.35-6.57-1.17-12,0,0-9.42-62-12-72.77-.85-3.46-3-12-6.32-13.71a2.7,2.7,0,0,0-.79-.29l-1.94-.36c-1.56,2.64-3.61,9.23-4.55,14.65,0,0-12.1,69.66-15.85,115.37C87.84,316.5,89.62,404.46,89.62,404.46Z"/><path class="cls-3" d="M89.62,404.46a10.28,10.28,0,0,0,10.2,10h14.66a10,10,0,0,0,10-10s0-94.73,7.35-152Q133.29,241.09,135,230l.16-1.06c.18-1.17-.35-6.57-1.17-12,0,0-9.42-62-12-72.77-.85-3.46-3-12-6.32-13.71a2.7,2.7,0,0,0-.79-.29l-1.94-.36c-1.56,2.64-3.61,9.23-4.55,14.65,0,0-12.1,69.66-15.85,115.37C87.84,316.5,89.62,404.46,89.62,404.46Z"/><path class="cls-1" d="M211.43,123.1v0l.52.21Z"/><path class="cls-2" d="M328.38,404.46a10.28,10.28,0,0,1-10.2,10H303.52a10,10,0,0,1-10-10s.05-94.73-7.35-152Q284.71,241.09,283,230l-.16-1.06c-.18-1.17.35-6.57,1.17-12,0,0,9.42-62,12.05-72.77.85-3.46,3-12,6.32-13.71a2.7,2.7,0,0,1,.79-.29l1.94-.36c1.56,2.64,3.61,9.23,4.55,14.65,0,0,12.1,69.66,15.85,115.37C330.16,316.5,328.38,404.46,328.38,404.46Z"/><path class="cls-3" d="M328.38,404.46a10.28,10.28,0,0,1-10.2,10H303.52a10,10,0,0,1-10-10s.05-94.73-7.35-152Q284.71,241.09,283,230l-.16-1.06c-.18-1.17.35-6.57,1.17-12,0,0,9.42-62,12.05-72.77.85-3.46,3-12,6.32-13.71a2.7,2.7,0,0,1,.79-.29l1.94-.36c1.56,2.64,3.61,9.23,4.55,14.65,0,0,12.1,69.66,15.85,115.37C330.16,316.5,328.38,404.46,328.38,404.46Z"/><polygon class="cls-4" points="277.75 330.69 277.62 330.7 276.64 311.69 239.3 313.02 239.3 310.58 276.64 309.24 277.75 330.69"/><path class="cls-4" d="M277.75,333.13l-31.23,2.54A6.67,6.67,0,0,1,239.3,329V313l37.34-1.33,1,19Z"/><line class="cls-5" x1="254.19" y1="230.03" x2="253.08" y2="309.25"/><polygon class="cls-4" points="139.3 330.69 139.43 330.7 140.41 311.69 177.75 313.02 177.75 310.58 140.41 309.24 139.3 330.69"/><path class="cls-4" d="M139.3,333.13l31.23,2.54a6.67,6.67,0,0,0,7.22-6.65V313l-37.34-1.33-1,19Z"/><line class="cls-5" x1="162.86" y1="230.03" x2="163.97" y2="309.25"/><path class="cls-4" d="M236.37,172.27c9.7-.37,28.3-2.39,38-2.76V180.4c-12.07,1.19-28.93,2.68-41,3.87C234.37,179.27,235.37,176.27,236.37,172.27Z"/></svg>