<?xml version="1.0" encoding="utf-8"?>
<!-- Generator: Adobe Illustrator 26.0.1, SVG Export Plug-In . SVG Version: 6.00 Build 0)  -->
<svg version="1.1" id="Layer_1" xmlns="http://www.w3.org/2000/svg" xmlns:xlink="http://www.w3.org/1999/xlink" x="0px" y="0px"
	 viewBox="0 0 423 520" style="enable-background:new 0 0 423 520;" xml:space="preserve">
<style type="text/css">
	.st0{fill:#FFFFFF;}
	.st1{fill:none;stroke:#010101;stroke-width:3;stroke-miterlimit:10;}
	.st2{fill:#FFFFFF;stroke:#010101;stroke-width:3;stroke-miterlimit:10;}
	.st3{fill:none;stroke:#010101;stroke-width:0.75;stroke-miterlimit:10;}
	.st4{fill:#010101;}
</style>
<g>
	<g>
		<path class="st0" d="M134.26,214.15c0.83,5.44,1.39,10.62,1.25,11.52c-0.14,0.9-0.26,1.63-0.51,3.27c0,0,0,0,0,0
			s-0.65,4.46-1.44,9.9c0,0-0.57,3.87-1.47,10.87c-7.4,57.26-7.34,152-7.34,152c0,5.5-4.49,10-9.99,10H100.1
			c-5.5,0-10.09-4.5-10.2-10c0,0-1.78-87.96,2.87-144.67c3.74-45.72,15.84-115.37,15.84-115.37c0.94-5.42,2.31-10.78,3.03-11.92
			c0,0,0,0,0.76-0.9c0.05-0.06,0.05-0.06,0.05-0.06c0.05-0.06,0.09-0.11,0.1-0.11s0.32-0.21,0.69-0.45
			c0.37-0.24,1.03-0.78,1.45-0.93c0,0,0,0,0.41,0.08c3.77,0.68,6.19,10.27,7.11,14C124.84,152.09,134.26,214.15,134.26,214.15z"/>
		<path class="st1" d="M134.26,214.15c0.83,5.44,1.39,10.62,1.25,11.52c-0.14,0.9-0.26,1.63-0.51,3.27c0,0,0,0,0,0
			s-0.65,4.46-1.44,9.9c0,0-0.57,3.87-1.47,10.87c-7.4,57.26-7.34,152-7.34,152c0,5.5-4.49,10-9.99,10H100.1
			c-5.5,0-10.09-4.5-10.2-10c0,0-1.78-87.96,2.87-144.67c3.74-45.72,15.84-115.37,15.84-115.37c0.94-5.42,2.31-10.78,3.03-11.92
			c0,0,0,0,0.76-0.9c0.05-0.06,0.05-0.06,0.05-0.06c0.05-0.06,0.09-0.11,0.1-0.11s0.32-0.21,0.69-0.45
			c0.37-0.24,1.03-0.78,1.45-0.93c0,0,0,0,0.41,0.08c3.77,0.68,6.19,10.27,7.11,14C124.84,152.09,134.26,214.15,134.26,214.15z"/>
	</g>
	<g>
		<path class="st0" d="M275.57,110.47c-4.89-2.52-8.88-4.55-8.87-4.51s-4.12-1.57-9.22-3.64c0,0-1.94-0.79-8.47-2.46
			c-5.45-1.4-11.29-2.51-17.43-3.26c-0.08-0.01-0.16-0.01-0.25,0.01c-6.14,1.07-13.46,1.69-21.33,1.69c-7.31,0-14.16-0.54-20-1.48
			c-0.08-0.01-0.16-0.01-0.24,0c-5.89,0.8-11.51,1.91-16.76,3.31c-6.15,1.63-7.52,2.19-7.52,2.19c-5.09,2.08-9.24,3.76-9.23,3.72
			s-3.95,1.92-8.84,4.43l-24.62,12.52c-4.9,2.51-8.9,4.56-8.9,4.56s0.35-0.11,0.77-0.26c0,0,0,0,0.41,0.08
			c3.77,0.68,6.19,10.27,7.11,14c2.63,10.71,10.55,34.63,13.55,82.57c0,0.06,0,0.12-0.01,0.19c-0.25,1.6-0.25,1.6-0.25,1.6
			c-0.27,1.76-0.49,3.21-0.49,3.21s0.88,2.19,1.96,4.87c0,0,0,0,1.29,4.93c3.6,13.7,2.67,24.9,2.34,29.33
			c-2.26,29.7,1.59,21.92-3,70.67c-1.76,18.64-4.49,42.78-8.91,71.08c-0.06,0.35,0.11,0.71,0.43,0.88
			c8.02,4.3,17.68,8.33,28.86,10.87c0.53,0.12,1.03-0.29,1.03-0.83l9-85.52c0-0.46,0.38-0.84,0.84-0.84h3.32
			c0.46,0,0.84,0.38,0.84,0.84l-9,86.82c0,0.41,0.29,0.76,0.69,0.83c0.4,0.07,0.81,0.13,1.22,0.2c4,0.6,4,0.6,4,0.6
			c3.61,0.41,6.56,0.74,6.57,0.74c0.01,0,4.49,0.61,9.94,1.35c0,0,10.88,1.49,22.58,1.6c0.66,0.01,1.33,0.01,2,0.01
			c12.29,0,24.22-1.58,24.22-1.58c5.45-0.72,9.92-1.32,9.92-1.32c0,0,3.3-0.32,7.33-0.72c0,0,0,0,4.6-0.69
			c0.42-0.06,0.83-0.13,1.24-0.2c0.4-0.07,0.7-0.42,0.7-0.83l-7-86.82c0-0.46,0.38-0.84,0.84-0.84h3.32c0.46,0,0.84,0.38,0.84,0.84
			l7,85.5c0,0.54,0.51,0.94,1.03,0.83c11.17-2.53,20.82-6.56,28.83-10.86c0.31-0.17,0.48-0.52,0.43-0.88
			c-4.42-28.29-7.15-52.44-8.91-71.08c-4.59-48.75-0.74-40.97-3-70.67c-0.33-4.43-1.26-15.63,2.34-29.33
			c1.29-4.93,1.29-4.93,1.29-4.93c1.08-2.67,1.96-4.86,1.96-4.87s-0.22-1.45-0.49-3.21c0,0,0,0-0.25-1.6
			c-0.01-0.06-0.01-0.12-0.01-0.19c3-47.94,10.93-71.85,13.55-82.57c0.92-3.73,3.34-13.32,7.11-14c0.41-0.08,0.41-0.08,0.41-0.08
			c0.42,0.14,0.77,0.26,0.77,0.26s-4.01-2.06-8.9-4.56L275.57,110.47z"/>
		<path class="st1" d="M275.57,110.47c-4.89-2.52-8.88-4.55-8.87-4.51s-4.12-1.57-9.22-3.64c0,0-1.94-0.79-8.47-2.46
			c-5.45-1.4-11.29-2.51-17.43-3.26c-0.08-0.01-0.16-0.01-0.25,0.01c-6.14,1.07-13.46,1.69-21.33,1.69c-7.31,0-14.16-0.54-20-1.48
			c-0.08-0.01-0.16-0.01-0.24,0c-5.89,0.8-11.51,1.91-16.76,3.31c-6.15,1.63-7.52,2.19-7.52,2.19c-5.09,2.08-9.24,3.76-9.23,3.72
			s-3.95,1.92-8.84,4.43l-24.62,12.52c-4.9,2.51-8.9,4.56-8.9,4.56s0.35-0.11,0.77-0.26c0,0,0,0,0.41,0.08
			c3.77,0.68,6.19,10.27,7.11,14c2.63,10.71,10.55,34.63,13.55,82.57c0,0.06,0,0.12-0.01,0.19c-0.25,1.6-0.25,1.6-0.25,1.6
			c-0.27,1.76-0.49,3.21-0.49,3.21s0.88,2.19,1.96,4.87c0,0,0,0,1.29,4.93c3.6,13.7,2.67,24.9,2.34,29.33
			c-2.26,29.7,1.59,21.92-3,70.67c-1.76,18.64-4.49,42.78-8.91,71.08c-0.06,0.35,0.11,0.71,0.43,0.88
			c8.02,4.3,17.68,8.33,28.86,10.87c0.53,0.12,1.03-0.29,1.03-0.83l9-85.52c0-0.46,0.38-0.84,0.84-0.84h3.32
			c0.46,0,0.84,0.38,0.84,0.84l-9,86.82c0,0.41,0.29,0.76,0.69,0.83c0.4,0.07,0.81,0.13,1.22,0.2c4,0.6,4,0.6,4,0.6
			c3.61,0.41,6.56,0.74,6.57,0.74c0.01,0,4.49,0.61,9.94,1.35c0,0,10.88,1.49,22.58,1.6c0.66,0.01,1.33,0.01,2,0.01
			c12.29,0,24.22-1.58,24.22-1.58c5.45-0.72,9.92-1.32,9.92-1.32c0,0,3.3-0.32,7.33-0.72c0,0,0,0,4.6-0.69
			c0.42-0.06,0.83-0.13,1.24-0.2c0.4-0.07,0.7-0.42,0.7-0.83l-7-86.82c0-0.46,0.38-0.84,0.84-0.84h3.32c0.46,0,0.84,0.38,0.84,0.84
			l7,85.5c0,0.54,0.51,0.94,1.03,0.83c11.17-2.53,20.82-6.56,28.83-10.86c0.31-0.17,0.48-0.52,0.43-0.88
			c-4.42-28.29-7.15-52.44-8.91-71.08c-4.59-48.75-0.74-40.97-3-70.67c-0.33-4.43-1.26-15.63,2.34-29.33
			c1.29-4.93,1.29-4.93,1.29-4.93c1.08-2.67,1.96-4.86,1.96-4.87s-0.22-1.45-0.49-3.21c0,0,0,0-0.25-1.6
			c-0.01-0.06-0.01-0.12-0.01-0.19c3-47.94,10.93-71.85,13.55-82.57c0.92-3.73,3.34-13.32,7.11-14c0.41-0.08,0.41-0.08,0.41-0.08
			c0.42,0.14,0.77,0.26,0.77,0.26s-4.01-2.06-8.9-4.56L275.57,110.47z"/>
	</g>
	<g>
		<path class="st0" d="M333.11,401.71c-0.11,5.5-4.7,10-10.2,10h-14.67c-5.5,0-10-4.5-9.99-10c0,0,0.06-94.74-7.34-152
			c-0.9-6.99-1.47-10.87-1.47-10.87c-0.79-5.44-1.44-9.9-1.44-9.9s-0.11-0.74-0.25-1.64c-0.14-0.9,0.17-7.71,0.99-13.15
			c0,0,9.43-62.05,12.06-72.77c0.92-3.73,3.34-13.32,7.11-14c0.41-0.08,0.41-0.08,0.41-0.08c0.42,0.14,0.99,0.44,1.26,0.66
			c0.27,0.22,0.88,0.72,0.88,0.72s0.06,0.06,0.1,0.12c0,0,0,0,0.05,0.06c0.76,0.9,0.76,0.9,0.76,0.9c0.73,1.14,2.09,6.5,3.03,11.92
			c0,0,12.1,69.65,15.84,115.37C334.89,313.75,333.11,401.71,333.11,401.71z"/>
		<path class="st1" d="M333.11,401.71c-0.11,5.5-4.7,10-10.2,10h-14.67c-5.5,0-10-4.5-9.99-10c0,0,0.06-94.74-7.34-152
			c-0.9-6.99-1.47-10.87-1.47-10.87c-0.79-5.44-1.44-9.9-1.44-9.9s-0.11-0.74-0.25-1.64c-0.14-0.9,0.17-7.71,0.99-13.15
			c0,0,9.43-62.05,12.06-72.77c0.92-3.73,3.34-13.32,7.11-14c0.41-0.08,0.41-0.08,0.41-0.08c0.42,0.14,0.99,0.44,1.26,0.66
			c0.27,0.22,0.88,0.72,0.88,0.72s0.06,0.06,0.1,0.12c0,0,0,0,0.05,0.06c0.76,0.9,0.76,0.9,0.76,0.9c0.73,1.14,2.09,6.5,3.03,11.92
			c0,0,12.1,69.65,15.84,115.37C334.89,313.75,333.11,401.71,333.11,401.71z"/>
	</g>
	<path class="st2" d="M249.02,95.52v4.7c-3.99,4.63-19.49,8.07-38,8.07s-34.01-3.44-38-8.07v-4.7c0.73-0.85,1.84-1.66,3.29-2.4
		c3.31,1.51,7.99,2.78,13.59,3.67c5.87,0.95,12.76,1.5,20.12,1.5c7.92,0,15.29-0.63,21.45-1.71c5.59-1,10.18-2.35,13.26-3.96
		C246.67,93.52,248.12,94.5,249.02,95.52z"/>
	<line class="st3" x1="211.02" y1="108.38" x2="209.02" y2="427.38"/>
	<g>
		<circle class="st4" cx="328.02" cy="375.38" r="3.5"/>
		<circle class="st4" cx="328.02" cy="383.04" r="3.5"/>
		<circle class="st4" cx="328.02" cy="390.71" r="3.5"/>
		<circle class="st4" cx="328.02" cy="398.38" r="3.5"/>
	</g>
	<g>
		<circle class="st4" cx="95.02" cy="375.38" r="3.5"/>
		<circle class="st4" cx="95.02" cy="383.04" r="3.5"/>
		<circle class="st4" cx="95.02" cy="390.71" r="3.5"/>
		<circle class="st4" cx="95.02" cy="398.38" r="3.5"/>
	</g>
</g>
</svg>
