<?xml version="1.0" encoding="utf-8"?>
<!-- Generator: Adobe Illustrator 26.0.1, SVG Export Plug-In . SVG Version: 6.00 Build 0)  -->
<svg version="1.1" id="Layer_1" xmlns="http://www.w3.org/2000/svg" xmlns:xlink="http://www.w3.org/1999/xlink" x="0px" y="0px"
	 viewBox="0 0 423 520" style="enable-background:new 0 0 423 520;" xml:space="preserve">
<style type="text/css">
	.st0{fill:#FFFFFF;}
	.st1{fill:none;stroke:#010101;stroke-width:3;stroke-miterlimit:10;}
	.st2{fill:#FFFFFF;stroke:#010101;stroke-width:3;stroke-miterlimit:10;}
	.st3{fill:#010101;}
	.st4{fill:none;stroke:#010101;stroke-width:0.75;stroke-miterlimit:10;}
</style>
<g>
	<g>
		<path class="st0" d="M125.28,228.22c0.83,5.44,1.39,10.62,1.25,11.52s-0.26,1.63-0.51,3.27c0,0,0,0,0,0s-0.65,4.46-1.44,9.9
			c0,0-0.57,3.87-1.47,10.87c-7.4,57.26-7.34,152-7.34,152c0,5.5-4.49,10-9.99,10H91.11c-5.5,0-10.09-4.5-10.2-10
			c0,0-1.78-87.96,2.87-144.67c3.74-45.72,15.84-115.37,15.84-115.37c0.94-5.42,2.31-10.78,3.03-11.92c0,0,0,0,0.76-0.9
			c0.05-0.06,0.05-0.06,0.05-0.06c0.05-0.06,0.09-0.11,0.1-0.11c0,0,0.32-0.21,0.69-0.45c0.37-0.24,1.03-0.78,1.45-0.93
			c0,0,0,0,0.41,0.08c3.77,0.68,6.19,10.27,7.11,14C115.85,166.16,125.28,228.22,125.28,228.22z"/>
		<path class="st1" d="M125.28,228.22c0.83,5.44,1.39,10.62,1.25,11.52s-0.26,1.63-0.51,3.27c0,0,0,0,0,0s-0.65,4.46-1.44,9.9
			c0,0-0.57,3.87-1.47,10.87c-7.4,57.26-7.34,152-7.34,152c0,5.5-4.49,10-9.99,10H91.11c-5.5,0-10.09-4.5-10.2-10
			c0,0-1.78-87.96,2.87-144.67c3.74-45.72,15.84-115.37,15.84-115.37c0.94-5.42,2.31-10.78,3.03-11.92c0,0,0,0,0.76-0.9
			c0.05-0.06,0.05-0.06,0.05-0.06c0.05-0.06,0.09-0.11,0.1-0.11c0,0,0.32-0.21,0.69-0.45c0.37-0.24,1.03-0.78,1.45-0.93
			c0,0,0,0,0.41,0.08c3.77,0.68,6.19,10.27,7.11,14C115.85,166.16,125.28,228.22,125.28,228.22z"/>
	</g>
	<g>
		<path class="st0" d="M204.97,439.84c0.03,0.89,0.77,1.59,1.66,1.56c9.77-0.33,19.61-1.59,19.61-1.59c5.46-0.7,9.92-1.26,9.92-1.26
			s3.3-0.32,7.33-0.72c0,0,0,0,4.6-0.69c14.86-2.25,28.26-8.46,28.26-8.46c4.99-2.31,8.46-8.66,7.72-14.11
			c0,0-5.88-42.99-7.65-61.76c-4.59-48.75-0.74-40.97-3-70.67c-0.33-4.43-1.26-15.63,2.34-29.33c1.29-4.93,1.29-4.93,1.29-4.93
			c1.08-2.67,1.96-4.86,1.96-4.87s-0.11-0.74-0.25-1.64c-0.14-0.9,0.17-7.71,0.99-13.15c0,0,9.43-62.05,12.06-72.77
			c0.92-3.73,3.34-13.32,7.11-14c0.41-0.08,0.41-0.08,0.41-0.08c0.42,0.14,0.77,0.26,0.77,0.26c0,0-4.01-2.06-8.9-4.56l-24.62-12.52
			c-4.89-2.52-8.88-4.55-8.87-4.51c0.01,0.04-4.12-1.57-9.22-3.64c0,0-1.94-0.79-8.47-2.46c-5.49-1.41-7.67-1.75-7.67-1.75
			c-5.44-0.84-14.35-0.97-19.8-0.28c0,0-3.61,0.46-11.53,0.46c-7.36,0-10.19-0.33-10.19-0.33c-5.46-0.64-14.37-0.43-19.8,0.47
			c0,0-1.73,0.29-7.01,1.7c-6.15,1.63-7.52,2.19-7.52,2.19c-5.09,2.08-9.24,3.76-9.23,3.72c0.01-0.04-3.95,1.92-8.84,4.43
			l-24.62,12.52c-4.9,2.51-8.9,4.56-8.9,4.56c0,0,0.35-0.11,0.77-0.26c0,0,0,0,0.41,0.08c3.77,0.68,6.19,10.27,7.11,14
			c2.63,10.72,12.06,72.77,12.06,72.77c0.83,5.44,1.39,10.62,1.25,11.52s-0.26,1.63-0.51,3.27c0,0,0,0,0,0s0.88,2.19,1.96,4.87
			c0,0,0,0,1.29,4.93c3.6,13.7,2.67,24.9,2.34,29.33c-2.26,29.7,1.59,21.92-3,70.67c-1.77,18.77-7.65,61.76-7.65,61.76
			c-0.74,5.45,2.73,11.8,7.72,14.11c0,0,13.4,6.21,28.26,8.46c4,0.6,4,0.6,4,0.6c3.61,0.41,6.56,0.74,6.57,0.74
			c0.01,0,4.5,0.53,9.96,1.18c0,0,11.16,1.33,20.89,1.72c0.91,0.04,1.67-0.69,1.68-1.6l-0.01-75.34c0-5.5,1.35-10,3-10
			s2.94,4.5,2.88,10L204.97,439.84z"/>
		<path class="st1" d="M204.97,439.84c0.03,0.89,0.77,1.59,1.66,1.56c9.77-0.33,19.61-1.59,19.61-1.59c5.46-0.7,9.92-1.26,9.92-1.26
			s3.3-0.32,7.33-0.72c0,0,0,0,4.6-0.69c14.86-2.25,28.26-8.46,28.26-8.46c4.99-2.31,8.46-8.66,7.72-14.11
			c0,0-5.88-42.99-7.65-61.76c-4.59-48.75-0.74-40.97-3-70.67c-0.33-4.43-1.26-15.63,2.34-29.33c1.29-4.93,1.29-4.93,1.29-4.93
			c1.08-2.67,1.96-4.86,1.96-4.87s-0.11-0.74-0.25-1.64c-0.14-0.9,0.17-7.71,0.99-13.15c0,0,9.43-62.05,12.06-72.77
			c0.92-3.73,3.34-13.32,7.11-14c0.41-0.08,0.41-0.08,0.41-0.08c0.42,0.14,0.77,0.26,0.77,0.26c0,0-4.01-2.06-8.9-4.56l-24.62-12.52
			c-4.89-2.52-8.88-4.55-8.87-4.51c0.01,0.04-4.12-1.57-9.22-3.64c0,0-1.94-0.79-8.47-2.46c-5.49-1.41-7.67-1.75-7.67-1.75
			c-5.44-0.84-14.35-0.97-19.8-0.28c0,0-3.61,0.46-11.53,0.46c-7.36,0-10.19-0.33-10.19-0.33c-5.46-0.64-14.37-0.43-19.8,0.47
			c0,0-1.73,0.29-7.01,1.7c-6.15,1.63-7.52,2.19-7.52,2.19c-5.09,2.08-9.24,3.76-9.23,3.72c0.01-0.04-3.95,1.92-8.84,4.43
			l-24.62,12.52c-4.9,2.51-8.9,4.56-8.9,4.56c0,0,0.35-0.11,0.77-0.26c0,0,0,0,0.41,0.08c3.77,0.68,6.19,10.27,7.11,14
			c2.63,10.72,12.06,72.77,12.06,72.77c0.83,5.44,1.39,10.62,1.25,11.52s-0.26,1.63-0.51,3.27c0,0,0,0,0,0s0.88,2.19,1.96,4.87
			c0,0,0,0,1.29,4.93c3.6,13.7,2.67,24.9,2.34,29.33c-2.26,29.7,1.59,21.92-3,70.67c-1.77,18.77-7.65,61.76-7.65,61.76
			c-0.74,5.45,2.73,11.8,7.72,14.11c0,0,13.4,6.21,28.26,8.46c4,0.6,4,0.6,4,0.6c3.61,0.41,6.56,0.74,6.57,0.74
			c0.01,0,4.5,0.53,9.96,1.18c0,0,11.16,1.33,20.89,1.72c0.91,0.04,1.67-0.69,1.68-1.6l-0.01-75.34c0-5.5,1.35-10,3-10
			s2.94,4.5,2.88,10L204.97,439.84z"/>
	</g>
	<g>
		<path class="st0" d="M324.12,415.78c-0.11,5.5-4.7,10-10.2,10h-14.67c-5.5,0-10-4.5-9.99-10c0,0,0.06-94.74-7.34-152
			c-0.9-6.99-1.47-10.87-1.47-10.87c-0.79-5.44-1.44-9.9-1.44-9.9s-0.11-0.74-0.25-1.64c-0.14-0.9,0.17-7.71,0.99-13.15
			c0,0,9.43-62.05,12.06-72.77c0.92-3.73,3.34-13.32,7.11-14c0.41-0.08,0.41-0.08,0.41-0.08c0.42,0.14,0.99,0.44,1.26,0.66
			c0.27,0.22,0.88,0.72,0.88,0.72c0,0,0.06,0.06,0.1,0.12c0,0,0,0,0.05,0.06c0.76,0.9,0.76,0.9,0.76,0.9
			c0.73,1.14,2.09,6.5,3.03,11.92c0,0,12.1,69.65,15.84,115.37C325.9,327.81,324.12,415.78,324.12,415.78z"/>
		<path class="st1" d="M324.12,415.78c-0.11,5.5-4.7,10-10.2,10h-14.67c-5.5,0-10-4.5-9.99-10c0,0,0.06-94.74-7.34-152
			c-0.9-6.99-1.47-10.87-1.47-10.87c-0.79-5.44-1.44-9.9-1.44-9.9s-0.11-0.74-0.25-1.64c-0.14-0.9,0.17-7.71,0.99-13.15
			c0,0,9.43-62.05,12.06-72.77c0.92-3.73,3.34-13.32,7.11-14c0.41-0.08,0.41-0.08,0.41-0.08c0.42,0.14,0.99,0.44,1.26,0.66
			c0.27,0.22,0.88,0.72,0.88,0.72c0,0,0.06,0.06,0.1,0.12c0,0,0,0,0.05,0.06c0.76,0.9,0.76,0.9,0.76,0.9
			c0.73,1.14,2.09,6.5,3.03,11.92c0,0,12.1,69.65,15.84,115.37C325.9,327.81,324.12,415.78,324.12,415.78z"/>
	</g>
	<path class="st2" d="M240.03,109.59v4.7c-3.99,4.63-19.49,8.07-38,8.07s-34.01-3.44-38-8.07v-4.7c0.73-0.85,1.84-1.66,3.29-2.4
		c3.31,1.51,7.99,2.78,13.59,3.67c5.87,0.95,12.76,1.5,20.12,1.5c7.92,0,15.29-0.63,21.45-1.71c5.59-1,10.18-2.35,13.26-3.96
		C237.68,107.58,239.14,108.56,240.03,109.59z"/>
	<g>
		<circle class="st3" cx="319.03" cy="389.44" r="3.5"/>
		<circle class="st3" cx="319.03" cy="397.11" r="3.5"/>
		<circle class="st3" cx="319.03" cy="404.78" r="3.5"/>
		<circle class="st3" cx="319.03" cy="412.44" r="3.5"/>
	</g>
	<g>
		<circle class="st3" cx="86.03" cy="389.44" r="3.5"/>
		<circle class="st3" cx="86.03" cy="397.11" r="3.5"/>
		<circle class="st3" cx="86.03" cy="404.78" r="3.5"/>
		<circle class="st3" cx="86.03" cy="412.44" r="3.5"/>
	</g>
	<line class="st4" x1="204.03" y1="122.94" x2="203.03" y2="353.44"/>
	<path class="st4" d="M201.03,349.44"/>
</g>
</svg>
