<?xml version="1.0" encoding="utf-8"?>
<!-- Generator: Adobe Illustrator 26.0.1, SVG Export Plug-In . SVG Version: 6.00 Build 0)  -->
<svg version="1.1" id="Layer_1" xmlns="http://www.w3.org/2000/svg" xmlns:xlink="http://www.w3.org/1999/xlink" x="0px" y="0px"
	 viewBox="0 0 423 520" style="enable-background:new 0 0 423 520;" xml:space="preserve">
<style type="text/css">
	.st0{fill:#FFFFFF;}
	.st1{fill:none;stroke:#010101;stroke-width:3;stroke-miterlimit:10;}
	.st2{stroke:#010101;stroke-width:3;stroke-miterlimit:10;}
	.st3{fill:#010101;}
	.st4{fill:#FFFFFF;stroke:#010101;stroke-miterlimit:10;}
	.st5{fill:none;stroke:#010101;stroke-miterlimit:10;}
</style>
<g>
	<path class="st0" d="M86.6,401.8c0.1,5.5,4.7,10,10.2,10h14.7c5.5,0,10-4.5,10-10c0,0-0.1-94.7,7.3-152c0.9-7,1.5-10.9,1.5-10.9
		c0.8-5.4,1.4-9.9,1.4-9.9s0.1-0.7,0.2-1.6s-0.2-7.7-1-13.1c0,0-9.4-62.1-12.1-72.8c-0.9-3.7-3.3-13.3-7.1-14
		c-0.4-0.1-0.4-0.1-0.4-0.1c-0.4,0.1-1,0.4-1.3,0.6s-0.9,0.7-0.9,0.7l-0.1,0.1c0,0,0,0-0.1,0.1c-0.8,0.9-0.8,0.9-0.8,0.9
		c-0.7,1.1-2.1,6.5-3,11.9c0,0-12.1,69.6-15.8,115.4C84.8,313.8,86.6,401.8,86.6,401.8z"/>
	<path class="st1" d="M86.6,401.8c0.1,5.5,4.7,10,10.2,10h14.7c5.5,0,10-4.5,10-10c0,0-0.1-94.7,7.3-152c0.9-7,1.5-10.9,1.5-10.9
		c0.8-5.4,1.4-9.9,1.4-9.9s0.1-0.7,0.2-1.6s-0.2-7.7-1-13.1c0,0-9.4-62.1-12.1-72.8c-0.9-3.7-3.3-13.3-7.1-14
		c-0.4-0.1-0.4-0.1-0.4-0.1c-0.4,0.1-1,0.4-1.3,0.6s-0.9,0.7-0.9,0.7l-0.1,0.1c0,0,0,0-0.1,0.1c-0.8,0.9-0.8,0.9-0.8,0.9
		c-0.7,1.1-2.1,6.5-3,11.9c0,0-12.1,69.6-15.8,115.4C84.8,313.8,86.6,401.8,86.6,401.8z"/>
</g>
<g>
	<path class="st0" d="M119.5,123.1c-4.9,2.5-8.9,4.6-8.9,4.6s0.3-0.1,0.8-0.2c0,0,0,0,0.4,0.1c3.8,0.7,6.2,10.3,7.1,14
		c2.6,10.7,12.1,72.8,12.1,72.8c0.8,5.4,1.4,10.6,1.2,11.5c-0.1,0.9-0.3,1.6-0.5,3.3l0,0c0,0,0.9,2.2,2,4.9c0,0,0,0,1.3,4.9
		c3.6,13.7,2.7,24.9,2.3,29.3c-2.3,29.7,1.6,21.9-3,70.7c-1.8,18.8-7.7,61.8-7.7,61.8c-0.7,5.5,2.7,11.8,7.7,14.1
		c0,0,13.4,6.2,28.3,8.5c10.4,1.6,17.1,2.5,23.7-0.7c7.1-3.5,12.1-10.8,18.3-36.7c1-4.1,2.1-8,2.7-12c4.7-34.2,5.1-56.2,5.1-56.2
		c0.1-5.5,0.2-12.7,0.3-16s-1.5-20.2-2.6-21.3c0,0,0,0-1.8-2.6c-0.8-1.2-1.7-2.6-2.7-4.2c-10.2-16.5-28.9-54.7-43.2-96.6
		c-7.4-21.8-12.8-43.6-12.8-43.6c-1.3-5.3,0.2-12.1,3.4-14.9s5-6.7,4.9-6.7s-0.4-0.3-0.9-0.6c0,0,0,0-0.9,0c-1.2,0-1.2,0-1.2,0
		c-2.2,0.5-3.8,0.1-3.4-1c0.3-1.1-2.5-2.1-7.4,0.4L119.5,123.1z"/>
	<path class="st1" d="M119.5,123.1c-4.9,2.5-8.9,4.6-8.9,4.6s0.3-0.1,0.8-0.2c0,0,0,0,0.4,0.1c3.8,0.7,6.2,10.3,7.1,14
		c2.6,10.7,12.1,72.8,12.1,72.8c0.8,5.4,1.4,10.6,1.2,11.5c-0.1,0.9-0.3,1.6-0.5,3.3l0,0c0,0,0.9,2.2,2,4.9c0,0,0,0,1.3,4.9
		c3.6,13.7,2.7,24.9,2.3,29.3c-2.3,29.7,1.6,21.9-3,70.7c-1.8,18.8-7.7,61.8-7.7,61.8c-0.7,5.5,2.7,11.8,7.7,14.1
		c0,0,13.4,6.2,28.3,8.5c10.4,1.6,17.1,2.5,23.7-0.7c7.1-3.5,12.1-10.8,18.3-36.7c1-4.1,2.1-8,2.7-12c4.7-34.2,5.1-56.2,5.1-56.2
		c0.1-5.5,0.2-12.7,0.3-16s-1.5-20.2-2.6-21.3c0,0,0,0-1.8-2.6c-0.8-1.2-1.7-2.6-2.7-4.2c-10.2-16.5-28.9-54.7-43.2-96.6
		c-7.4-21.8-12.8-43.6-12.8-43.6c-1.3-5.3,0.2-12.1,3.4-14.9s5-6.7,4.9-6.7s-0.4-0.3-0.9-0.6c0,0,0,0-0.9,0c-1.2,0-1.2,0-1.2,0
		c-2.2,0.5-3.8,0.1-3.4-1c0.3-1.1-2.5-2.1-7.4,0.4L119.5,123.1z"/>
</g>
<g>
	<path d="M153,118.4c-3.2,2.9-4.7,9.6-3.4,15c0,0,5.4,21.9,12.8,43.6c14.3,41.9,33,80.1,43.2,96.6c1,1.6,1.9,3,2.7,4.2
		c1.8,2.6,1.8,2.6,1.8,2.6c1.2,1,2.1,1,2,0s-0.2-3.7-0.2-3.7v-0.1l0,0c-0.2-0.9-0.5-1.9-0.9-3c-0.4-1.5-1-3.3-1.6-5.4
		c-0.3-1.1-0.7-2.2-1-3.4c0-0.1,0-0.1,0-0.1c0-0.1-0.2-0.7-0.4-1.3c0,0,0,0-0.2-0.6c-0.5-1.7-1-3.5-1.6-5.4
		c-0.2-0.7-0.2-0.7-0.2-0.7c-0.2-0.8-0.4-1.6-0.5-1.8s-0.3-0.9-0.3-1.1c0,0,0,0-0.1-0.2c-0.1-0.5-0.3-1-0.4-1.6
		c-0.6-2.2-1.3-4.6-2.1-7.2c-0.2-0.8-0.5-1.7-0.7-2.6c-0.5-1.8-1-3.6-1.5-5.5c-2.2-8-9.7-35.2-17.4-69.8c-0.6-2.9-1.3-5.8-1.9-8.8
		c-5.1-23.7-8.3-42-8.9-65.3c-0.2-6.2-0.2-6.2-0.2-6.2c0.1-4.7-3-5.4-6.9-1.5c0,0-2.2,2.2-6.7,9.8c-1.4,2.3-2.6,4.6-3.6,6.8
		c-0.6,1.4-0.6,1.4-0.6,1.4c-0.6,1.5-1.1,2.7-1.1,2.7s-0.4,1-0.8,2.1c-0.4,1.2,0.5,3.6,2.7,3.1c0,0,0,0,1.2,0c0.9,0,0.9,0,0.9,0
		c0.5,0.3,0.9,0.6,0.9,0.6C157.9,111.7,156.2,115.5,153,118.4z"/>
	<path class="st2" d="M153,118.4c-3.2,2.9-4.7,9.6-3.4,15c0,0,5.4,21.9,12.8,43.6c14.3,41.9,33,80.1,43.2,96.6c1,1.6,1.9,3,2.7,4.2
		c1.8,2.6,1.8,2.6,1.8,2.6c1.2,1,2.1,1,2,0s-0.2-3.7-0.2-3.7v-0.1l0,0c-0.2-0.9-0.5-1.9-0.9-3c-0.4-1.5-1-3.3-1.6-5.4
		c-0.3-1.1-0.7-2.2-1-3.4c0-0.1,0-0.1,0-0.1c0-0.1-0.2-0.7-0.4-1.3c0,0,0,0-0.2-0.6c-0.5-1.7-1-3.5-1.6-5.4
		c-0.2-0.7-0.2-0.7-0.2-0.7c-0.2-0.8-0.4-1.6-0.5-1.8s-0.3-0.9-0.3-1.1c0,0,0,0-0.1-0.2c-0.1-0.5-0.3-1-0.4-1.6
		c-0.6-2.2-1.3-4.6-2.1-7.2c-0.2-0.8-0.5-1.7-0.7-2.6c-0.5-1.8-1-3.6-1.5-5.5c-2.2-8-9.7-35.2-17.4-69.8c-0.6-2.9-1.3-5.8-1.9-8.8
		c-5.1-23.7-8.3-42-8.9-65.3c-0.2-6.2-0.2-6.2-0.2-6.2c0.1-4.7-3-5.4-6.9-1.5c0,0-2.2,2.2-6.7,9.8c-1.4,2.3-2.6,4.6-3.6,6.8
		c-0.6,1.4-0.6,1.4-0.6,1.4c-0.6,1.5-1.1,2.7-1.1,2.7s-0.4,1-0.8,2.1c-0.4,1.2,0.5,3.6,2.7,3.1c0,0,0,0,1.2,0c0.9,0,0.9,0,0.9,0
		c0.5,0.3,0.9,0.6,0.9,0.6C157.9,111.7,156.2,115.5,153,118.4z"/>
</g>
<g>
	<path class="st0" d="M329.8,401.8c-0.1,5.5-4.7,10-10.2,10h-14.7c-5.5,0-10-4.5-10-10c0,0,0.1-94.7-7.3-152
		c-0.9-7-1.5-10.9-1.5-10.9c-0.8-5.4-1.4-9.9-1.4-9.9s-0.1-0.7-0.2-1.6s0.2-7.7,1-13.1c0,0,9.4-62.1,12.1-72.8
		c0.9-3.7,3.3-13.3,7.1-14c0.4-0.1,0.4-0.1,0.4-0.1c0.4,0.1,1,0.4,1.3,0.6s0.9,0.7,0.9,0.7l0.1,0.1c0,0,0,0,0,0.1
		c0.8,0.9,0.8,0.9,0.8,0.9c0.7,1.1,2.1,6.5,3,11.9c0,0,12.1,69.6,15.8,115.4C331.5,313.8,329.8,401.8,329.8,401.8z"/>
	<path class="st1" d="M329.8,401.8c-0.1,5.5-4.7,10-10.2,10h-14.7c-5.5,0-10-4.5-10-10c0,0,0.1-94.7-7.3-152
		c-0.9-7-1.5-10.9-1.5-10.9c-0.8-5.4-1.4-9.9-1.4-9.9s-0.1-0.7-0.2-1.6s0.2-7.7,1-13.1c0,0,9.4-62.1,12.1-72.8
		c0.9-3.7,3.3-13.3,7.1-14c0.4-0.1,0.4-0.1,0.4-0.1c0.4,0.1,1,0.4,1.3,0.6s0.9,0.7,0.9,0.7l0.1,0.1c0,0,0,0,0,0.1
		c0.8,0.9,0.8,0.9,0.8,0.9c0.7,1.1,2.1,6.5,3,11.9c0,0,12.1,69.6,15.8,115.4C331.5,313.8,329.8,401.8,329.8,401.8z"/>
</g>
<g>
	<path class="st0" d="M296.9,123.1c4.9,2.5,8.9,4.6,8.9,4.6s-0.4-0.1-0.8-0.2c0,0,0,0-0.4,0.1c-3.8,0.7-6.2,10.3-7.1,14
		c-2.6,10.7-12.1,72.8-12.1,72.8c-0.8,5.4-1.4,10.6-1.2,11.5s0.3,1.6,0.5,3.3l0,0c0,0-0.9,2.2-2,4.9c0,0,0,0-1.3,4.9
		c-3.6,13.7-2.7,24.9-2.3,29.3c2.3,29.7-1.6,21.9,3,70.7c1.8,18.8,7.6,61.8,7.6,61.8c0.7,5.5-2.7,11.8-7.7,14.1
		c0,0-13.4,6.2-28.3,8.5c-10.4,1.6-17.1,2.5-23.7-0.7c-7.1-3.5-12.1-10.8-18.3-36.7c-1-4.1-2.1-8-2.7-12
		c-4.7-34.2-5.1-56.2-5.1-56.2c-0.1-5.5-0.2-12.7-0.3-16s1.5-20.2,2.6-21.3c0,0,0,0,1.8-2.6c0.8-1.2,1.7-2.6,2.7-4.2
		c10.2-16.5,28.9-54.7,43.1-96.6c7.4-21.8,12.8-43.6,12.8-43.6c1.3-5.3-0.2-12.1-3.4-14.9s-5-6.7-5-6.7s0.4-0.3,0.9-0.6
		c0,0,0,0,0.9,0c1.2,0,1.2,0,1.2,0c2.2,0.5,3.8,0.1,3.4-1s2.5-2.1,7.4,0.4L296.9,123.1z"/>
	<path class="st1" d="M296.9,123.1c4.9,2.5,8.9,4.6,8.9,4.6s0.1,0-0.3-0.1c0,0-0.5-0.1-0.9,0c-3.8,0.7-6.2,10.3-7.1,14
		c-2.6,10.7-12.1,72.8-12.1,72.8c-0.8,5.4-1.4,10.6-1.2,11.5s0.3,1.6,0.5,3.3l0,0c0,0-0.9,2.2-2,4.9c0,0,0,0-1.3,4.9
		c-3.6,13.7-2.7,24.9-2.3,29.3c2.3,29.7-1.6,21.9,3,70.7c1.8,18.8,7.6,61.8,7.6,61.8c0.7,5.5-2.7,11.8-7.7,14.1
		c0,0-13.4,6.2-28.3,8.5c-10.4,1.6-17.1,2.5-23.7-0.7c-7.1-3.5-12.1-10.8-18.3-36.7c-1-4.1-2.1-8-2.7-12
		c-4.7-34.2-5.1-56.2-5.1-56.2c-0.1-5.5-0.2-12.7-0.3-16s1.5-20.2,2.6-21.3c0,0,0,0,1.8-2.6c0.8-1.2,1.7-2.6,2.7-4.2
		c10.2-16.5,28.9-54.7,43.1-96.6c7.4-21.8,12.8-43.6,12.8-43.6c1.3-5.3-0.2-12.1-3.4-14.9s-5-6.7-5-6.7s0.4-0.3,0.9-0.6
		c0,0,0,0,0.9,0c1.2,0,1.2,0,1.2,0c2.2,0.5,3.8,0.1,3.4-1s2.5-2.1,7.4,0.4L296.9,123.1z"/>
</g>
<circle class="st3" cx="212.2" cy="290.4" r="5"/>
<polygon class="st2" points="280.1,329.9 279.9,329.9 279,310.9 241.6,312.2 241.6,309.8 279,308.4 "/>
<path class="st4" d="M280.1,332.3l-31.2,2.5c-3.9,0.3-7.2-2.8-7.2-6.6v-16l37.3-1.3l1,19L280.1,332.3z"/>
<line class="st5" x1="256.5" y1="229.2" x2="255.4" y2="308.4"/>
<polygon class="st2" points="135.6,329.9 135.7,329.9 136.7,310.9 174.1,312.2 174.1,309.8 136.7,308.4 "/>
<path class="st4" d="M135.6,332.3l31.2,2.5c3.9,0.3,7.2-2.8,7.2-6.6v-16l-37.3-1.3l-1,19L135.6,332.3z"/>
<line class="st5" x1="159.2" y1="229.2" x2="160.3" y2="308.4"/>
<path class="st4" d="M248.6,181.8c9.7-0.4,19.4-0.7,29.1-1.1c0,3.6,0,7.3,0,10.9c-12.1,1.2-24.1,2.4-36.2,3.6
	C243.8,190.7,246.2,186.2,248.6,181.8z"/>
<g>
	<path d="M263.4,118.4c3.2,2.9,4.7,9.6,3.4,15c0,0-5.4,21.9-12.8,43.6c-14.3,41.9-33,80.1-43.2,96.6c-1,1.6-1.9,3-2.7,4.2
		c-1.8,2.6-1.8,2.6-1.8,2.6c-1.2,1-2.1,1-2,0s0.2-3.7,0.2-3.7v-0.1l0,0c0.2-0.9,0.5-1.9,0.9-3c0.4-1.5,1-3.3,1.6-5.4
		c0.3-1.1,0.7-2.2,1-3.4c0-0.1,0-0.1,0-0.1c0-0.1,0.2-0.7,0.4-1.3c0,0,0,0,0.2-0.6c0.5-1.7,1-3.5,1.6-5.4c0.2-0.7,0.2-0.7,0.2-0.7
		c0.2-0.8,0.4-1.6,0.5-1.8s0.3-0.9,0.3-1.1c0,0,0,0,0.1-0.2c0.1-0.5,0.3-1,0.4-1.6c0.6-2.2,1.3-4.6,2.1-7.2c0.2-0.8,0.5-1.7,0.7-2.6
		c0.5-1.8,1-3.6,1.5-5.5c2.2-8,9.7-35.2,17.4-69.8c0.6-2.9,1.3-5.8,1.9-8.8c5.1-23.7,8.3-42,8.9-65.3c0.2-6.2,0.2-6.2,0.2-6.2
		c-0.1-4.7,3-5.4,6.9-1.5c0,0,2.2,2.2,6.7,9.8c1.4,2.3,2.6,4.6,3.6,6.8c0.6,1.4,0.6,1.4,0.6,1.4c0.6,1.5,1.1,2.7,1.1,2.7
		s0.4,1,0.8,2.1c0.4,1.2-0.5,3.6-2.7,3.1c0,0,0,0-1.2,0c-0.9,0-0.9,0-0.9,0c-0.5,0.3-0.9,0.6-0.9,0.6
		C258.4,111.7,260.2,115.5,263.4,118.4z"/>
	<path class="st2" d="M263.4,118.4c3.2,2.9,4.7,9.6,3.4,15c0,0-5.4,21.9-12.8,43.6c-14.3,41.9-33,80.1-43.2,96.6
		c-1,1.6-1.9,3-2.7,4.2c-1.8,2.6-1.8,2.6-1.8,2.6c-1.2,1-2.1,1-2,0s0.2-3.7,0.2-3.7v-0.1l0,0c0.2-0.9,0.5-1.9,0.9-3
		c0.4-1.5,1-3.3,1.6-5.4c0.3-1.1,0.7-2.2,1-3.4c0-0.1,0-0.1,0-0.1c0-0.1,0.2-0.7,0.4-1.3c0,0,0,0,0.2-0.6c0.5-1.7,1-3.5,1.6-5.4
		c0.2-0.7,0.2-0.7,0.2-0.7c0.2-0.8,0.4-1.6,0.5-1.8s0.3-0.9,0.3-1.1c0,0,0,0,0.1-0.2c0.1-0.5,0.3-1,0.4-1.6c0.6-2.2,1.3-4.6,2.1-7.2
		c0.2-0.8,0.5-1.7,0.7-2.6c0.5-1.8,1-3.6,1.5-5.5c2.2-8,9.7-35.2,17.4-69.8c0.6-2.9,1.3-5.8,1.9-8.8c5.1-23.7,8.3-42,8.9-65.3
		c0.2-6.2,0.2-6.2,0.2-6.2c-0.1-4.7,3-5.4,6.9-1.5c0,0,2.2,2.2,6.7,9.8c1.4,2.3,2.6,4.6,3.6,6.8c0.6,1.4,0.6,1.4,0.6,1.4
		c0.6,1.5,1.1,2.7,1.1,2.7s0.4,1,0.8,2.1c0.4,1.2-0.5,3.6-2.7,3.1c0,0,0,0-1.2,0c-0.9,0-0.9,0-0.9,0c-0.5,0.3-0.9,0.6-0.9,0.6
		C258.4,111.7,260.2,115.5,263.4,118.4z"/>
</g>
</svg>
