<?xml version="1.0" encoding="utf-8"?>
<!-- Generator: Adobe Illustrator 26.0.1, SVG Export Plug-In . SVG Version: 6.00 Build 0)  -->
<svg version="1.1" id="Layer_1" xmlns="http://www.w3.org/2000/svg" xmlns:xlink="http://www.w3.org/1999/xlink" x="0px" y="0px"
	 viewBox="0 0 423 520" style="enable-background:new 0 0 423 520;" xml:space="preserve">
<style type="text/css">
	.st0{fill:#FFFFFF;}
</style>
<circle cx="214.4" cy="262.3" r="105.2"/>
<path d="M214.4,144c-65.3,0-118.2,52.9-118.2,118.2s52.9,118.2,118.2,118.2c65.3,0,118.2-52.9,118.2-118.2
	C332.6,197,279.7,144,214.4,144C214.4,144,214.4,144,214.4,144z M214.4,370.5c-59.8,0-108.2-48.5-108.2-108.2S154.6,154,214.4,154
	s108.2,48.5,108.2,108.2c0,0,0,0,0,0C322.5,322,274.1,370.4,214.4,370.5L214.4,370.5z"/>
<circle cx="214.4" cy="262.3" r="105.2"/>
<circle cx="214.4" cy="262.3" r="105.2"/>
<circle class="st0" cx="195.7" cy="221.2" r="15.7"/>
<circle class="st0" cx="227.3" cy="303.3" r="15.7"/>
</svg>
