<svg id="Layer_1" data-name="Layer 1" xmlns="http://www.w3.org/2000/svg" viewBox="0 0 423 520"><defs><style>.cls-1,.cls-2,.cls-3{fill:#fff;}.cls-2,.cls-3{stroke:#010101;}.cls-10,.cls-11,.cls-12,.cls-2,.cls-3,.cls-4,.cls-5,.cls-6,.cls-7,.cls-8,.cls-9{stroke-miterlimit:10;}.cls-2{stroke-width:2.7px;}.cls-3{stroke-dasharray:2.7;}.cls-10,.cls-11,.cls-12,.cls-4,.cls-5,.cls-6,.cls-7,.cls-8,.cls-9{fill:none;stroke:#000;}.cls-4{stroke-width:2px;}.cls-5,.cls-6{stroke-width:0.75px;}.cls-6{stroke-dasharray:3.09 3.09;}.cls-10,.cls-11,.cls-7,.cls-8,.cls-9{stroke-width:0.5px;}.cls-8{stroke-dasharray:2.98 2.98;}.cls-9{stroke-dasharray:2.99 2.99;}.cls-10{stroke-dasharray:3.43 3.43;}.cls-11{stroke-dasharray:2.99 2.99;}.cls-12{stroke-dasharray:4;}</style></defs><path class="cls-1" d="M321.89,192.63v2.24a57.05,57.05,0,0,1-7.53,11c-18.72,21.81-56.25,36.69-99.48,36.69h0a19.44,19.44,0,0,0-5.91.91c-40.71-1.29-75.67-15.79-93.54-36.59a57,57,0,0,1-7.8-11.55s0,0,0,0c-.27-.52-.52-1.05-.75-1.57v-3.06c.23.52-.14-.53.12,0,0,0,0-.48,0-.48l.46,0c12.85-26,48.08-38.89,106.18-38.89C263.8,151.37,307.57,172,321.89,192.63Z"/><path class="cls-1" d="M375.87,229.31l-3.69,170.88H55.32l-3.6-170.35,59.6-21.41c2.25,7.18,5.46,16.31,8.84,22.07,17.09,29.34,55.26,37,77.16,38.93,4.91.44,9,.58,11.87.63h.41c1,0,1.86,0,2.51,0h.39l1.1,0h.3l1.1,0h.41c2.12,0,6.33,0,11.87-.39l2.9-.24c21.89-1.93,60.06-9.59,77.16-38.93,3.48-5.95,7-16,9.28-23.37Z"/><path class="cls-2" d="M196.56,396.44l0-3,.88-119,0-2.75c6.74.6,11.89.63,14.28.6h.39l1.07,0h.29l1.07,0H215c.63,0,1.45,0,2.43,0h.39c2.77,0,6.73-.18,11.48-.6V272l0,3,.88,118.49,0,3"/><path class="cls-3" d="M199.58,393.44,200.45,275c4.34.3,7.86.37,10.22.37,1.33,0,2.19,0,2.5,0h.34c.35,0,1.22,0,2.54,0,2.36,0,5.88-.07,10.22-.37l.87,118.48"/><ellipse cx="213.36" cy="346.71" rx="6.71" ry="6.41"/><rect x="212.67" y="338" width="1.39" height="17.84"/><path class="cls-1" d="M236.58,269.15a9.69,9.69,0,0,1,1.15,1.81,4.72,4.72,0,0,1-2.1.43l-4.58.17-4,.15-26.7.94-4,.14-3.39.13c-1.1,0-1.61-.74-1.12-1.73l6-12.28a20.22,20.22,0,0,1,2.15-3.34s6.72-8.12,12.54-9.5a18.11,18.11,0,0,1,2.7-.45,16.37,16.37,0,0,1,2.26-.11,4.74,4.74,0,0,1,3.18,1.71Z"/><path class="cls-4" d="M236.58,269.15a9.69,9.69,0,0,1,1.15,1.81,4.72,4.72,0,0,1-2.1.43l-4.58.17-4,.15-26.7.94-4,.14-3.39.13c-1.1,0-1.61-.74-1.12-1.73l6-12.28a20.22,20.22,0,0,1,2.15-3.34s6.72-8.12,12.54-9.5a18.11,18.11,0,0,1,2.7-.45,16.37,16.37,0,0,1,2.26-.11,4.74,4.74,0,0,1,3.18,1.71Z"/><path class="cls-1" d="M199.75,259.84a21.79,21.79,0,0,1,2.13-3.35s5.71-7.05,11.12-8.33a17,17,0,0,1,2.39-.4,17.83,17.83,0,0,1,2.12-.13h.27c.29,0,1.07.75,1.71,1.64l13.38,18.42c.65.89.28,1.65-.82,1.69l-1.08,0-4,.15-30.51,1.08a1.11,1.11,0,0,1-1.13-1.73Z"/><path class="cls-5" d="M216.28,247.68c.42,0,.83-.05,1.23-.05h.27a2.8,2.8,0,0,1,1.15.94"/><path class="cls-6" d="M220.78,251l12.09,16.65c.65.89.28,1.65-.82,1.69l-1.08,0-4,.15-30.51,1.08a1.11,1.11,0,0,1-1.13-1.73l4.42-9.08a21.79,21.79,0,0,1,2.13-3.35s5.71-7.05,11.12-8.33a15.09,15.09,0,0,1,1.74-.33"/><path class="cls-1" d="M329.35,159.31a8.14,8.14,0,0,1,1.08,3.69v8.94c0,1.1,0,2.53,0,3.19l-.08.61a12.19,12.19,0,0,1-.24,1.43,21.55,21.55,0,0,1-3,7.17c-.24.4-.47.77-.74,1.16a28.76,28.76,0,0,1-1.74,2.33l-.3.37c-.33.39-.9,1.06-1.27,1.48l-.34.37-.78.87a2.46,2.46,0,0,1-3,.24s-8.62-6.24-15.07-9.81a185.07,185.07,0,0,0-178.89,0,183.11,183.11,0,0,0-15.5,10.12,2.23,2.23,0,0,1-2.73.09l-.53-.55-.32-.35c-.35-.38-1.22-1.37-1.94-2.2,0,0-1.13-1.32-2.13-2.77-.27-.37-.53-.77-.77-1.17a23.61,23.61,0,0,1-2.22-4.36l-.14-.32c-.1-.34-.22-.73-.27-.87s-.26-.93-.39-1.38l-.08-.42-.08-.4c0-.44-.12-.91-.14-1.06s-.08-.69-.09-.92,0-1.75,0-2.85V163a8.14,8.14,0,0,1,1.08-3.69s10.3-16.07,25.91-24.72a185.07,185.07,0,0,1,178.89,0C319.05,143.24,329.35,159.31,329.35,159.31Z"/><path class="cls-4" d="M329.35,159.31a8.14,8.14,0,0,1,1.08,3.69v8.94c0,1.1,0,2.53,0,3.19l-.08.61a12.19,12.19,0,0,1-.24,1.43,21.55,21.55,0,0,1-3,7.17c-.24.4-.47.77-.74,1.16a28.76,28.76,0,0,1-1.74,2.33l-.3.37c-.33.39-.9,1.06-1.27,1.48l-.34.37-.78.87a2.46,2.46,0,0,1-3,.24s-8.62-6.24-15.07-9.81a185.07,185.07,0,0,0-178.89,0,183.11,183.11,0,0,0-15.5,10.12,2.23,2.23,0,0,1-2.73.09l-.53-.55-.32-.35c-.35-.38-1.22-1.37-1.94-2.2,0,0-1.13-1.32-2.13-2.77-.27-.37-.53-.77-.77-1.17a23.61,23.61,0,0,1-2.22-4.36l-.14-.32c-.1-.34-.22-.73-.27-.87s-.26-.93-.39-1.38l-.08-.42-.08-.4c0-.44-.12-.91-.14-1.06s-.08-.69-.09-.92,0-1.75,0-2.85V163a8.14,8.14,0,0,1,1.08-3.69s10.3-16.07,25.91-24.72a185.07,185.07,0,0,1,178.89,0C319.05,143.24,329.35,159.31,329.35,159.31Z"/><path class="cls-1" d="M107.38,189.18l-.18-.2c-.2-.21-.37-.41-.39-.42L105.47,187s-1-1.14-1.94-2.54q-.41-.57-.69-1.05a21.67,21.67,0,0,1-2.06-4l-.13-.32-.13-.43,0-.14s0-.13-.08-.2a3.21,3.21,0,0,1-.08-.34s0-.09,0-.13-.11-.37-.22-.75l-.06-.31-.07-.36c0-.32-.09-.61-.09-.65a.68.68,0,0,0,0-.14,2.28,2.28,0,0,0,0-.24l0-.34s0-.18,0-.38,0-1.62,0-2.72V163a13.93,13.93,0,0,1,.67-3.89s3.82-10.79,25.22-22.65a182.93,182.93,0,0,1,176.81,0c21.39,11.86,25.22,22.65,25.22,22.65a14.29,14.29,0,0,1,.66,3.89v8.94c0,1.1,0,2.48,0,3.06l-.06.46a11.44,11.44,0,0,1-.21,1.24,19.21,19.21,0,0,1-2.72,6.51c-.24.39-.46.74-.7,1.1a24.28,24.28,0,0,1-1.62,2.16l-.29.37-.55.65-.05.06s-.29.34-.62.71l-.31.34-.26.29c-.29.31-1.27.05-2.17-.59,0,0-7.72-5.43-13.86-8.83a187.26,187.26,0,0,0-181,0c-6.3,3.48-14.3,9.15-14.3,9.15-.9.63-1.83.94-2.08.68Z"/><path class="cls-7" d="M108.91,189c-.65.34-1.22.47-1.41.27l-.12-.12-.18-.2c-.2-.21-.37-.41-.39-.42l-.6-.7"/><path class="cls-8" d="M104.32,185.56c-.25-.33-.52-.7-.79-1.09s-.5-.73-.69-1.05q-.53-.82-1-1.62"/><path class="cls-7" d="M101.22,180.46c-.16-.36-.31-.71-.44-1.07l-.13-.32-.13-.43,0-.14s0-.13-.08-.2a3.21,3.21,0,0,1-.08-.34s0-.09,0-.13-.11-.37-.22-.75l-.06-.31-.07-.36c0-.32-.09-.61-.09-.65a.68.68,0,0,0,0-.14,2.28,2.28,0,0,0,0-.24l0-.34v-.11"/><path class="cls-9" d="M99.7,171.94V163a13.93,13.93,0,0,1,.67-3.89s3.82-10.79,25.22-22.65a182.93,182.93,0,0,1,176.81,0c21.39,11.86,25.22,22.65,25.22,22.65a14.29,14.29,0,0,1,.66,3.89v9"/><path class="cls-7" d="M328.28,173.5c0,.62,0,1.18,0,1.5l-.06.46c0,.36-.1.7-.16,1"/><path class="cls-10" d="M327.06,179.77a22.73,22.73,0,0,1-1.79,3.44c-.23.38-.44.71-.67,1.06"/><path class="cls-7" d="M323.6,185.66c-.2.26-.42.53-.65.81l-.29.37-.55.65-.05.06s-.29.34-.62.71l-.31.34-.26.29c-.21.22-.78.15-1.42-.15"/><path class="cls-11" d="M317,187.1c-2.63-1.8-7.77-5.22-12.12-7.63a187.26,187.26,0,0,0-181,0c-5.29,2.92-11.76,7.38-13.72,8.74"/><path class="cls-1" d="M212.08,242.75c1,.31,1.84.7,1.75.86s-.42.78-.74,1.38l-1.52,2.85L200,269.61l-1.3,2.44-1.29,2.44-3.55,6.68L192,284.7,189.16,290a23.25,23.25,0,0,1-36.77,5.72L76.63,221.8a3.35,3.35,0,0,1-.73-3.27l20.95-55.66c.39-1,.71-1,.71.13v8.94c0,1.1,0,2.19,0,2.42s.05,1,.07,1.1.13.87.18,1.31l.08.4.08.42c.13.45.27.95.31,1.1s.25.81.35,1.15l.14.32a23.61,23.61,0,0,0,2.22,4.36c.24.4.5.8.77,1.17,1,1.45,2.13,2.77,2.13,2.77.72.83,1.52,1.75,1.78,2l1.56,1.63.56.53c10.64,10.24,28.24,19.92,46.07,28,1.48.69,3,1.35,4.47,2s3,1.3,4.45,1.91c6.64,2.86,13.18,5.42,19.21,7.7.87.34,1.75.69,2.62,1,1.11.4,2.2.82,3.26,1.19,1.53.56,3,1.12,4.44,1.62.93.34,1.85.66,2.75,1C206.4,241.05,212.08,242.75,212.08,242.75Z"/><path class="cls-4" d="M212.08,242.75c1,.31,1.84.7,1.75.86s-.42.78-.74,1.38l-1.52,2.85L200,269.61l-1.3,2.44-1.29,2.44-3.55,6.68L192,284.7,189.16,290a23.25,23.25,0,0,1-36.77,5.72L76.63,221.8a3.35,3.35,0,0,1-.73-3.27l20.95-55.66c.39-1,.71-1,.71.13v8.94c0,1.1,0,2.19,0,2.42s.05,1,.07,1.1.13.87.18,1.31l.08.4.08.42c.13.45.27.95.31,1.1s.25.81.35,1.15l.14.32a23.61,23.61,0,0,0,2.22,4.36c.24.4.5.8.77,1.17,1,1.45,2.13,2.77,2.13,2.77.72.83,1.52,1.75,1.78,2l1.56,1.63.56.53c10.64,10.24,28.24,19.92,46.07,28,1.48.69,3,1.35,4.47,2s3,1.3,4.45,1.91c6.64,2.86,13.18,5.42,19.21,7.7.87.34,1.75.69,2.62,1,1.11.4,2.2.82,3.26,1.19,1.53.56,3,1.12,4.44,1.62.93.34,1.85.66,2.75,1C206.4,241.05,212.08,242.75,212.08,242.75Z"/><path class="cls-1" d="M170.51,298.81a9.94,9.94,0,0,1-3.88.16l-10.47-4.28a24.07,24.07,0,0,1-3.11-2.49L80.13,221a3.32,3.32,0,0,1-.73-3.27l14.69-39c.39-1,.76-1.59.81-1.25l.06.27.08.44c.15.53.31,1.12.35,1.3s.31,1,.44,1.41l.18.42a27.14,27.14,0,0,0,2.46,4.82c.24.4.55.87.86,1.3,1.08,1.57,2.37,3.07,2.37,3.07l1.78,2,1.66,1.73.59.56c9.51,9.15,25.29,18.77,46.9,28.58l1.62.74,2.35,1.05,1.26.55,2.58,1.12,1.21.5c5.75,2.48,12.08,5,19.29,7.73.86.34,1.76.7,2.65,1l1.49.55.61.22,2,.73,2.68,1,1,.34c.91.34,1.88.67,2.82,1,6.7,2.36,13.58,4.58,13.58,4.58a1.62,1.62,0,0,1,1,2.38l-17.47,32.89-1.88,3.54-1.89,3.55a16.58,16.58,0,0,1-2.33,3.2Z"/><path class="cls-12" d="M170.51,298.81a9.94,9.94,0,0,1-3.88.16l-10.47-4.28a24.07,24.07,0,0,1-3.11-2.49L80.13,221a3.32,3.32,0,0,1-.73-3.27l14.69-39c.39-1,.76-1.59.81-1.25l.06.27.08.44c.15.53.31,1.12.35,1.3s.31,1,.44,1.41l.18.42a27.14,27.14,0,0,0,2.46,4.82c.24.4.55.87.86,1.3,1.08,1.57,2.37,3.07,2.37,3.07l1.78,2,1.66,1.73.59.56c9.51,9.15,25.29,18.77,46.9,28.58l1.62.74,2.35,1.05,1.26.55,2.58,1.12,1.21.5c5.75,2.48,12.08,5,19.29,7.73.86.34,1.76.7,2.65,1l1.49.55.61.22,2,.73,2.68,1,1,.34c.91.34,1.88.67,2.82,1,6.7,2.36,13.58,4.58,13.58,4.58a1.62,1.62,0,0,1,1,2.38l-17.47,32.89-1.88,3.54-1.89,3.55a16.58,16.58,0,0,1-2.33,3.2Z"/><path class="cls-1" d="M352.08,218.53a3.34,3.34,0,0,1-.72,3.27l-20.61,20.13-2.87,2.79L288,283.6l-2.87,2.8-11.49,11.22a21.24,21.24,0,0,1-33.59-5.23l-3-5.62c-.52-1-1.16-2.19-1.43-2.7l-1.43-2.69-4.26-8-1.88-3.53-12-22.48-1.43-2.69c-.27-.51-.54-1-.61-1.15s-.06-.25,0-.27l.78-.24,2.29-.71s8.12-2.55,17.67-5.94c1.14-.42,2.33-.82,3.52-1.27,1.62-.58,3.26-1.19,5-1.83.92-.34,1.88-.68,2.83-1.06l2.54-1c1.22-.45,2.43-.93,3.68-1.43.31-.14.66-.27,1-.4.85-.32,1.75-.69,2.62-1q3-1.2,6-2.46l2-.85.9-.37,3.52-1.54.87-.37c3.18-1.4,6.38-2.85,9.56-4.34,1.34-.66,2.69-1.29,4-1.95,6-2.94,11.86-6.06,17.28-9.29.67-.4,1.3-.8,2-1.19q3-1.83,5.8-3.71c1.16-.79,2.27-1.59,3.38-2.41.56-.39,1.12-.82,1.67-1.24a79.77,79.77,0,0,0,7.46-6.35c.77-.74,1.51-1.51,2.2-2.28l.34-.37c.37-.42.94-1.09,1.27-1.48l.3-.37a28.76,28.76,0,0,0,1.74-2.33c.27-.39.5-.76.74-1.16a21.55,21.55,0,0,0,3-7.17,12.19,12.19,0,0,0,.24-1.43l.08-.61c0-.66,0-2.09,0-3.19V163c0-1.1.31-1.16.7-.13Z"/><path class="cls-4" d="M352.08,218.53a3.34,3.34,0,0,1-.72,3.27l-20.61,20.13-2.87,2.79L288,283.6l-2.87,2.8-11.49,11.22a21.24,21.24,0,0,1-33.59-5.23l-3-5.62c-.52-1-1.16-2.19-1.43-2.7l-1.43-2.69-4.26-8-1.88-3.53-12-22.48-1.43-2.69c-.27-.51-.54-1-.61-1.15s-.06-.25,0-.27l.78-.24,2.29-.71s8.12-2.55,17.67-5.94c1.14-.42,2.33-.82,3.52-1.27,1.62-.58,3.26-1.19,5-1.83.92-.34,1.88-.68,2.83-1.06l2.54-1c1.22-.45,2.43-.93,3.68-1.43.31-.14.66-.27,1-.4.85-.32,1.75-.69,2.62-1q3-1.2,6-2.46l2-.85.9-.37,3.52-1.54.87-.37c3.18-1.4,6.38-2.85,9.56-4.34,1.34-.66,2.69-1.29,4-1.95,6-2.94,11.86-6.06,17.28-9.29.67-.4,1.3-.8,2-1.19q3-1.83,5.8-3.71c1.16-.79,2.27-1.59,3.38-2.41.56-.39,1.12-.82,1.67-1.24a79.77,79.77,0,0,0,7.46-6.35c.77-.74,1.51-1.51,2.2-2.28l.34-.37c.37-.42.94-1.09,1.27-1.48l.3-.37a28.76,28.76,0,0,0,1.74-2.33c.27-.39.5-.76.74-1.16a21.55,21.55,0,0,0,3-7.17,12.19,12.19,0,0,0,.24-1.43l.08-.61c0-.66,0-2.09,0-3.19V163c0-1.1.31-1.16.7-.13Z"/><path class="cls-1" d="M260.84,300.27a9.94,9.94,0,0,1-3.88-.16l-12.83-7.69a17.54,17.54,0,0,1-2.33-3.21l-2-3.85-1.43-2.69L236.9,280l-4.26-8-1.88-3.53-11.48-21.58a1.62,1.62,0,0,1,1-2.39s9.72-3.18,15.64-5.27c.55-.21,1.07-.39,1.6-.58l2-.71,2.44-.89,2.57-.95,1.41-.52,1.87-.72,1.54-.58.56-.22c1.18-.44,2.43-.93,3.7-1.44.32-.14.64-.26,1-.38l.56-.21,1.64-.66,2.3-.92s2.18-.88,4.23-1.73c.37-.17.68-.3,1-.43l1-.44c.84-.35,1.75-.75,2.66-1.15.51-.2,1.08-.45,1.66-.71l.93-.4c3.2-1.42,6.44-2.88,9.65-4.39l2.06-1,2-1c6.3-3.08,12.18-6.24,17.5-9.4.35-.21,1.64-1,2-1.2,1.93-1.17,3.87-2.41,5.92-3.79,1.15-.78,2.29-1.59,3.5-2.48.53-.38,1.1-.82,1.67-1.25a82.58,82.58,0,0,0,7.77-6.61c.8-.78,1.59-1.6,2.33-2.42.35-.38.71-.77,1.05-1.19s.67-.78,1-1.19a28,28,0,0,0,1.89-2.52c.29-.43.56-.84.82-1.28a24.4,24.4,0,0,0,3.36-8.13l.06-.28c.06-.33.42.24.81,1.27l14.69,39a3.35,3.35,0,0,1-.73,3.27l-19.21,18.75-2.86,2.79L273,294.07a24.77,24.77,0,0,1-3.11,2.49Z"/><path class="cls-12" d="M260.84,300.27a9.94,9.94,0,0,1-3.88-.16l-12.83-7.69a17.54,17.54,0,0,1-2.33-3.21l-2-3.85-1.43-2.69L236.9,280l-4.26-8-1.88-3.53-11.48-21.58a1.62,1.62,0,0,1,1-2.39s9.72-3.18,15.64-5.27c.55-.21,1.07-.39,1.6-.58l2-.71,2.44-.89,2.57-.95,1.41-.52,1.87-.72,1.54-.58.56-.22c1.18-.44,2.43-.93,3.7-1.44.32-.14.64-.26,1-.38l.56-.21,1.64-.66,2.3-.92s2.18-.88,4.23-1.73c.37-.17.68-.3,1-.43l1-.44c.84-.35,1.75-.75,2.66-1.15.51-.2,1.08-.45,1.66-.71l.93-.4c3.2-1.42,6.44-2.88,9.65-4.39l2.06-1,2-1c6.3-3.08,12.18-6.24,17.5-9.4.35-.21,1.64-1,2-1.2,1.93-1.17,3.87-2.41,5.92-3.79,1.15-.78,2.29-1.59,3.5-2.48.53-.38,1.1-.82,1.67-1.25a82.58,82.58,0,0,0,7.77-6.61c.8-.78,1.59-1.6,2.33-2.42.35-.38.71-.77,1.05-1.19s.67-.78,1-1.19a28,28,0,0,0,1.89-2.52c.29-.43.56-.84.82-1.28a24.4,24.4,0,0,0,3.36-8.13l.06-.28c.06-.33.42.24.81,1.27l14.69,39a3.35,3.35,0,0,1-.73,3.27l-19.21,18.75-2.86,2.79L273,294.07a24.77,24.77,0,0,1-3.11,2.49Z"/><line class="cls-1" x1="349.96" y1="220.41" x2="375.87" y2="229.31"/><line class="cls-4" x1="349.96" y1="220.41" x2="375.87" y2="229.31"/><line class="cls-1" x1="78.76" y1="220.41" x2="49.66" y2="230.97"/><line class="cls-4" x1="78.76" y1="220.41" x2="49.66" y2="230.97"/><circle cx="213.59" cy="261.32" r="7.5"/></svg>