<svg id="Layer_1" data-name="Layer 1" xmlns="http://www.w3.org/2000/svg" viewBox="0 0 423 520"><defs><style>.cls-1,.cls-2,.cls-3{fill:#fff;}.cls-2,.cls-3{stroke:#010101;}.cls-10,.cls-11,.cls-12,.cls-13,.cls-14,.cls-15,.cls-16,.cls-17,.cls-2,.cls-3,.cls-4,.cls-5,.cls-6,.cls-7,.cls-8,.cls-9{stroke-miterlimit:10;}.cls-2{stroke-width:2.7px;}.cls-3{stroke-dasharray:2.7;}.cls-10,.cls-11,.cls-12,.cls-13,.cls-14,.cls-15,.cls-16,.cls-17,.cls-4,.cls-5,.cls-6,.cls-7,.cls-8,.cls-9{fill:none;stroke:#000;}.cls-4{stroke-width:2px;}.cls-12,.cls-13,.cls-14,.cls-15,.cls-16,.cls-17,.cls-5,.cls-6{stroke-width:0.75px;}.cls-6{stroke-dasharray:2.91 2.91;}.cls-10,.cls-11,.cls-7,.cls-8,.cls-9{stroke-width:0.5px;}.cls-8{stroke-dasharray:2.76 2.76;}.cls-9{stroke-dasharray:3.01 3.01;}.cls-10{stroke-dasharray:3.18 3.18;}.cls-11{stroke-dasharray:2.97 2.97;}.cls-12{stroke-dasharray:2.48 2.48;}.cls-13{stroke-dasharray:3.09 3.09;}.cls-14{stroke-dasharray:3.02 3.02;}.cls-15{stroke-dasharray:3.08 3.08;}.cls-16{stroke-dasharray:3.19 3.19;}.cls-17{stroke-dasharray:3.01 3.01;}</style></defs><path class="cls-1" d="M321.06,185.31v2.24a57.05,57.05,0,0,1-7.53,11c-18.72,21.81-56.25,36.69-99.48,36.69h0a19.44,19.44,0,0,0-5.91.91c-40.71-1.29-75.67-15.79-93.54-36.59a57,57,0,0,1-7.8-11.55s0,0,0,0c-.27-.52-.52-1-.75-1.57v-3.06c.23.52-.14-.52.12,0,0,0,0-.48,0-.48l.46,0c12.85-26,48.08-38.9,106.18-38.9C263,144.05,306.74,164.66,321.06,185.31Z"/><path class="cls-1" d="M371.72,223.05l-3.66,170.89H53.39L49.82,223.58,109,202.17c2.23,7.18,5.42,16.31,8.77,22.07,17,29.35,54.88,37,76.63,38.93,4.88.44,9,.59,11.79.63h.4c1,0,1.85,0,2.5,0h.38l1.1,0h.29l1.1,0h.4c2.11,0,6.29,0,11.79-.39l2.88-.24c21.74-1.93,59.64-9.58,76.63-38.93,3.45-6,6.92-16,9.21-23.37Z"/><path class="cls-2" d="M196.73,382.21l0-3,.88-119,0-2.75c6.74.6,11.89.63,14.28.6.14,0,.27,0,.39,0l1.07,0h.29l1.07,0c.12,0,.24,0,.37,0,.63,0,1.45,0,2.43,0h.39c2.77,0,6.73-.18,11.48-.6v.23l0,3,.88,118.49,0,3"/><path class="cls-3" d="M199.75,379.21l.87-118.48c4.34.3,7.86.37,10.22.37,1.33,0,2.19,0,2.5,0h.34c.35,0,1.22,0,2.54,0,2.36,0,5.88-.07,10.22-.37l.87,118.48"/><ellipse cx="213.53" cy="332.48" rx="6.71" ry="6.41"/><rect x="212.84" y="323.77" width="1.39" height="17.84"/><path class="cls-1" d="M232.41,256.42a10.87,10.87,0,0,1,1.15,1.8,5,5,0,0,1-2.1.42l-4.1.15-4,.14-25,.88-4,.15-3,.1c-1.1,0-1.61-.73-1.13-1.72L195.84,247a19.81,19.81,0,0,1,2.15-3.34s6.27-7.58,11.76-8.88a16.35,16.35,0,0,1,2.55-.42,14.51,14.51,0,0,1,2-.12,4.74,4.74,0,0,1,3.18,1.71Z"/><path class="cls-4" d="M232.41,256.42a10.87,10.87,0,0,1,1.15,1.8,5,5,0,0,1-2.1.42l-4.1.15-4,.14-25,.88-4,.15-3,.1c-1.1,0-1.61-.73-1.13-1.72L195.84,247a19.81,19.81,0,0,1,2.15-3.34s6.27-7.58,11.76-8.88a16.35,16.35,0,0,1,2.55-.42,14.51,14.51,0,0,1,2-.12,4.74,4.74,0,0,1,3.18,1.71Z"/><path class="cls-1" d="M197.66,247.83a20.87,20.87,0,0,1,2.13-3.35s5.32-6.57,10.43-7.78a14.7,14.7,0,0,1,2.25-.38,18,18,0,0,1,2-.12h.25c.28,0,1,.75,1.69,1.64l12.5,17.2c.64.89.27,1.66-.83,1.7l-.79,0-4,.14-28.58,1a1.11,1.11,0,0,1-1.13-1.73Z"/><path class="cls-5" d="M213.22,236.25c.44,0,.85-.05,1.25-.05h.25c.21,0,.66.4,1.14,1"/><path class="cls-6" d="M217.6,239.48,228.91,255c.64.89.27,1.66-.83,1.7l-.79,0-4,.14-28.58,1a1.11,1.11,0,0,1-1.13-1.73l4.08-8.36a20.87,20.87,0,0,1,2.13-3.35s5.32-6.57,10.43-7.78a15.8,15.8,0,0,1,1.56-.3"/><path class="cls-1" d="M320,152.74a7.94,7.94,0,0,1,1.08,3.68v8.22c0,1.1,0,2.5,0,3.12l-.08.57a12.65,12.65,0,0,1-.22,1.35,20.35,20.35,0,0,1-2.83,6.77c-.22.38-.45.73-.7,1.1-.5.75-1,1.48-1.64,2.2l-.28.35-1.2,1.4-.32.35-.66.73a2.43,2.43,0,0,1-3,.24s-8-5.82-14.14-9.19a174.68,174.68,0,0,0-168.86,0,170,170,0,0,0-14.55,9.49,2.18,2.18,0,0,1-2.66.15l-.5-.52-.3-.33c-.33-.35-1.19-1.33-1.91-2.16,0,0-1-1.16-1.94-2.53-.25-.35-.5-.73-.72-1.1a22.59,22.59,0,0,1-2.1-4.12l-.13-.3c-.09-.32-.21-.69-.26-.83s-.24-.87-.36-1.3l-.08-.4-.07-.37c-.06-.41-.12-.86-.14-1s-.07-.65-.09-.87,0-1.7,0-2.8v-8.22a8.06,8.06,0,0,1,1.08-3.68s9.66-15.08,24.4-23.25a174.68,174.68,0,0,1,168.86,0C310.32,137.66,320,152.74,320,152.74Z"/><path class="cls-4" d="M320,152.74a7.94,7.94,0,0,1,1.08,3.68v8.22c0,1.1,0,2.5,0,3.12l-.08.57a12.65,12.65,0,0,1-.22,1.35,20.35,20.35,0,0,1-2.83,6.77c-.22.38-.45.73-.7,1.1-.5.75-1,1.48-1.64,2.2l-.28.35-1.2,1.4-.32.35-.66.73a2.43,2.43,0,0,1-3,.24s-8-5.82-14.14-9.19a174.68,174.68,0,0,0-168.86,0,170,170,0,0,0-14.55,9.49,2.18,2.18,0,0,1-2.66.15l-.5-.52-.3-.33c-.33-.35-1.19-1.33-1.91-2.16,0,0-1-1.16-1.94-2.53-.25-.35-.5-.73-.72-1.1a22.59,22.59,0,0,1-2.1-4.12l-.13-.3c-.09-.32-.21-.69-.26-.83s-.24-.87-.36-1.3l-.08-.4-.07-.37c-.06-.41-.12-.86-.14-1s-.07-.65-.09-.87,0-1.7,0-2.8v-8.22a8.06,8.06,0,0,1,1.08-3.68s9.66-15.08,24.4-23.25a174.68,174.68,0,0,1,168.86,0C310.32,137.66,320,152.74,320,152.74Z"/><path class="cls-1" d="M110.51,181l-.17-.18-.37-.41-1.33-1.54s-.85-1-1.76-2.31q-.39-.54-.66-1a21.43,21.43,0,0,1-1.94-3.81l-.13-.3-.12-.41a.38.38,0,0,0,0-.13s0-.12-.07-.19l-.08-.31a.61.61,0,0,0,0-.13l-.2-.71-.06-.29-.07-.34c0-.3-.07-.58-.08-.61s0-.1,0-.13a2.07,2.07,0,0,1,0-.23c0-.09,0-.32,0-.33s0-.16,0-.35,0-1.58,0-2.68v-8.22a13.8,13.8,0,0,1,.67-3.88s3.57-10.09,23.77-21.28a172.7,172.7,0,0,1,166.9,0c20.2,11.19,23.77,21.28,23.77,21.28a13.8,13.8,0,0,1,.67,3.88v8.22c0,1.1,0,2.45,0,3l-.05.43a9.82,9.82,0,0,1-.2,1.17,18.35,18.35,0,0,1-2.56,6.14c-.23.38-.44.7-.67,1.05a23.25,23.25,0,0,1-1.52,2l-.28.35-.52.62,0,0-.58.68-.29.31-.25.28c-.28.29-1.24,0-2.14-.62,0,0-7.2-5.06-13-8.27a176.72,176.72,0,0,0-170.82,0c-6,3.29-13.41,8.57-13.41,8.57-.9.63-1.82,1-2.06.71Z"/><path class="cls-7" d="M112,180.83c-.66.36-1.23.5-1.41.31l-.11-.12-.17-.18-.37-.41-.62-.72"/><path class="cls-8" d="M107.6,177.58c-.23-.3-.47-.64-.72-1s-.48-.69-.66-1c-.32-.5-.61-1-.87-1.49"/><path class="cls-7" d="M104.73,172.87c-.16-.37-.31-.73-.45-1.09l-.13-.3-.12-.41a.38.38,0,0,0,0-.13s0-.12-.07-.19l-.08-.31a.61.61,0,0,0,0-.13l-.2-.71-.06-.29-.07-.34c0-.3-.07-.58-.08-.61s0-.1,0-.13a2.07,2.07,0,0,1,0-.23c0-.09,0-.32,0-.33s0-.08,0-.19"/><path class="cls-9" d="M103.26,164.48v-8.06a13.8,13.8,0,0,1,.67-3.88s3.57-10.09,23.77-21.28a172.7,172.7,0,0,1,166.9,0c20.2,11.19,23.77,21.28,23.77,21.28a13.8,13.8,0,0,1,.67,3.88v8.22"/><path class="cls-7" d="M319,166.14c0,.63,0,1.19,0,1.5l-.05.43c0,.37-.1.72-.17,1.06"/><path class="cls-10" d="M317.87,172.16a22.06,22.06,0,0,1-1.67,3.22c-.21.35-.4.65-.61,1"/><path class="cls-7" d="M314.67,177.64l-.66.82-.28.35-.52.62,0,0-.58.68-.29.31-.25.28c-.2.21-.78.12-1.42-.19"/><path class="cls-11" d="M308.14,178.92c-2.49-1.7-7.2-4.83-11.23-7.06a176.72,176.72,0,0,0-170.82,0c-5,2.73-10.93,6.84-12.82,8.15"/><path class="cls-1" d="M209.23,231.56c1.06.31,1.85.7,1.77.85s-.4.73-.7,1.3l-1.49,2.79L198,256.84l-1.28,2.41c-.18.35-.75,1.43-1.27,2.4l-3.25,6.11c-.51,1-1.26,2.6-1.67,3.63l-15.84,40a1.14,1.14,0,0,1-2.08.38L81.48,212a3.59,3.59,0,0,1-.64-3.35l19.7-52.34c.38-1,.7-1,.7.13v8.22c0,1.1,0,2.18,0,2.4s0,.9.06,1l.18,1.24.07.37.08.4.29,1c0,.14.24.77.33,1.09l.13.3a22.59,22.59,0,0,0,2.1,4.12c.22.37.47.75.72,1.1,1,1.37,1.94,2.53,1.94,2.53.72.83,1.51,1.73,1.76,2l1.47,1.54.53.5c10,9.66,26.65,18.81,43.49,26.45,1.4.65,2.82,1.27,4.22,1.9s2.8,1.22,4.19,1.8c6.27,2.69,12.44,5.12,18.14,7.27.82.32,1.65.65,2.47.95,1.05.37,2.08.77,3.08,1.12,1.44.52,2.84,1.05,4.19,1.52.88.33,1.75.63,2.6.9C204,230,209.23,231.56,209.23,231.56Z"/><path class="cls-4" d="M209.23,231.56c1.06.31,1.85.7,1.77.85s-.4.73-.7,1.3l-1.49,2.79L198,256.84l-1.28,2.41c-.18.35-.75,1.43-1.27,2.4l-3.25,6.11c-.51,1-1.26,2.6-1.67,3.63l-15.84,40a1.14,1.14,0,0,1-2.08.38L81.48,212a3.59,3.59,0,0,1-.64-3.35l19.7-52.34c.38-1,.7-1,.7.13v8.22c0,1.1,0,2.18,0,2.4s0,.9.06,1l.18,1.24.07.37.08.4.29,1c0,.14.24.77.33,1.09l.13.3a22.59,22.59,0,0,0,2.1,4.12c.22.37.47.75.72,1.1,1,1.37,1.94,2.53,1.94,2.53.72.83,1.51,1.73,1.76,2l1.47,1.54.53.5c10,9.66,26.65,18.81,43.49,26.45,1.4.65,2.82,1.27,4.22,1.9s2.8,1.22,4.19,1.8c6.27,2.69,12.44,5.12,18.14,7.27.82.32,1.65.65,2.47.95,1.05.37,2.08.77,3.08,1.12,1.44.52,2.84,1.05,4.19,1.52.88.33,1.75.63,2.6.9C204,230,209.23,231.56,209.23,231.56Z"/><path class="cls-1" d="M84.46,211.41a3.62,3.62,0,0,1-.65-3.35l14.24-37.82a8.44,8.44,0,0,1,.72-1.69c0,.09.11.75.18,1.25l.08.38.07.4c.14.5.29,1,.33,1.22s.29.93.41,1.31l.16.39a25.05,25.05,0,0,0,2.31,4.51c.21.36.49.79.8,1.22a35.12,35.12,0,0,0,2.15,2.78c.71.84,1.5,1.74,1.75,2l1.56,1.63.55.53c9,8.62,23.84,17.68,44.21,26.93l1.46.67,2.3,1,1.18.51,2.54,1.11,1,.42c5.44,2.33,11.4,4.73,18.21,7.29.81.32,1.65.65,2.5,1l1.41.52.57.21,1.89.69,2.56.94.86.3c.83.31,1.74.62,2.67.92,6.52,2.3,13,4.39,13,4.39a1.62,1.62,0,0,1,1,2.38l-10.73,20.19-1.88,3.53-4,7.52c-.51,1-1.26,2.6-1.67,3.62l-14.37,36.32a1.15,1.15,0,0,1-2.08.38Z"/><path class="cls-5" d="M98.66,168.73c.07-.15.11-.22.11-.18s.11.75.18,1.25l.08.38.07.4c.14.5.29,1,.33,1.22s.29.93.41,1.31l.16.39c.13.33.26.66.41,1"/><path class="cls-12" d="M101.52,176.7c.25.44.51.88.79,1.31s.49.79.8,1.22a35.12,35.12,0,0,0,2.15,2.78c.51.6,1.06,1.23,1.42,1.64"/><path class="cls-5" d="M107.53,184.56l1,1.08.55.53.53.5"/><path class="cls-13" d="M112,188.73c9.12,7.85,23,16,41.38,24.37l1.46.67,2.3,1,1.18.51,2.54,1.11,1,.42c5.44,2.33,11.4,4.73,18.21,7.29.53.21,1.07.43,1.62.63"/><path class="cls-5" d="M183.11,225.3l.84.31.57.21,1.41.51"/><path class="cls-5" d="M187.56,226.93l1.41.52.86.3.55.2"/><path class="cls-14" d="M193.24,228.93c6.26,2.2,12.25,4.13,12.25,4.13a1.62,1.62,0,0,1,1,2.38l-10.73,20.19-1.88,3.53-4,7.52c-.51,1-1.26,2.6-1.67,3.62l-14.37,36.32a1.15,1.15,0,0,1-2.08.38L84.46,211.41a3.62,3.62,0,0,1-.65-3.35l14.24-37.82,0-.11"/><path class="cls-1" d="M341.46,208.63a3.59,3.59,0,0,1-.64,3.35l-91.13,99.81a1.14,1.14,0,0,1-2.07-.38l-14.81-38.07c-.4-1-.93-2.26-1.19-2.74s-.88-1.67-1.4-2.64l-3.92-7.33c-.51-1-1.36-2.56-1.88-3.53l-11.18-21c-.52-1-1.15-2.16-1.4-2.64l-.58-1.09c-.06-.11,0-.22,0-.24s.64-.21.73-.23l2.27-.71s7.56-2.37,16.58-5.57c1.07-.4,2.2-.78,3.32-1.2l4.7-1.72c.87-.33,1.77-.65,2.67-1l2.4-.93c1.15-.42,2.3-.87,3.47-1.35l1-.37c.8-.3,1.65-.65,2.47-1,1.88-.75,3.77-1.52,5.7-2.32.62-.27,1.25-.52,1.87-.8l.85-.35,3.32-1.45.83-.35c3-1.32,6-2.69,9-4.09,1.27-.63,2.54-1.23,3.82-1.85,5.67-2.77,11.19-5.72,16.31-8.77.62-.37,1.22-.75,1.85-1.12,1.9-1.15,3.72-2.33,5.47-3.5,1.1-.75,2.15-1.5,3.2-2.27.52-.38,1-.78,1.57-1.18a74.65,74.65,0,0,0,7-6c.73-.7,1.43-1.43,2.08-2.15l.32-.35,1.2-1.4.28-.35c.59-.72,1.14-1.45,1.64-2.2.25-.37.48-.72.7-1.1a20.35,20.35,0,0,0,2.83-6.77,12.65,12.65,0,0,0,.22-1.35l.08-.57c0-.62,0-2,0-3.12v-8.22c0-1.1.32-1.16.71-.13Z"/><path class="cls-4" d="M341.46,208.63a3.59,3.59,0,0,1-.64,3.35l-91.13,99.81a1.14,1.14,0,0,1-2.07-.38l-14.81-38.07c-.4-1-.93-2.26-1.19-2.74s-.88-1.67-1.4-2.64l-3.92-7.33c-.51-1-1.36-2.56-1.88-3.53l-11.18-21c-.52-1-1.15-2.16-1.4-2.64l-.58-1.09c-.06-.11,0-.22,0-.24s.64-.21.73-.23l2.27-.71s7.56-2.37,16.58-5.57c1.07-.4,2.2-.78,3.32-1.2l4.7-1.72c.87-.33,1.77-.65,2.67-1l2.4-.93c1.15-.42,2.3-.87,3.47-1.35l1-.37c.8-.3,1.65-.65,2.47-1,1.88-.75,3.77-1.52,5.7-2.32.62-.27,1.25-.52,1.87-.8l.85-.35,3.32-1.45.83-.35c3-1.32,6-2.69,9-4.09,1.27-.63,2.54-1.23,3.82-1.85,5.67-2.77,11.19-5.72,16.31-8.77.62-.37,1.22-.75,1.85-1.12,1.9-1.15,3.72-2.33,5.47-3.5,1.1-.75,2.15-1.5,3.2-2.27.52-.38,1-.78,1.57-1.18a74.65,74.65,0,0,0,7-6c.73-.7,1.43-1.43,2.08-2.15l.32-.35,1.2-1.4.28-.35c.59-.72,1.14-1.45,1.64-2.2.25-.37.48-.72.7-1.1a20.35,20.35,0,0,0,2.83-6.77,12.65,12.65,0,0,0,.22-1.35l.08-.57c0-.62,0-2,0-3.12v-8.22c0-1.1.32-1.16.71-.13Z"/><path class="cls-1" d="M235.16,272.26c-.4-1-.95-2.28-1.22-2.8s-.92-1.73-1.44-2.71l-3.91-7.34-1.89-3.53-10.87-20.44a1.62,1.62,0,0,1,1-2.38s9.24-3,14.93-5l1.52-.54,1.85-.67,2.23-.81,2.51-.93,1.31-.48,1.77-.68,1.45-.55.54-.21c1.12-.42,2.29-.88,3.49-1.36l.9-.36.54-.2,1.56-.62,2.26-.91,3.88-1.59.93-.4,1-.42c.8-.33,1.65-.71,2.51-1.08.52-.21,1-.44,1.56-.67l.89-.39c3-1.32,6-2.7,9.11-4.13l1.93-.94,1.93-.93c5.94-2.9,11.49-5.89,16.5-8.87l.33-.2c.84-.51,2.29-1.4,3.23-2,0,0,1.95-1.21,3.88-2.51,1.09-.74,2.16-1.5,3.29-2.34.51-.36,1.06-.78,1.61-1.19a79.67,79.67,0,0,0,7.28-6.2c.76-.74,1.5-1.51,2.19-2.28.3-.32.65-.69,1-1.11s.65-.77.92-1.11a27.73,27.73,0,0,0,1.76-2.36c.28-.42.52-.8.77-1.21a22.62,22.62,0,0,0,3.14-7.6,13.71,13.71,0,0,0,.26-1.56v-.08a11.57,11.57,0,0,1,.72,1.72l14.23,37.8a3.57,3.57,0,0,1-.65,3.35L250.59,307a1.14,1.14,0,0,1-2.07-.39Z"/><path class="cls-5" d="M243,223.89l1.4-.53.54-.21.86-.33"/><path class="cls-5" d="M248.43,221.77l.86-.34.54-.2,1.4-.56"/><path class="cls-15" d="M254.08,219.52l3.45-1.41.93-.4,1-.42c.8-.33,1.65-.71,2.51-1.08.52-.21,1-.44,1.56-.67l.89-.39c3-1.32,6-2.7,9.11-4.13l1.93-.94,1.94-.93c5-2.47,9.81-5,14.21-7.53"/><path class="cls-5" d="M292.93,200.84l.95-.56.33-.2,1.28-.78"/><path class="cls-16" d="M298.2,197.62c.74-.48,1.94-1.24,3.12-2s2.16-1.5,3.29-2.34c.51-.36,1.06-.78,1.61-1.19a79.67,79.67,0,0,0,7.28-6.2c.76-.74,1.5-1.51,2.19-2.28.3-.32.65-.69,1-1.11s.65-.77.92-1.11a27.73,27.73,0,0,0,1.76-2.36c.28-.42.52-.8.77-1.21a24,24,0,0,0,2.81-6.2"/><path class="cls-5" d="M323.31,170c.09-.44.17-.93.22-1.41v-.08a8.09,8.09,0,0,1,.59,1.37"/><path class="cls-17" d="M325.19,172.72l13.3,35.34a3.57,3.57,0,0,1-.65,3.35L250.59,307a1.14,1.14,0,0,1-2.07-.39l-13.36-34.33c-.4-1-.95-2.28-1.22-2.8s-.92-1.73-1.44-2.71l-3.91-7.34-1.89-3.53-10.87-20.44a1.62,1.62,0,0,1,1-2.38s9.24-3,14.93-5l1.52-.54,1.85-.67,2.23-.81,2.51-.93,1.31-.48.42-.16"/><line class="cls-1" x1="339.5" y1="210.5" x2="371.72" y2="223.05"/><line class="cls-4" x1="339.5" y1="210.5" x2="371.72" y2="223.05"/><line class="cls-1" x1="83.5" y1="210.5" x2="49.82" y2="223.58"/><line class="cls-4" x1="83.5" y1="210.5" x2="49.82" y2="223.58"/><circle cx="210.77" cy="249.12" r="7.08"/><circle cx="172.24" cy="297.4" r="3.45"/><circle cx="250.61" cy="297.4" r="3.45"/></svg>