<svg id="Layer_1" data-name="Layer 1" xmlns="http://www.w3.org/2000/svg" viewBox="0 0 423 520"><defs><style>.cls-1,.cls-3,.cls-4,.cls-8,.cls-9{fill:#fff;}.cls-2,.cls-5,.cls-6,.cls-7{fill:none;}.cls-2,.cls-3,.cls-4,.cls-5,.cls-6,.cls-7{stroke:#000;}.cls-2,.cls-3,.cls-4,.cls-5,.cls-6,.cls-7,.cls-8,.cls-9{stroke-miterlimit:10;}.cls-2,.cls-3{stroke-width:2px;}.cls-4{stroke-dasharray:3;}.cls-5,.cls-6,.cls-7{stroke-width:0.75px;}.cls-6{stroke-dasharray:2.99 2.99;}.cls-7{stroke-dasharray:2.97 2.97;}.cls-8,.cls-9{stroke:#010101;}.cls-8{stroke-width:2.7px;}.cls-9{stroke-dasharray:2.7;}</style></defs><rect class="cls-1" x="192.02" y="232.06" width="38.22" height="55.83"/><path class="cls-1" d="M309.5,189.87v2.24a57.84,57.84,0,0,1-6.84,11c-17,21.81-51.1,36.69-90.37,36.69h0a16.19,16.19,0,0,0-5.37.91c-37-1.29-68.74-15.79-85-36.59a57.9,57.9,0,0,1-7.09-11.55s0,0,0,0c-.24-.52-.47-1-.68-1.57V188c.21.52-.12-.53.12,0,0,0,0-.47,0-.47l.41,0c11.68-26,43.68-38.9,96.46-38.9C256.73,148.61,296.49,169.22,309.5,189.87Z"/><path class="cls-1" d="M372.78,228l-3.66,170.89H54.45L50.88,228.55l59.19-21.41c2.23,7.18,5.42,16.32,8.77,22.07,17,29.35,54.88,37,76.63,38.93,4.88.44,8.95.59,11.79.63h.4c1,0,1.85,0,2.5,0h.38l1.1,0h.29l1.1,0h.4c2.11,0,6.29,0,11.79-.39.92-.07,1.88-.14,2.88-.24,21.74-1.93,59.64-9.58,76.63-38.93,3.45-5.94,6.92-16,9.21-23.37Z"/><polyline class="cls-2" points="50.23 228.33 53.8 227.03 109.42 206.86 112.98 205.56"/><polyline class="cls-2" points="372.13 227.8 368.46 226.42 313.29 205.62 311.11 204.8"/><path class="cls-3" d="M189.91,235.64h0a16.27,16.27,0,0,1,16.28,16.27l1.17,20.87c-.67,0-16.82-.89-17.5-1-38.67-3.93-52-12.06-69-33.87-7.38-9.45-11.55-20.19-11.55-31.59V170.69c0,1,0,1.93.1,2.89a0,0,0,0,0,0,0,48.27,48.27,0,0,0,4.35,17.09s0,0,0,0a58.72,58.72,0,0,0,7.09,11.56C137.84,224.08,149.66,229.67,189.91,235.64Z"/><path class="cls-4" d="M204.2,269.62c-4.77-.25-13.24-.72-14-.79C152,265,139.43,256.88,123.22,236.11c-7.24-9.28-10.91-19.28-10.91-29.75V194.55a62.54,62.54,0,0,0,6.18,9.57c17.36,22.28,30,28.4,71,34.48l.22,0H190a13.29,13.29,0,0,1,13.24,13.27v.17Z"/><path class="cls-3" d="M232.36,235.94h0a16.27,16.27,0,0,0-16.28,16.27l-1.17,20.87c.67,0,16.82-.89,17.5-1,38.67-3.93,52-12.06,69-33.87,7.38-9.45,11.54-20.19,11.54-31.59V171c0,1,0,1.93-.1,2.89a0,0,0,0,1,0,0A47.85,47.85,0,0,1,308.5,191s0,0,0,0a58.67,58.67,0,0,1-7.08,11.56C284.42,224.38,272.6,230,232.36,235.94Z"/><path class="cls-4" d="M219.05,252.3v-.09a13.29,13.29,0,0,1,13.23-13.27h.28l.22,0c41-6.09,53.64-12.21,71-34.49a61.8,61.8,0,0,0,6.18-9.57v11.81c0,10.47-3.67,20.47-10.91,29.74-16.2,20.78-28.75,28.85-67,32.73-.77.07-9.24.54-14,.79Z"/><path class="cls-3" d="M313,169.85a0,0,0,0,1,0,0A48.27,48.27,0,0,1,308.6,187s0,0,0,0l-.18.4c-12.95-20.7-51.6-35.72-97.27-35.72s-84.31,15-97.27,35.72l-.18-.4s0,0,0,0a47.85,47.85,0,0,1-4.35-17.09,0,0,0,0,1,0,0c2.3-27.12,47-48.76,101.81-48.76S310.64,142.73,313,169.85Z"/><path class="cls-1" d="M307.63,181.13c-16.29-19.64-53.94-32.52-96.5-32.52s-80.2,12.88-96.5,32.52a44.69,44.69,0,0,1-2.25-11.23c2.38-25.25,46.59-45.75,98.75-45.75s96.37,20.5,98.75,45.75A44.25,44.25,0,0,1,307.63,181.13Z"/><path class="cls-5" d="M308.09,179.7c-.15.48-.3,1-.46,1.43l-1-1.14"/><path class="cls-6" d="M304.61,177.81c-17.61-17.76-53.37-29.2-93.48-29.2-40.91,0-77.29,11.9-94.51,30.27"/><path class="cls-5" d="M115.61,180l-1,1.14c-.16-.47-.31-.95-.45-1.43"/><path class="cls-7" d="M113.41,176.83a44.24,44.24,0,0,1-1-6.93c2.38-25.25,46.59-45.75,98.75-45.75s96.37,20.5,98.75,45.75a43.67,43.67,0,0,1-1.39,8.37"/><path class="cls-8" d="M194.33,398.69l0-3,.88-119,0-2.75c6.74.6,11.89.63,14.28.6h.39l1.07,0h.29l1.07,0h.37c.63,0,1.45,0,2.43,0h.39c2.77,0,6.73-.18,11.48-.6v.23l0,3,.88,118.49,0,3"/><path class="cls-9" d="M197.35,395.69l.87-118.48c4.34.3,7.86.37,10.22.37,1.32,0,2.19,0,2.5,0h.33c.36,0,1.23,0,2.55,0,2.36,0,5.88-.07,10.22-.37l.87,118.48"/><ellipse cx="211.13" cy="292.96" rx="6.71" ry="6.41"/><rect x="210.44" y="284.25" width="1.39" height="17.84"/><ellipse cx="211.13" cy="376.96" rx="6.71" ry="6.41"/><rect x="210.44" y="368.25" width="1.39" height="17.84"/></svg>