<svg id="Layer_1" data-name="Layer 1" xmlns="http://www.w3.org/2000/svg" viewBox="0 0 423 520"><defs><style>.cls-1,.cls-2,.cls-3,.cls-4{fill:#fff;}.cls-2,.cls-3{stroke:#010101;}.cls-10,.cls-11,.cls-12,.cls-13,.cls-14,.cls-15,.cls-2,.cls-3,.cls-4,.cls-5,.cls-6,.cls-7,.cls-8,.cls-9{stroke-miterlimit:10;}.cls-2{stroke-width:2.7px;}.cls-3{stroke-dasharray:2.7;}.cls-10,.cls-11,.cls-12,.cls-13,.cls-14,.cls-15,.cls-4,.cls-5,.cls-6,.cls-7,.cls-8,.cls-9{stroke:#000;}.cls-4,.cls-9{stroke-width:2px;}.cls-10,.cls-11,.cls-12,.cls-13,.cls-14,.cls-15,.cls-5,.cls-6,.cls-7,.cls-8,.cls-9{fill:none;}.cls-15,.cls-5,.cls-6,.cls-7,.cls-8{stroke-width:0.75px;}.cls-6{stroke-dasharray:3.04 3.04;}.cls-7{stroke-dasharray:3.71 3.71;}.cls-8{stroke-dasharray:2.76 2.76;}.cls-10,.cls-11,.cls-12,.cls-13,.cls-14{stroke-width:0.5px;}.cls-11{stroke-dasharray:2.86 2.86;}.cls-12{stroke-dasharray:3.02 3.02;}.cls-13{stroke-dasharray:3.29 3.29;}.cls-14{stroke-dasharray:2.97 2.97;}.cls-15{stroke-dasharray:3;}</style></defs><rect class="cls-1" x="150.65" y="190.84" width="150.93" height="127.09"/><path class="cls-1" d="M329.93,183v2.24a57.05,57.05,0,0,1-7.53,11.05C303.67,218.12,266.15,233,222.92,233h0a19.49,19.49,0,0,0-5.91.91c-40.7-1.29-75.67-15.79-93.53-36.59a57.43,57.43,0,0,1-7.81-11.55s0,0,0,0c-.26-.52-.52-1.05-.75-1.57v-3.06c.23.52-.13-.52.13,0,0,0,0-.48,0-.48l.46,0c12.85-26,48.07-38.9,106.18-38.9C271.84,141.76,315.61,162.37,329.93,183Z"/><path class="cls-1" d="M384.47,222.72,380.79,393.6H63.92L60.33,223.25l59.6-21.41c2.25,7.18,5.46,16.31,8.83,22.07,17.1,29.34,55.26,37,77.17,38.93,4.91.44,9,.58,11.87.63h.4c1,0,1.86,0,2.52,0h.38l1.11,0h.29l1.11,0h.4c2.13,0,6.34,0,11.87-.39l2.9-.24c21.9-1.93,60.06-9.59,77.17-38.93,3.47-5.95,7-16,9.27-23.37Z"/><path class="cls-2" d="M206.29,380.21l0-3,.88-119,0-2.75c6.74.6,11.89.63,14.28.6.14,0,.27,0,.39,0l1.07,0h.29l1.07,0c.12,0,.24,0,.37,0,.63,0,1.45,0,2.43,0h.39c2.77,0,6.73-.18,11.48-.6v.23l0,3,.88,118.49,0,3"/><path class="cls-3" d="M209.31,377.21l.87-118.48c4.34.3,7.86.37,10.22.37,1.33,0,2.19,0,2.5,0h.34c.35,0,1.22,0,2.54,0,2.36,0,5.88-.07,10.22-.37l.87,118.48"/><ellipse cx="223.09" cy="330.48" rx="6.71" ry="6.41"/><rect x="222.4" y="321.77" width="1.39" height="17.84"/><path class="cls-4" d="M241.75,233.65c-8.46,1.74-17.25,1.89-25.71,3.62-.93-.1-4,1.26-6.74,4.71-3.87,5-2.13,16.25-2,17l38.39-6.23Z"/><path class="cls-1" d="M209.84,256.31c-.52-4.85-.25-10,1.5-12.36a11.12,11.12,0,0,1,4.5-3.79l.19,0,.41-.09c4.09-1,8.4-1.52,12.56-2.08,3.44-.45,7-.92,10.46-1.61l3.17,13.79Z"/><path class="cls-5" d="M211.32,256l-1.48.28c-.05-.5-.1-1-.13-1.5"/><path class="cls-6" d="M209.61,251.77c0-3.26.52-6.2,1.73-7.82a11.12,11.12,0,0,1,4.5-3.79l.19,0,.41-.09c4.09-1,8.4-1.52,12.56-2.08,2.46-.32,5-.66,7.48-1.07"/><path class="cls-5" d="M238,236.68l1.48-.28.34,1.47"/><line class="cls-7" x1="240.63" y1="241.49" x2="241.88" y2="246.91"/><polyline class="cls-5" points="242.3 248.72 242.63 250.19 241.16 250.46"/><line class="cls-8" x1="238.45" y1="250.97" x2="212.67" y2="255.78"/><path class="cls-1" d="M331.88,151a8.06,8.06,0,0,1,1.08,3.68v8.53c0,1.1,0,2.52,0,3.15l-.07.59a13.24,13.24,0,0,1-.23,1.38,20.87,20.87,0,0,1-2.9,6.95c-.23.38-.46.74-.72,1.12a26.54,26.54,0,0,1-1.69,2.26L327,179l-1.23,1.43-.33.36-.71.79a2.46,2.46,0,0,1-3,.24s-8.29-6-14.54-9.46a179.15,179.15,0,0,0-173.16,0,176.52,176.52,0,0,0-15,9.76,2.22,2.22,0,0,1-2.7.13l-.51-.54-.31-.33c-.33-.37-1.2-1.35-1.91-2.19,0,0-1.06-1.22-2-2.63-.26-.36-.51-.74-.74-1.13a22.42,22.42,0,0,1-2.15-4.22l-.13-.31c-.1-.32-.22-.7-.27-.84s-.25-.9-.37-1.34l-.08-.41-.08-.38c0-.42-.12-.88-.14-1s-.07-.67-.09-.89,0-1.72,0-2.82v-8.53a7.94,7.94,0,0,1,1.08-3.68s9.93-15.5,25-23.88a179.15,179.15,0,0,1,173.16,0C322,135.48,331.88,151,331.88,151Z"/><path class="cls-9" d="M331.88,151a8.06,8.06,0,0,1,1.08,3.68v8.53c0,1.1,0,2.52,0,3.15l-.07.59a13.24,13.24,0,0,1-.23,1.38,20.87,20.87,0,0,1-2.9,6.95c-.23.38-.46.74-.72,1.12a26.54,26.54,0,0,1-1.69,2.26L327,179l-1.23,1.43-.33.36-.71.79a2.46,2.46,0,0,1-3,.24s-8.29-6-14.54-9.46a179.15,179.15,0,0,0-173.16,0,176.52,176.52,0,0,0-15,9.76,2.22,2.22,0,0,1-2.7.13l-.51-.54-.31-.33c-.33-.37-1.2-1.35-1.91-2.19,0,0-1.06-1.22-2-2.63-.26-.36-.51-.74-.74-1.13a22.42,22.42,0,0,1-2.15-4.22l-.13-.31c-.1-.32-.22-.7-.27-.84s-.25-.9-.37-1.34l-.08-.41-.08-.38c0-.42-.12-.88-.14-1s-.07-.67-.09-.89,0-1.72,0-2.82v-8.53a7.94,7.94,0,0,1,1.08-3.68s9.93-15.5,25-23.88a179.15,179.15,0,0,1,173.16,0C322,135.48,331.88,151,331.88,151Z"/><path class="cls-1" d="M117.06,179.94l-.18-.19-.38-.41-1.33-1.55a29.72,29.72,0,0,1-1.84-2.41c-.27-.37-.49-.7-.68-1a22.49,22.49,0,0,1-2-3.9l-.12-.31-.13-.42,0-.13s-.05-.13-.07-.2a1.85,1.85,0,0,1-.08-.32s0-.1,0-.13-.11-.36-.21-.73l-.06-.3-.07-.35c0-.31-.08-.59-.08-.63a.51.51,0,0,1,0-.13,1.94,1.94,0,0,1,0-.24l0-.33s0-.17,0-.36,0-1.6,0-2.7v-8.53a13.8,13.8,0,0,1,.67-3.88s3.68-10.39,24.39-21.87a177.08,177.08,0,0,1,171.15,0c20.71,11.48,24.39,21.87,24.39,21.87a14.16,14.16,0,0,1,.67,3.88v8.53c0,1.1,0,2.46,0,3l-.06.44a10.35,10.35,0,0,1-.2,1.2,18.77,18.77,0,0,1-2.63,6.3c-.23.38-.44.72-.68,1.07-.45.67-1,1.35-1.56,2.08l-.29.36-.54.64,0,.05-.6.7-.3.32-.25.28c-.28.3-1.25,0-2.15-.6,0,0-7.42-5.23-13.37-8.51a181.21,181.21,0,0,0-175.16,0c-6.11,3.36-13.8,8.81-13.8,8.81-.89.64-1.82.95-2.06.7Z"/><path class="cls-10" d="M118.58,179.77c-.66.35-1.23.48-1.41.29l-.11-.12-.18-.19-.38-.41-.61-.72"/><path class="cls-11" d="M114.07,176.42c-.23-.31-.49-.66-.74-1s-.49-.7-.68-1c-.33-.52-.63-1-.9-1.55"/><path class="cls-10" d="M111.11,171.54c-.16-.36-.31-.72-.45-1.07l-.12-.31-.13-.42,0-.13s-.05-.13-.07-.2a1.85,1.85,0,0,1-.08-.32s0-.1,0-.13-.11-.36-.21-.73l-.06-.3-.07-.35c0-.31-.08-.59-.08-.63a.51.51,0,0,1,0-.13,1.94,1.94,0,0,1,0-.24l0-.33a1.08,1.08,0,0,1,0-.16"/><path class="cls-12" d="M109.62,163.08v-8.42a13.8,13.8,0,0,1,.67-3.88s3.68-10.39,24.39-21.87a177.08,177.08,0,0,1,171.15,0c20.71,11.48,24.39,21.87,24.39,21.87a14.16,14.16,0,0,1,.67,3.88v8.55"/><path class="cls-10" d="M330.88,164.72c0,.62,0,1.18,0,1.5l-.06.44a10.33,10.33,0,0,1-.16,1"/><path class="cls-13" d="M329.69,170.85a21.9,21.9,0,0,1-1.72,3.31c-.22.36-.42.67-.64,1"/><path class="cls-10" d="M326.38,176.5c-.21.26-.42.54-.65.81l-.29.36-.54.64,0,.05-.6.7-.3.32-.25.28c-.21.22-.78.13-1.42-.18"/><path class="cls-14" d="M319.81,177.85c-2.55-1.74-7.45-5-11.62-7.3a181.21,181.21,0,0,0-175.16,0c-5.1,2.81-11.3,7.07-13.21,8.4"/><path class="cls-1" d="M218.34,231.78c1,.31,1.84.7,1.76.85a13.53,13.53,0,0,1-1.69,1.56L196.9,252.08c-.84.7-2.27,1.8-3.17,2.44l-36.48,25.94a2.43,2.43,0,0,1-3-.27L87.3,211.6a3.42,3.42,0,0,1-.69-3.3l20.23-53.77c.39-1,.71-1,.71.13v8.53c0,1.1,0,2.18,0,2.41s0,.93.06,1.06.13.85.18,1.27l.08.38.08.41c.12.44.26.92.29,1.07s.25.79.35,1.11l.13.31a22.42,22.42,0,0,0,2.15,4.22c.23.39.48.77.74,1.13,1,1.41,2,2.63,2,2.63.71.84,1.51,1.75,1.76,2s.93,1,1.51,1.58l.54.51c10.3,9.91,27.33,19.29,44.6,27.12,1.43.67,2.89,1.31,4.32,2s2.87,1.26,4.31,1.85c6.43,2.76,12.75,5.25,18.59,7.45.85.33,1.7.67,2.54,1,1.08.39,2.13.8,3.15,1.16,1.49.53,2.92,1.07,4.3,1.56.9.33,1.8.64,2.67.92C212.9,230.15,218.34,231.78,218.34,231.78Z"/><path class="cls-9" d="M218.34,231.78c1,.31,1.84.7,1.76.85a13.53,13.53,0,0,1-1.69,1.56L196.9,252.08c-.84.7-2.27,1.8-3.17,2.44l-36.48,25.94a2.43,2.43,0,0,1-3-.27L87.3,211.6a3.42,3.42,0,0,1-.69-3.3l20.23-53.77c.39-1,.71-1,.71.13v8.53c0,1.1,0,2.18,0,2.41s0,.93.06,1.06.13.85.18,1.27l.08.38.08.41c.12.44.26.92.29,1.07s.25.79.35,1.11l.13.31a22.42,22.42,0,0,0,2.15,4.22c.23.39.48.77.74,1.13,1,1.41,2,2.63,2,2.63.71.84,1.51,1.75,1.76,2s.93,1,1.51,1.58l.54.51c10.3,9.91,27.33,19.29,44.6,27.12,1.43.67,2.89,1.31,4.32,2s2.87,1.26,4.31,1.85c6.43,2.76,12.75,5.25,18.59,7.45.85.33,1.7.67,2.54,1,1.08.39,2.13.8,3.15,1.16,1.49.53,2.92,1.07,4.3,1.56.9.33,1.8.64,2.67.92C212.9,230.15,218.34,231.78,218.34,231.78Z"/><path class="cls-1" d="M90.37,211a3.44,3.44,0,0,1-.69-3.31l14.61-38.81a8,8,0,0,1,.73-1.69c0,.1.11.78.18,1.29l.08.39.08.41c.14.51.29,1.07.33,1.24s.3,1,.42,1.34l.17.4a26.05,26.05,0,0,0,2.36,4.64c.22.36.51.8.82,1.24,1.05,1.51,2.24,2.9,2.24,2.9l1.76,2,1.6,1.67.57.54c9.18,8.84,24.44,18.13,45.33,27.62l1.56.71,2.31,1,1.2.53,2.56,1.11,1.09.45c5.57,2.39,11.69,4.85,18.67,7.48.83.33,1.7.67,2.56,1l1.44.53.59.22,1.94.7,2.62,1,.9.32c.84.31,1.77.63,2.72.94,5.85,2.07,12.07,4.09,12.07,4.09,1,.34,1.21,1.19.36,1.9L195.28,250c-.84.7-2.27,1.8-3.16,2.44L157.56,277a2.42,2.42,0,0,1-3-.28Z"/><path class="cls-15" d="M90.37,211a3.44,3.44,0,0,1-.69-3.31l14.61-38.81a8,8,0,0,1,.73-1.69c0,.1.11.78.18,1.29l.08.39.08.41c.14.51.29,1.07.33,1.24s.3,1,.42,1.34l.17.4a26.05,26.05,0,0,0,2.36,4.64c.22.36.51.8.82,1.24,1.05,1.51,2.24,2.9,2.24,2.9l1.76,2,1.6,1.67.57.54c9.18,8.84,24.44,18.13,45.33,27.62l1.56.71,2.31,1,1.2.53,2.56,1.11,1.09.45c5.57,2.39,11.69,4.85,18.67,7.48.83.33,1.7.67,2.56,1l1.44.53.59.22,1.94.7,2.62,1,.9.32c.84.31,1.77.63,2.72.94,5.85,2.07,12.07,4.09,12.07,4.09,1,.34,1.21,1.19.36,1.9L195.28,250c-.84.7-2.27,1.8-3.16,2.44L157.56,277a2.42,2.42,0,0,1-3-.28Z"/><path class="cls-1" d="M353.9,208.3a3.32,3.32,0,0,1-.73,3.27L333.31,231l-2.86,2.8L292,271.3a35.79,35.79,0,0,1-3,2.6l-9.84,7.4a2.61,2.61,0,0,1-3.12-.1l-53-45.32a10.51,10.51,0,0,1-2-2.2l-.59-1.11c-.06-.12-.06-.24,0-.26l.76-.23,2.28-.71s7.8-2.45,17-5.73c1.1-.41,2.26-.79,3.41-1.23,1.56-.56,3.15-1.15,4.82-1.77.89-.33,1.81-.66,2.74-1l2.46-1c1.17-.43,2.35-.9,3.56-1.38l1-.39c.82-.3,1.69-.66,2.54-1,1.92-.76,3.86-1.56,5.84-2.38l1.92-.82.87-.36,3.4-1.48.85-.36c3.07-1.36,6.17-2.77,9.25-4.2l3.92-1.9c5.81-2.84,11.47-5.86,16.72-9l1.9-1.15q2.91-1.77,5.61-3.59c1.12-.76,2.2-1.53,3.28-2.33.53-.38,1.07-.79,1.61-1.2a75.76,75.76,0,0,0,7.22-6.15c.75-.72,1.46-1.46,2.13-2.2l.33-.36L327,179l.28-.36a26.54,26.54,0,0,0,1.69-2.26c.26-.38.49-.74.72-1.12a20.87,20.87,0,0,0,2.9-6.95,13.24,13.24,0,0,0,.23-1.38l.07-.59c0-.63,0-2.05,0-3.15v-8.53c0-1.1.32-1.15.7-.13Z"/><path class="cls-9" d="M353.9,208.3a3.32,3.32,0,0,1-.73,3.27L333.31,231l-2.86,2.8L292,271.3a35.79,35.79,0,0,1-3,2.6l-9.84,7.4a2.61,2.61,0,0,1-3.12-.1l-53-45.32a10.51,10.51,0,0,1-2-2.2l-.59-1.11c-.06-.12-.06-.24,0-.26l.76-.23,2.28-.71s7.8-2.45,17-5.73c1.1-.41,2.26-.79,3.41-1.23,1.56-.56,3.15-1.15,4.82-1.77.89-.33,1.81-.66,2.74-1l2.46-1c1.17-.43,2.35-.9,3.56-1.38l1-.39c.82-.3,1.69-.66,2.54-1,1.92-.76,3.86-1.56,5.84-2.38l1.92-.82.87-.36,3.4-1.48.85-.36c3.07-1.36,6.17-2.77,9.25-4.2l3.92-1.9c5.81-2.84,11.47-5.86,16.72-9l1.9-1.15q2.91-1.77,5.61-3.59c1.12-.76,2.2-1.53,3.28-2.33.53-.38,1.07-.79,1.61-1.2a75.76,75.76,0,0,0,7.22-6.15c.75-.72,1.46-1.46,2.13-2.2l.33-.36L327,179l.28-.36a26.54,26.54,0,0,0,1.69-2.26c.26-.38.49-.74.72-1.12a20.87,20.87,0,0,0,2.9-6.95,13.24,13.24,0,0,0,.23-1.38l.07-.59c0-.63,0-2.05,0-3.15v-8.53c0-1.1.32-1.15.7-.13Z"/><path class="cls-1" d="M226.09,235.08c-.83-.71-.66-1.58.39-1.92,0,0,9.2-3,14.87-5l1.54-.56,1.92-.69,2.33-.85,2.52-.93,1.34-.5,1.83-.69,1.49-.57.54-.21c1.15-.43,2.35-.9,3.58-1.4l.93-.36.55-.21,1.6-.64,2.26-.91,4-1.65,1-.41,1-.43c.82-.34,1.7-.72,2.57-1.11l1.61-.68.91-.4q4.62-2,9.34-4.24l2-1,2-1c6.08-3,11.77-6,16.92-9.09l1.9-1.16c1.88-1.14,3.75-2.33,5.72-3.66,1.11-.75,2.21-1.53,3.38-2.4.53-.37,1.09-.8,1.65-1.22a80.92,80.92,0,0,0,7.46-6.36c.79-.76,1.55-1.55,2.25-2.33.32-.35.67-.72,1-1.15s.67-.79,1-1.14a27.66,27.66,0,0,0,1.81-2.42c.28-.42.53-.81.79-1.23a23.38,23.38,0,0,0,3.22-7.79,14.65,14.65,0,0,0,.26-1.61v-.08a10.38,10.38,0,0,1,.72,1.72l14.59,38.75a3.32,3.32,0,0,1-.73,3.27l-18.62,18.18-2.86,2.79-38.36,37.43a35.79,35.79,0,0,1-3,2.6l-8,6a2.63,2.63,0,0,1-3.12-.1Z"/><path class="cls-15" d="M226.09,235.08c-.83-.71-.66-1.58.39-1.92,0,0,9.2-3,14.87-5l1.54-.56,1.92-.69,2.33-.85,2.52-.93,1.34-.5,1.83-.69,1.49-.57.54-.21c1.15-.43,2.35-.9,3.58-1.4l.93-.36.55-.21,1.6-.64,2.26-.91,4-1.65,1-.41,1-.43c.82-.34,1.7-.72,2.57-1.11l1.61-.68.91-.4q4.62-2,9.34-4.24l2-1,2-1c6.08-3,11.77-6,16.92-9.09l1.9-1.16c1.88-1.14,3.75-2.33,5.72-3.66,1.11-.75,2.21-1.53,3.38-2.4.53-.37,1.09-.8,1.65-1.22a80.92,80.92,0,0,0,7.46-6.36c.79-.76,1.55-1.55,2.25-2.33.32-.35.67-.72,1-1.15s.67-.79,1-1.14a27.66,27.66,0,0,0,1.81-2.42c.28-.42.53-.81.79-1.23a23.38,23.38,0,0,0,3.22-7.79,14.65,14.65,0,0,0,.26-1.61v-.08a10.38,10.38,0,0,1,.72,1.72l14.59,38.75a3.32,3.32,0,0,1-.73,3.27l-18.62,18.18-2.86,2.79-38.36,37.43a35.79,35.79,0,0,1-3,2.6l-8,6a2.63,2.63,0,0,1-3.12-.1Z"/><line class="cls-1" x1="351.87" y1="210.17" x2="384.47" y2="222.72"/><line class="cls-9" x1="351.87" y1="210.17" x2="384.47" y2="222.72"/><line class="cls-1" x1="89.42" y1="211.5" x2="58.94" y2="222.56"/><line class="cls-9" x1="89.42" y1="211.5" x2="58.94" y2="222.56"/><circle cx="218.98" cy="247.13" r="7.26"/></svg>