<svg id="Layer_1" data-name="Layer 1" xmlns="http://www.w3.org/2000/svg" viewBox="0 0 423 520"><defs><style>.cls-1,.cls-2{fill:#fff;}.cls-1,.cls-3,.cls-4{stroke:#000;stroke-miterlimit:10;}.cls-1{stroke-width:3px;}.cls-3,.cls-4{fill:none;}.cls-4{stroke-dasharray:4.02 4.02;}</style></defs><path class="cls-1" d="M370.67,174.18V277.29a65.33,65.33,0,0,1-65.34,65.33H138.67a65.33,65.33,0,0,1-65.34-65.33V174.18"/><path class="cls-2" d="M366.67,174.44V274.78a63.59,63.59,0,0,1-63.58,63.58H140.91a63.59,63.59,0,0,1-63.58-63.58V174.44"/><line class="cls-3" x1="366.67" y1="174.44" x2="366.67" y2="176.44"/><path class="cls-4" d="M366.67,180.46v94.32a63.59,63.59,0,0,1-63.58,63.58H140.91a63.59,63.59,0,0,1-63.58-63.58V178.45"/><line class="cls-3" x1="77.33" y1="176.44" x2="77.33" y2="174.44"/></svg>