<svg id="Layer_1" data-name="Layer 1" xmlns="http://www.w3.org/2000/svg" viewBox="0 0 423 520"><defs><style>.cls-1,.cls-2{fill:#fff;stroke:#000;stroke-miterlimit:10;}.cls-1{stroke-width:2.73px;}.cls-2{stroke-width:0.91px;stroke-dasharray:2.74;}</style></defs><path class="cls-1" d="M369.06,160.81v56.62c0,21.62-18.8,39.15-42,39.15H152.78c-23.18,0-42-17.53-42-39.15V160.81Z"/><path class="cls-2" d="M366.21,163.23V218c0,19.43-17.55,35.23-39.1,35.23H152.78c-21.56,0-39.1-15.8-39.1-35.23V163.23Z"/><ellipse cx="240.23" cy="226.98" rx="15.15" ry="14.69"/><rect x="238.67" y="207.04" width="3.13" height="40.86"/><path class="cls-1" d="M308.06,208.69v56.63c0,21.61-18.8,39.14-42,39.14H91.78c-23.18,0-42-17.53-42-39.14V208.69Z"/><path class="cls-2" d="M305.21,211.12v54.74c0,19.43-17.55,35.24-39.1,35.24H91.78c-21.56,0-39.1-15.81-39.1-35.24V211.12Z"/><ellipse cx="179.23" cy="274.86" rx="15.15" ry="14.69"/><rect x="177.67" y="254.92" width="3.13" height="40.86"/></svg>