<svg id="Layer_1" data-name="Layer 1" xmlns="http://www.w3.org/2000/svg" viewBox="0 0 423 520"><defs><style>.cls-1{fill:#fff;}</style></defs><path d="M345.71,239.76a19.81,19.81,0,0,1-.3,3.44c-2.09,12.1-14.7,23.83-35.51,33-22.86,10.11-52.8,15.67-84.31,15.67s-61.45-5.56-84.31-15.67c-20.81-9.19-33.42-20.91-35.51-33a20.42,20.42,0,0,1-.3-3.47c0-12.38,11.24-24.64,31.69-34.57a51.34,51.34,0,0,0-2.57,16c0,37.37,40.74,67.67,91,67.67s91-30.3,91-67.67a51.34,51.34,0,0,0-2.57-16C334.47,215.12,345.71,227.38,345.71,239.76Z"/><path d="M307.3,191.4a58,58,0,0,1,4,7q2.11.92,4.15,1.89c22.74,10.86,35.26,24.86,35.26,39.43a26,26,0,0,1-.37,4.31c-2.38,13.79-16,26.83-38.42,36.73-23.48,10.37-54.14,16.09-86.33,16.09s-62.85-5.72-86.33-16.09c-22.4-9.9-36-22.94-38.41-36.72a25.13,25.13,0,0,1-.38-4.32c0-14.57,12.52-28.57,35.26-39.43q2-1,4.15-1.89a58,58,0,0,1,4-7c-29.53,11.39-48.41,28.82-48.41,48.36a29.83,29.83,0,0,0,.45,5.17c5.5,31.89,61.45,57,129.67,57s124.17-25.07,129.67-57a29.83,29.83,0,0,0,.45-5.17C355.71,220.22,336.83,202.79,307.3,191.4Z"/><path d="M345.71,239.76a19.81,19.81,0,0,1-.3,3.44c-2.09,12.1-14.7,23.83-35.51,33-22.86,10.11-52.8,15.67-84.31,15.67s-61.45-5.56-84.31-15.67c-20.81-9.19-33.42-20.91-35.51-33a20.42,20.42,0,0,1-.3-3.47c0-12.38,11.24-24.64,31.69-34.57a51.34,51.34,0,0,0-2.57,16c0,37.37,40.74,67.67,91,67.67s91-30.3,91-67.67a51.34,51.34,0,0,0-2.57-16C334.47,215.12,345.71,227.38,345.71,239.76Z"/><path d="M345.71,239.76a19.81,19.81,0,0,1-.3,3.44c-2.09,12.1-14.7,23.83-35.51,33-22.86,10.11-52.8,15.67-84.31,15.67s-61.45-5.56-84.31-15.67c-20.81-9.19-33.42-20.91-35.51-33a20.42,20.42,0,0,1-.3-3.47c0-12.38,11.24-24.64,31.69-34.57a51.34,51.34,0,0,0-2.57,16c0,37.37,40.74,67.67,91,67.67s91-30.3,91-67.67a51.34,51.34,0,0,0-2.57-16C334.47,215.12,345.71,227.38,345.71,239.76Z"/><path d="M355.26,244.93c-5.5,31.89-61.45,57-129.67,57s-124.17-25.07-129.67-57a23.78,23.78,0,0,0-.45,4.61c0,30.66,58.25,128.52,130.12,128.52S355.71,280.2,355.71,249.54A23.78,23.78,0,0,0,355.26,244.93Zm-168.68,110c-1.47,0-2.66-3.4-2.66-7.58s1.19-7.59,2.66-7.59,2.66,3.4,2.66,7.59S188.05,354.89,186.58,354.89Zm85-2.5c-1.47,0-2.66-3.4-2.66-7.58s1.19-7.59,2.66-7.59,2.66,3.4,2.66,7.59S273.05,352.39,271.58,352.39Z"/><path class="cls-1" d="M274.24,344.81c0,4.18-1.19,7.58-2.66,7.58s-2.66-3.4-2.66-7.58,1.19-7.59,2.66-7.59S274.24,340.62,274.24,344.81Z"/><path class="cls-1" d="M189.24,347.31c0,4.18-1.19,7.58-2.66,7.58s-2.66-3.4-2.66-7.58,1.19-7.59,2.66-7.59S189.24,343.12,189.24,347.31Z"/><path class="cls-1" d="M307.57,202.28a52,52,0,0,0-3.58-6.8q-.53-.84-1.08-1.68c-.35-.51-.7-1-1.07-1.52-.23-.33-.47-.65-.71-1-.35-.48-.72-1-1.09-1.43l-.08-.1c-.38-.47-.77-.93-1.16-1.4-15.15-17.88-42.3-29.82-73.21-29.82-29.62,0-55.79,11-71.25,27.62-.68.72-1.33,1.45-2,2.2a57.22,57.22,0,0,0-5.19,7.1,52,52,0,0,0-3.58,6.8,47.1,47.1,0,0,0-4,18.94c0,34.56,38.58,62.67,86,62.67s86-28.11,86-62.67A47.1,47.1,0,0,0,307.57,202.28Zm-82,76.61c-44.66,0-81-25.87-81-57.67a43.34,43.34,0,0,1,5.92-21.64,52.66,52.66,0,0,1,4.7-6.88q1.57-2,3.36-3.82c1.07.63,2.18,1.24,3.33,1.84,2.23,1.16,4.61,2.27,7.11,3.32,16.52,6.92,38.7,11.15,63.08,11.15,21.87,0,42-3.4,57.8-9.1,2.31-.83,4.54-1.71,6.66-2.64a51.72,51.72,0,0,1,4.12,6.13,43.34,43.34,0,0,1,5.92,21.64C306.59,253,270.25,278.89,225.59,278.89Z"/><path d="M306.59,221.22c0,31.8-36.34,57.67-81,57.67s-81-25.87-81-57.67a43.34,43.34,0,0,1,5.92-21.64,52.66,52.66,0,0,1,4.7-6.88q1.57-2,3.36-3.82c1.07.63,2.18,1.24,3.33,1.84,2.23,1.16,4.61,2.27,7.11,3.32,16.52,6.92,38.7,11.15,63.08,11.15,21.87,0,42-3.4,57.8-9.1,2.31-.83,4.54-1.71,6.66-2.64a51.72,51.72,0,0,1,4.12,6.13A43.34,43.34,0,0,1,306.59,221.22Z"/><path d="M314,205.19a54.39,54.39,0,0,0-2.72-6.75,58,58,0,0,0-4-7c-.56-.84-1.14-1.68-1.74-2.5-15.43-21.06-45.45-35.34-80-35.34-31.27,0-58.85,11.72-75.24,29.58a66.34,66.34,0,0,0-6.47,8.26,58,58,0,0,0-4,7,54.39,54.39,0,0,0-2.72,6.75,51.34,51.34,0,0,0-2.57,16c0,37.37,40.74,67.67,91,67.67s91-30.3,91-67.67A51.34,51.34,0,0,0,314,205.19Zm-88.43,78.7c-47.42,0-86-28.11-86-62.67a47.1,47.1,0,0,1,4-18.94,52,52,0,0,1,3.58-6.8,57.22,57.22,0,0,1,5.19-7.1c.63-.75,1.28-1.48,2-2.2,15.46-16.65,41.63-27.62,71.25-27.62,30.91,0,58.06,11.94,73.21,29.82.4.46.78.93,1.16,1.4l.08.1c.38.47.74,1,1.09,1.43.25.32.49.64.71,1,.37.5.72,1,1.07,1.52s.73,1.12,1.08,1.68a52,52,0,0,1,3.58,6.8,47.1,47.1,0,0,1,4,18.94C311.59,255.78,273,283.89,225.59,283.89Z"/><path class="cls-1" d="M350.71,239.76a26,26,0,0,1-.37,4.31c-2.38,13.79-16,26.83-38.42,36.73-23.48,10.37-54.14,16.09-86.33,16.09s-62.85-5.72-86.33-16.09c-22.4-9.9-36-22.94-38.41-36.72a25.13,25.13,0,0,1-.38-4.32c0-14.57,12.52-28.57,35.26-39.43q2-1,4.15-1.89a54.39,54.39,0,0,0-2.72,6.75c-20.45,9.93-31.69,22.19-31.69,34.57a20.42,20.42,0,0,0,.3,3.47c2.09,12.08,14.7,23.8,35.51,33,22.86,10.11,52.8,15.67,84.31,15.67s61.45-5.56,84.31-15.67c20.81-9.19,33.42-20.92,35.51-33a19.81,19.81,0,0,0,.3-3.44c0-12.38-11.24-24.64-31.69-34.57a54.39,54.39,0,0,0-2.72-6.75q2.11.92,4.15,1.89C338.19,211.19,350.71,225.19,350.71,239.76Z"/></svg>