<svg id="Layer_1" data-name="Layer 1" xmlns="http://www.w3.org/2000/svg" viewBox="0 0 423 520"><defs><style>.cls-1{fill:none;}.cls-1,.cls-2,.cls-3{stroke:#010101;stroke-miterlimit:10;}.cls-1,.cls-3{stroke-width:2.7px;}.cls-2,.cls-3{fill:#fff;}.cls-2{stroke-width:0.9px;stroke-dasharray:2.7;}</style></defs><path class="cls-1" d="M356.85,141.89V320.67a39.43,39.43,0,0,1-39.42,39.42H153.72a39.43,39.43,0,0,1-39.42-39.42V141.89Z"/><path class="cls-2" d="M153.72,357.38A36.75,36.75,0,0,1,117,320.67V144.59H354.14V320.67a36.75,36.75,0,0,1-36.71,36.71Z"/><rect class="cls-3" x="114.3" y="95" width="242.55" height="46.89"/><rect class="cls-2" x="117.01" y="97.7" width="237.14" height="41.48"/><path class="cls-1" d="M308.7,195.86V374.64a39.43,39.43,0,0,1-39.42,39.42H105.57a39.43,39.43,0,0,1-39.42-39.42V195.86Z"/><path class="cls-2" d="M105.57,411.36a36.76,36.76,0,0,1-36.71-36.72V198.57H306V374.64a36.76,36.76,0,0,1-36.71,36.72Z"/><rect class="cls-3" x="66.15" y="148.98" width="242.55" height="46.89"/><rect class="cls-2" x="68.86" y="151.68" width="237.14" height="41.48"/></svg>