<svg id="Layer_1" data-name="Layer 1" xmlns="http://www.w3.org/2000/svg" viewBox="0 0 423 520"><defs><style>.cls-1,.cls-2,.cls-3{fill:#fff;}.cls-1,.cls-2,.cls-3,.cls-4{stroke:#010101;stroke-miterlimit:10;}.cls-1{stroke-width:3.07px;}.cls-2{stroke-width:1.22px;stroke-dasharray:2.44;}.cls-3{stroke-width:3.31px;}.cls-4{fill:none;stroke-width:1.86px;}</style></defs><polygon class="cls-1" points="265.62 447.97 229.05 399.79 323.73 339.92 351.83 392.38 265.62 447.97"/><polygon class="cls-2" points="232.6 400.43 322.82 343.39 348.61 391.55 266.19 444.69 232.6 400.43"/><ellipse cx="260.18" cy="416.14" rx="6.26" ry="6.46" transform="translate(-191.73 224.71) rotate(-35.03)"/><rect x="251.47" y="415.47" width="17.42" height="1.33" transform="translate(-191.73 224.71) rotate(-35.03)"/><ellipse cx="276.27" cy="404.67" rx="6.26" ry="6.46" transform="translate(-182.23 231.87) rotate(-35.03)"/><polyline class="cls-3" points="194.21 72.03 322.93 339.11 228.31 398.18 71.17 201.2"/><polygon class="cls-4" points="228.62 399.66 163.94 316.69 169.78 299.17 186.41 300.02 249.21 384.32 228.62 399.66"/><polygon class="cls-2" points="166.67 316.23 171.51 301.71 185.13 302.4 245.78 383.82 229.08 396.27 166.67 316.23"/></svg>