<?xml version="1.0" encoding="utf-8"?>
<!-- Generator: Adobe Illustrator 26.0.1, SVG Export Plug-In . SVG Version: 6.00 Build 0)  -->
<svg version="1.1" id="Layer_1" xmlns="http://www.w3.org/2000/svg" xmlns:xlink="http://www.w3.org/1999/xlink" x="0px" y="0px"
	 viewBox="0 0 612 792" style="enable-background:new 0 0 612 792;" xml:space="preserve">
<style type="text/css">
	.st0{fill:#FFFFFF;stroke:#010101;stroke-width:3;stroke-miterlimit:10;}
	.st1{fill:#FFFFFF;}
	.st2{fill:none;stroke:#010101;stroke-width:2;stroke-miterlimit:10;}
	.st3{fill:none;stroke:#010101;stroke-width:2;stroke-miterlimit:10;stroke-dasharray:3.0544,3.0544;}
	.st4{fill:none;stroke:#010101;stroke-width:2;stroke-miterlimit:10;stroke-dasharray:3.0162,3.0162;}
	.st5{fill:none;stroke:#010101;stroke-width:2;stroke-miterlimit:10;stroke-dasharray:3.0494,3.0494;}
	.st6{fill:none;stroke:#010101;stroke-width:2;stroke-miterlimit:10;stroke-dasharray:2.9563,2.9563;}
	.st7{fill:#010101;}
</style>
<rect x="282.4" y="237.3" class="st0" width="289.9" height="269.4"/>
<g>
	<polyline class="st1" points="563.6,500.1 291.2,500.1 291.2,244 563.6,244 	"/>
	<g>
		<line class="st2" x1="563.6" y1="500.1" x2="560.8" y2="500.1"/>
		<line class="st3" x1="555.1" y1="500.1" x2="296.8" y2="500.1"/>
		<polyline class="st2" points="294,500.1 291.2,500.1 291.2,497.9 		"/>
		<line class="st4" x1="291.2" y1="493.7" x2="291.2" y2="248.2"/>
		<polyline class="st2" points="291.2,246.1 291.2,244 294,244 		"/>
		<line class="st3" x1="299.6" y1="244" x2="558" y2="244"/>
		<line class="st2" x1="560.8" y1="244" x2="563.6" y2="244"/>
	</g>
</g>
<rect x="45.7" y="235.6" class="st0" width="278.1" height="272.7"/>
<g>
	<polyline class="st1" points="54.4,242.3 315.1,242.3 315.1,501.7 54.4,501.7 	"/>
	<g>
		<line class="st2" x1="54.4" y1="242.3" x2="57.2" y2="242.3"/>
		<line class="st5" x1="62.9" y1="242.3" x2="309.4" y2="242.3"/>
		<polyline class="st2" points="312.3,242.3 315.1,242.3 315.1,244.4 		"/>
		<line class="st6" x1="315.1" y1="248.6" x2="315.1" y2="497.5"/>
		<polyline class="st2" points="315.1,499.6 315.1,501.7 312.3,501.7 		"/>
		<line class="st5" x1="306.6" y1="501.7" x2="60" y2="501.7"/>
		<line class="st2" x1="57.2" y1="501.7" x2="54.4" y2="501.7"/>
	</g>
</g>
<g>
	<rect x="229.7" y="308.8" class="st7" width="64.3" height="6.4"/>
	<rect x="229.7" y="427.5" class="st7" width="64.3" height="6.4"/>
	<ellipse class="st7" cx="254.9" cy="429" rx="25.2" ry="26.3"/>
	<ellipse class="st7" cx="254.9" cy="312" rx="25.2" ry="26.3"/>
</g>
</svg>
