<?xml version="1.0" encoding="utf-8"?>
<!-- Generator: Adobe Illustrator 26.0.1, SVG Export Plug-In . SVG Version: 6.00 Build 0)  -->
<svg version="1.1" id="Layer_1" xmlns="http://www.w3.org/2000/svg" xmlns:xlink="http://www.w3.org/1999/xlink" x="0px" y="0px"
	 viewBox="0 0 612 792" style="enable-background:new 0 0 612 792;" xml:space="preserve">
<style type="text/css">
	.st0{fill:#FFFFFF;stroke:#010101;stroke-width:3;stroke-miterlimit:10;}
	.st1{fill:#FFFFFF;}
	.st2{fill:none;stroke:#010101;stroke-width:0.75;stroke-miterlimit:10;}
	.st3{fill:none;stroke:#010101;stroke-width:0.75;stroke-miterlimit:10;stroke-dasharray:3.0544,3.0544;}
	.st4{fill:none;stroke:#010101;stroke-width:0.75;stroke-miterlimit:10;stroke-dasharray:3.0162,3.0162;}
	.st5{fill:none;stroke:#010101;stroke-width:0.75;stroke-miterlimit:10;stroke-dasharray:3.0494,3.0494;}
	.st6{fill:none;stroke:#010101;stroke-width:0.75;stroke-miterlimit:10;stroke-dasharray:2.9563,2.9563;}
	.st7{fill:#010101;}
</style>
<rect x="293.16" y="232.14" class="st0" width="155.96" height="190.36"/>
<g>
	<polyline class="st1" points="444.42,417.8 297.86,417.8 297.86,236.84 444.42,236.84 	"/>
	<g>
		<line class="st2" x1="444.42" y1="417.8" x2="442.92" y2="417.8"/>
		<line class="st3" x1="439.87" y1="417.8" x2="300.89" y2="417.8"/>
		<polyline class="st2" points="299.36,417.8 297.86,417.8 297.86,416.3 		"/>
		<line class="st4" x1="297.86" y1="413.28" x2="297.86" y2="239.85"/>
		<polyline class="st2" points="297.86,238.34 297.86,236.84 299.36,236.84 		"/>
		<line class="st3" x1="302.42" y1="236.84" x2="441.39" y2="236.84"/>
		<line class="st2" x1="442.92" y1="236.84" x2="444.42" y2="236.84"/>
	</g>
</g>
<rect x="165.79" y="230.95" class="st0" width="149.63" height="192.74"/>
<g>
	<polyline class="st1" points="170.5,235.65 310.72,235.65 310.72,418.99 170.5,418.99 	"/>
	<g>
		<line class="st2" x1="170.5" y1="235.65" x2="172" y2="235.65"/>
		<line class="st5" x1="175.05" y1="235.65" x2="307.69" y2="235.65"/>
		<polyline class="st2" points="309.22,235.65 310.72,235.65 310.72,237.15 		"/>
		<line class="st6" x1="310.72" y1="240.11" x2="310.72" y2="416.01"/>
		<polyline class="st2" points="310.72,417.49 310.72,418.99 309.22,418.99 		"/>
		<line class="st5" x1="306.17" y1="418.99" x2="173.52" y2="418.99"/>
		<line class="st2" x1="172" y1="418.99" x2="170.5" y2="418.99"/>
	</g>
</g>
<rect x="264.07" y="373.44" class="st7" width="39.5" height="3.76"/>
<circle class="st7" cx="280.06" cy="375.32" r="15.52"/>
<rect x="262.07" y="277.44" class="st7" width="39.5" height="3.76"/>
<circle class="st7" cx="278.06" cy="279.32" r="15.52"/>
</svg>
