<svg id="Layer_1" data-name="Layer 1" xmlns="http://www.w3.org/2000/svg" viewBox="0 0 612 792"><defs><style>.cls-1,.cls-2{fill:#fff;}.cls-1,.cls-3,.cls-4,.cls-5,.cls-6,.cls-7{stroke:#010101;stroke-miterlimit:10;}.cls-1{stroke-width:3px;}.cls-3,.cls-4,.cls-5,.cls-6,.cls-7{fill:none;stroke-width:0.75px;}.cls-4{stroke-dasharray:3.05 3.05;}.cls-5{stroke-dasharray:3.02 3.02;}.cls-6{stroke-dasharray:3.05 3.05;}.cls-7{stroke-dasharray:2.96 2.96;}.cls-8{fill:#010101;}</style></defs><rect class="cls-1" x="303.61" y="331.86" width="155.96" height="130.23"/><polyline class="cls-2" points="454.87 457.39 308.31 457.39 308.31 336.56 454.87 336.56"/><line class="cls-3" x1="454.87" y1="457.39" x2="453.37" y2="457.39"/><line class="cls-4" x1="450.32" y1="457.39" x2="311.34" y2="457.39"/><polyline class="cls-3" points="309.81 457.39 308.31 457.39 308.31 455.89"/><line class="cls-5" x1="308.31" y1="452.87" x2="308.31" y2="339.57"/><polyline class="cls-3" points="308.31 338.06 308.31 336.56 309.81 336.56"/><line class="cls-4" x1="312.87" y1="336.56" x2="451.84" y2="336.56"/><line class="cls-3" x1="453.37" y1="336.56" x2="454.87" y2="336.56"/><rect class="cls-1" x="176.24" y="330.67" width="149.63" height="132.61"/><polyline class="cls-2" points="180.95 335.37 321.17 335.37 321.17 458.58 180.95 458.58"/><line class="cls-3" x1="180.95" y1="335.37" x2="182.45" y2="335.37"/><line class="cls-6" x1="185.5" y1="335.37" x2="318.14" y2="335.37"/><polyline class="cls-3" points="319.67 335.37 321.17 335.37 321.17 336.87"/><line class="cls-7" x1="321.17" y1="339.83" x2="321.17" y2="455.6"/><polyline class="cls-3" points="321.17 457.08 321.17 458.58 319.67 458.58"/><line class="cls-6" x1="316.62" y1="458.58" x2="183.97" y2="458.58"/><line class="cls-3" x1="182.45" y1="458.58" x2="180.95" y2="458.58"/><rect class="cls-8" x="261.23" y="393.21" width="39.5" height="3.76"/><circle class="cls-8" cx="275.21" cy="395.1" r="15.52"/></svg>