<?xml version="1.0" encoding="utf-8"?>
<!-- Generator: Adobe Illustrator 26.0.1, SVG Export Plug-In . SVG Version: 6.00 Build 0)  -->
<svg version="1.1" id="Layer_1" xmlns="http://www.w3.org/2000/svg" xmlns:xlink="http://www.w3.org/1999/xlink" x="0px" y="0px"
	 viewBox="0 0 612 792" style="enable-background:new 0 0 612 792;" xml:space="preserve">
<style type="text/css">
	.st0{fill:#FFFFFF;stroke:#010101;stroke-width:3;stroke-miterlimit:10;}
	.st1{fill:#FFFFFF;}
	.st2{fill:none;stroke:#010101;stroke-width:2;stroke-miterlimit:10;}
	.st3{fill:none;stroke:#010101;stroke-width:2;stroke-miterlimit:10;stroke-dasharray:3.0168,3.0168;}
	.st4{fill:none;stroke:#010101;stroke-width:2;stroke-miterlimit:10;stroke-dasharray:3.0359,3.0359;}
	.st5{fill:none;stroke:#010101;stroke-width:2;stroke-miterlimit:10;stroke-dasharray:3.0309,3.0309;}
	.st6{fill:none;stroke:#010101;stroke-width:2;stroke-miterlimit:10;stroke-dasharray:3.0261,3.0261;}
	.st7{fill:#010101;}
</style>
<path class="st0" d="M577.5,533.9H345.7c-37.1,0-67.1-22.7-67.1-50.7v-225h298.9L577.5,533.9L577.5,533.9z"/>
<g>
	<path class="st1" d="M568.5,527.1H341.3c-29.6,0-53.7-18.2-53.7-40.6V264.9h280.9"/>
	<g>
		<line class="st2" x1="568.5" y1="527.1" x2="565.6" y2="527.1"/>
		<path class="st3" d="M559.8,527.1H341.3c-29.6,0-53.7-18.2-53.7-40.6V269.3"/>
		<polyline class="st2" points="287.6,267.1 287.6,264.9 290.5,264.9 		"/>
		<line class="st4" x1="296.4" y1="264.9" x2="562.7" y2="264.9"/>
		<line class="st2" x1="565.6" y1="264.9" x2="568.5" y2="264.9"/>
	</g>
</g>
<path class="st0" d="M248.5,535.6h-214V256.4h286.7v224.2C321.2,511,288.7,535.6,248.5,535.6z"/>
<g>
	<path class="st1" d="M43.5,263.2h268.7v221c0,24.6-26.5,44.5-59,44.5H43.5"/>
	<g>
		<line class="st2" x1="43.5" y1="263.2" x2="46.4" y2="263.2"/>
		<line class="st5" x1="52.3" y1="263.2" x2="306.4" y2="263.2"/>
		<polyline class="st2" points="309.4,263.2 312.2,263.2 312.2,265.4 		"/>
		<path class="st6" d="M312.2,269.8v214.4c0,24.6-26.5,44.5-59,44.5H49.3"/>
		<line class="st2" x1="46.4" y1="528.8" x2="43.5" y2="528.8"/>
	</g>
</g>
<g>
	<rect x="226.2" y="330" class="st7" width="64.3" height="6.4"/>
	<rect x="226.2" y="448.7" class="st7" width="64.3" height="6.4"/>
	<ellipse class="st7" cx="251.5" cy="450.2" rx="25.2" ry="26.3"/>
	<ellipse class="st7" cx="251.5" cy="333.2" rx="25.2" ry="26.3"/>
</g>
</svg>
