<svg id="Layer_1" data-name="Layer 1" xmlns="http://www.w3.org/2000/svg" viewBox="0 0 1558.35 216.31"><defs><style>.cls-1,.cls-2{fill:#fff;}.cls-1,.cls-10,.cls-11,.cls-3,.cls-4,.cls-5,.cls-6,.cls-7,.cls-8,.cls-9{stroke:#010101;stroke-miterlimit:10;}.cls-1{stroke-width:3px;}.cls-10,.cls-11,.cls-3,.cls-4,.cls-5,.cls-6,.cls-7,.cls-8,.cls-9{fill:none;stroke-width:0.75px;}.cls-4{stroke-dasharray:3.02 3.02;}.cls-5{stroke-dasharray:3.04 3.04;}.cls-6{stroke-dasharray:3.03 3.03;}.cls-7{stroke-dasharray:3.03 3.03;}.cls-8{stroke-dasharray:3.05 3.05;}.cls-9{stroke-dasharray:3.02 3.02;}.cls-10{stroke-dasharray:3.05 3.05;}.cls-11{stroke-dasharray:2.96 2.96;}.cls-12{fill:#010101;}</style></defs><path class="cls-1" d="M446.82,462.42H326.6a34.81,34.81,0,0,1-34.81-34.81V334.94h155V462.42Z" transform="translate(402.05 -283.55)"/><path class="cls-2" d="M442.15,457.74H324.33a27.9,27.9,0,0,1-27.87-27.87V339.62H442.15" transform="translate(402.05 -283.55)"/><line class="cls-3" x1="844.2" y1="174.19" x2="842.7" y2="174.19"/><path class="cls-4" d="M437.63,457.74H324.33a27.9,27.9,0,0,1-27.87-27.87V342.63" transform="translate(402.05 -283.55)"/><polyline class="cls-3" points="698.51 57.56 698.51 56.06 700.01 56.06"/><line class="cls-5" x1="703.05" y1="56.06" x2="841.18" y2="56.06"/><line class="cls-3" x1="842.7" y1="56.06" x2="844.2" y2="56.06"/><path class="cls-1" d="M276.19,463.6h-111V333.76H313.91v92.12A37.72,37.72,0,0,1,276.19,463.6Z" transform="translate(402.05 -283.55)"/><path class="cls-2" d="M169.85,338.43H309.24v89.91a30.62,30.62,0,0,1-30.59,30.59H169.85" transform="translate(402.05 -283.55)"/><line class="cls-3" x1="571.9" y1="54.87" x2="573.4" y2="54.87"/><line class="cls-6" x1="576.43" y1="54.87" x2="708.27" y2="54.87"/><polyline class="cls-3" points="709.79 54.87 711.29 54.87 711.29 56.37"/><path class="cls-7" d="M309.24,343v85.38a30.62,30.62,0,0,1-30.59,30.59H172.86" transform="translate(402.05 -283.55)"/><line class="cls-3" x1="573.4" y1="175.38" x2="571.9" y2="175.38"/><rect class="cls-1" x="142.89" y="2.69" width="155.96" height="130.23"/><polyline class="cls-2" points="294.15 128.22 147.59 128.22 147.59 7.39 294.15 7.39"/><line class="cls-3" x1="294.15" y1="128.22" x2="292.65" y2="128.22"/><line class="cls-8" x1="289.6" y1="128.22" x2="150.62" y2="128.22"/><polyline class="cls-3" points="149.09 128.22 147.59 128.22 147.59 126.72"/><line class="cls-9" x1="147.59" y1="123.7" x2="147.59" y2="10.4"/><polyline class="cls-3" points="147.59 8.89 147.59 7.39 149.09 7.39"/><line class="cls-8" x1="152.15" y1="7.39" x2="291.12" y2="7.39"/><line class="cls-3" x1="292.65" y1="7.39" x2="294.15" y2="7.39"/><rect class="cls-1" x="15.52" y="1.5" width="149.63" height="132.61"/><polyline class="cls-2" points="20.23 6.2 160.45 6.2 160.45 129.41 20.23 129.41"/><line class="cls-3" x1="20.23" y1="6.2" x2="21.73" y2="6.2"/><line class="cls-10" x1="24.78" y1="6.2" x2="157.42" y2="6.2"/><polyline class="cls-3" points="158.95 6.2 160.45 6.2 160.45 7.7"/><line class="cls-11" x1="160.45" y1="10.66" x2="160.45" y2="126.43"/><polyline class="cls-3" points="160.45 127.92 160.45 129.41 158.95 129.41"/><line class="cls-10" x1="155.9" y1="129.41" x2="23.25" y2="129.41"/><line class="cls-3" x1="21.73" y1="129.41" x2="20.23" y2="129.41"/><rect class="cls-12" x="663.28" y="109.66" width="39.5" height="3.76"/><rect class="cls-12" x="1.54" y="153.79" width="39.5" height="3.76"/><circle class="cls-12" cx="15.52" cy="154.67" r="15.52"/><circle class="cls-12" cx="677.26" cy="111.54" r="15.52"/><rect class="cls-12" x="1285.67" y="198.91" width="39.5" height="3.76"/><circle class="cls-12" cx="1301.65" cy="200.79" r="15.52"/><rect class="cls-12" x="1283.67" y="102.91" width="39.5" height="3.76"/><circle class="cls-12" cx="1299.65" cy="104.79" r="15.52"/><rect class="cls-12" x="1248.5" y="33.35" width="39.5" height="3.76"/><rect class="cls-12" x="1250.5" y="130.35" width="39.5" height="3.76"/><circle class="cls-12" cx="1542.83" cy="123.93" r="15.52"/><circle class="cls-12" cx="1262.49" cy="35.23" r="15.52"/></svg>