<?xml version="1.0" encoding="utf-8"?>
<!-- Generator: Adobe Illustrator 26.0.1, SVG Export Plug-In . SVG Version: 6.00 Build 0)  -->
<svg version="1.1" id="Layer_1" xmlns="http://www.w3.org/2000/svg" xmlns:xlink="http://www.w3.org/1999/xlink" x="0px" y="0px"
	 viewBox="0 0 612 792" style="enable-background:new 0 0 612 792;" xml:space="preserve">
<style type="text/css">
	.st0{fill:#FFFFFF;stroke:#010101;stroke-width:3;stroke-miterlimit:10;}
	.st1{fill:#FFFFFF;}
	.st2{fill:none;stroke:#010101;stroke-width:2;stroke-miterlimit:10;}
	.st3{fill:none;stroke:#010101;stroke-width:2;stroke-miterlimit:10;stroke-dasharray:2.9608,2.9608;}
	.st4{fill:none;stroke:#010101;stroke-width:2;stroke-miterlimit:10;stroke-dasharray:3.0033,3.0033;}
	.st5{fill:none;stroke:#010101;stroke-width:2;stroke-miterlimit:10;stroke-dasharray:2.963,2.963;}
	.st6{fill:none;stroke:#010101;stroke-width:2;stroke-miterlimit:10;stroke-dasharray:2.9458,2.9458;}
	.st7{fill:none;stroke:#010101;stroke-width:2;stroke-miterlimit:10;stroke-dasharray:3.0408,3.0408;}
	.st8{fill:none;stroke:#010101;stroke-width:2;stroke-miterlimit:10;stroke-dasharray:2.9322,2.9322;}
	.st9{fill:#010101;}
</style>
<polygon class="st0" points="581,240.7 581,513.2 333.9,513.2 281.6,474.3 281.6,240.7 "/>
<g>
	<polyline class="st1" points="572,506.5 337.7,506.5 290.6,471.5 290.6,247.4 572,247.4 	"/>
	<g>
		<line class="st2" x1="572" y1="506.5" x2="569" y2="506.5"/>
		<line class="st3" x1="563.1" y1="506.5" x2="343.6" y2="506.5"/>
		<polyline class="st2" points="340.6,506.5 337.7,506.5 335.6,505 		"/>
		<polyline class="st4" points="331.4,501.8 290.6,471.5 290.6,251.8 		"/>
		<polyline class="st2" points="290.6,249.6 290.6,247.4 293.6,247.4 		"/>
		<line class="st5" x1="299.5" y1="247.4" x2="566.1" y2="247.4"/>
		<line class="st2" x1="569" y1="247.4" x2="572" y2="247.4"/>
	</g>
</g>
<polygon class="st0" points="38,239.2 38,514.9 271.3,514.9 324.1,475.5 324.1,239.2 "/>
<g>
	<polyline class="st1" points="47,245.9 315.1,245.9 315.1,472.7 267.5,508.2 47,508.2 	"/>
	<g>
		<line class="st2" x1="47" y1="245.9" x2="50" y2="245.9"/>
		<line class="st6" x1="55.8" y1="245.9" x2="309.2" y2="245.9"/>
		<polyline class="st2" points="312.1,245.9 315.1,245.9 315.1,248.1 		"/>
		<polyline class="st7" points="315.1,252.6 315.1,472.7 271.7,505.1 		"/>
		<polyline class="st2" points="269.6,506.6 267.5,508.2 264.5,508.2 		"/>
		<line class="st8" x1="258.8" y1="508.2" x2="52.9" y2="508.2"/>
		<line class="st2" x1="50" y1="508.2" x2="47" y2="508.2"/>
	</g>
</g>
<g>
	<rect x="226.6" y="305.6" class="st9" width="64.3" height="6.4"/>
	<rect x="226.6" y="424.3" class="st9" width="64.3" height="6.4"/>
	<ellipse class="st9" cx="251.9" cy="425.8" rx="25.2" ry="26.3"/>
	<ellipse class="st9" cx="251.9" cy="308.8" rx="25.2" ry="26.3"/>
</g>
</svg>
