<?xml version="1.0" encoding="utf-8"?>
<!-- Generator: Adobe Illustrator 26.0.1, SVG Export Plug-In . SVG Version: 6.00 Build 0)  -->
<svg version="1.1" id="Layer_1" xmlns="http://www.w3.org/2000/svg" xmlns:xlink="http://www.w3.org/1999/xlink" x="0px" y="0px"
	 viewBox="0 0 612 792" style="enable-background:new 0 0 612 792;" xml:space="preserve">
<style type="text/css">
	.st0{fill:#FFFFFF;stroke:#010101;stroke-width:4;stroke-miterlimit:10;}
	.st1{fill:#FFFFFF;}
	.st2{fill:none;stroke:#010101;stroke-width:0.75;stroke-miterlimit:10;}
	.st3{fill:none;stroke:#010101;stroke-width:2;stroke-miterlimit:10;stroke-dasharray:2.96,2.96;}
	.st4{fill:none;stroke:#010101;stroke-width:2;stroke-miterlimit:10;stroke-dasharray:3,3;}
	.st5{fill:none;stroke:#010101;stroke-width:2;stroke-miterlimit:10;stroke-dasharray:2.95,2.95;}
	.st6{fill:none;stroke:#010101;stroke-width:2;stroke-miterlimit:10;stroke-dasharray:3.04,3.04;}
	.st7{fill:none;stroke:#010101;stroke-width:2;stroke-miterlimit:10;stroke-dasharray:2.93,2.93;}
	.st8{fill:#010101;}
</style>
<polygon class="st0" points="571.2,268.7 571.2,523.1 331.5,523.1 280.7,472.3 280.7,268.7 "/>
<polyline class="st1" points="562.4,514.3 335.1,514.3 289.4,468.7 289.4,277.4 562.4,277.4 "/>
<line class="st2" x1="562.4" y1="514.3" x2="559.5" y2="514.3"/>
<line class="st3" x1="553.9" y1="514.3" x2="340.8" y2="514.3"/>
<polyline class="st2" points="338,514.3 335.1,514.3 333.1,512.3 "/>
<polyline class="st4" points="329,508.2 289.4,468.7 289.4,283.2 "/>
<polyline class="st2" points="289.4,280.3 289.4,277.4 292.3,277.4 "/>
<line class="st3" x1="298" y1="277.4" x2="556.7" y2="277.4"/>
<line class="st2" x1="559.5" y1="277.4" x2="562.4" y2="277.4"/>
<polygon class="st0" points="44.3,266.7 44.3,525.3 270.6,525.3 322,473.8 322,266.7 "/>
<polyline class="st1" points="53.1,275.4 313.2,275.4 313.2,470.2 267,516.6 53.1,516.6 "/>
<line class="st2" x1="53.1" y1="275.4" x2="56" y2="275.4"/>
<line class="st5" x1="61.6" y1="275.4" x2="307.5" y2="275.4"/>
<polyline class="st2" points="310.3,275.4 313.2,275.4 313.2,278.3 "/>
<polyline class="st6" points="313.2,284.1 313.2,470.2 271.1,512.5 "/>
<polyline class="st2" points="269.1,514.5 267,516.6 264.1,516.6 "/>
<line class="st7" x1="258.5" y1="516.6" x2="58.8" y2="516.6"/>
<line class="st2" x1="56" y1="516.6" x2="53.1" y2="516.6"/>
<rect x="222.1" y="392.1" class="st8" width="75.8" height="7.2"/>
<circle class="st8" cx="248.9" cy="395.7" r="29.8"/>
</svg>
