<?xml version="1.0" encoding="utf-8"?>
<!-- Generator: Adobe Illustrator 26.0.1, SVG Export Plug-In . SVG Version: 6.00 Build 0)  -->
<svg version="1.1" id="Layer_1" xmlns="http://www.w3.org/2000/svg" xmlns:xlink="http://www.w3.org/1999/xlink" x="0px" y="0px"
	 viewBox="0 0 423 520" style="enable-background:new 0 0 423 520;" xml:space="preserve">
<style type="text/css">
	.st0{fill:#FFFFFF;stroke:#010101;stroke-width:3;stroke-miterlimit:10;}
	.st1{fill:#FFFFFF;}
	.st2{fill:none;stroke:#010101;stroke-width:0.75;stroke-miterlimit:10;}
	.st3{fill:none;stroke:#010101;stroke-width:0.75;stroke-miterlimit:10;stroke-dasharray:3.02,3.02;}
	.st4{fill:none;stroke:#010101;stroke-width:0.75;stroke-miterlimit:10;stroke-dasharray:3.04,3.04;}
	.st5{fill:none;stroke:#010101;stroke-width:0.75;stroke-miterlimit:10;stroke-dasharray:3.03,3.03;}
	.st6{fill:#010101;}
</style>
<g>
	<path class="st0" d="M393.7,341.6h-154c-24.6,0-44.6-20-44.6-44.6c0,0,0,0,0,0V178.4h198.5L393.7,341.6L393.7,341.6z"/>
	<path class="st1" d="M387.7,335.6H236.8c-19.7,0-35.7-16-35.7-35.7V184.4h186.6"/>
	<line class="st2" x1="387.7" y1="335.6" x2="385.8" y2="335.6"/>
	<path class="st3" d="M381.9,335.6H236.8c-19.7,0-35.7-16-35.7-35.7V188.2"/>
	<polyline class="st2" points="201.1,186.3 201.1,184.3 203.1,184.3 	"/>
	<line class="st4" x1="206.9" y1="184.3" x2="383.9" y2="184.3"/>
	<line class="st2" x1="385.8" y1="184.3" x2="387.7" y2="184.3"/>
	<path class="st0" d="M175.2,343.1H33V176.9h190.5v118C223.5,321.5,201.9,343.1,175.2,343.1L175.2,343.1L175.2,343.1z"/>
	<path class="st1" d="M39,182.8h178.5V298c0,21.6-17.6,39.2-39.2,39.2H39"/>
	<line class="st2" x1="39" y1="182.8" x2="40.9" y2="182.8"/>
	<line class="st5" x1="44.8" y1="182.8" x2="213.6" y2="182.8"/>
	<polyline class="st2" points="215.6,182.8 217.5,182.8 217.5,184.7 	"/>
	<path class="st5" d="M217.5,188.7V298c0,21.6-17.5,39.2-39.2,39.2H42.8"/>
	<line class="st2" x1="40.9" y1="337.2" x2="39" y2="337.2"/>
	<rect x="156" y="253" class="st6" width="50.6" height="4.8"/>
	<circle class="st6" cx="173.9" cy="255.4" r="19.9"/>
</g>
</svg>
