<?xml version="1.0" encoding="utf-8"?>
<!-- Generator: Adobe Illustrator 26.0.1, SVG Export Plug-In . SVG Version: 6.00 Build 0)  -->
<svg version="1.1" id="Layer_1" xmlns="http://www.w3.org/2000/svg" xmlns:xlink="http://www.w3.org/1999/xlink" x="0px" y="0px"
	 viewBox="0 0 612 792" style="enable-background:new 0 0 612 792;" xml:space="preserve">
<style type="text/css">
	.st0{fill:#FFFFFF;stroke:#010101;stroke-width:3;stroke-miterlimit:10;}
	.st1{fill:#FFFFFF;}
	.st2{fill:none;stroke:#010101;stroke-width:0.75;stroke-miterlimit:10;}
	.st3{fill:none;stroke:#010101;stroke-width:0.75;stroke-miterlimit:10;stroke-dasharray:3.0168,3.0168;}
	.st4{fill:none;stroke:#010101;stroke-width:0.75;stroke-miterlimit:10;stroke-dasharray:3.0359,3.0359;}
	.st5{fill:none;stroke:#010101;stroke-width:0.75;stroke-miterlimit:10;stroke-dasharray:3.0309,3.0309;}
	.st6{fill:none;stroke:#010101;stroke-width:0.75;stroke-miterlimit:10;stroke-dasharray:3.0261,3.0261;}
	.st7{fill:#010101;}
</style>
<path class="st0" d="M418.98,440.48H298.76c-19.23,0-34.81-15.59-34.81-34.81V251.1h155.04V440.48z"/>
<g>
	<path class="st1" d="M414.31,435.8H296.49c-15.37,0-27.87-12.5-27.87-27.87V255.78h145.69"/>
	<g>
		<line class="st2" x1="414.31" y1="435.8" x2="412.81" y2="435.8"/>
		<path class="st3" d="M409.79,435.8h-113.3c-15.37,0-27.87-12.5-27.87-27.87V258.79"/>
		<polyline class="st2" points="268.62,257.28 268.62,255.78 270.12,255.78 		"/>
		<line class="st4" x1="273.16" y1="255.78" x2="411.29" y2="255.78"/>
		<line class="st2" x1="412.81" y1="255.78" x2="414.31" y2="255.78"/>
	</g>
</g>
<path class="st0" d="M248.35,441.66H137.33V249.92h148.74v154.02C286.07,424.77,269.19,441.66,248.35,441.66z"/>
<g>
	<path class="st1" d="M142.01,254.59H281.4V406.4c0,16.87-13.72,30.59-30.59,30.59h-108.8"/>
	<g>
		<line class="st2" x1="142.01" y1="254.59" x2="143.51" y2="254.59"/>
		<line class="st5" x1="146.54" y1="254.59" x2="278.38" y2="254.59"/>
		<polyline class="st2" points="279.9,254.59 281.4,254.59 281.4,256.09 		"/>
		<path class="st6" d="M281.4,259.12V406.4c0,16.87-13.72,30.59-30.59,30.59H145.02"/>
		<line class="st2" x1="143.51" y1="436.99" x2="142.01" y2="436.99"/>
	</g>
</g>
<g>
	<rect x="228.86" y="295.91" class="st7" width="39.5" height="3.76"/>
	<rect x="230.86" y="392.91" class="st7" width="39.5" height="3.76"/>
	<circle class="st7" cx="244.85" cy="393.79" r="15.52"/>
	<circle class="st7" cx="242.85" cy="297.79" r="15.52"/>
</g>
</svg>
