<svg id="Layer_1" data-name="Layer 1" xmlns="http://www.w3.org/2000/svg" viewBox="0 0 612 792"><defs><style>.cls-1,.cls-2{fill:#fff;}.cls-1,.cls-3,.cls-4,.cls-5,.cls-6,.cls-7,.cls-8,.cls-9{stroke:#010101;stroke-miterlimit:10;}.cls-1{stroke-width:3px;}.cls-3,.cls-4,.cls-5,.cls-6,.cls-7,.cls-8,.cls-9{fill:none;stroke-width:0.75px;}.cls-4{stroke-dasharray:2.96 2.96;}.cls-5{stroke-dasharray:3 3;}.cls-6{stroke-dasharray:2.96 2.96;}.cls-7{stroke-dasharray:2.95 2.95;}.cls-8{stroke-dasharray:3.04 3.04;}.cls-9{stroke-dasharray:2.93 2.93;}.cls-10{fill:#010101;}</style></defs><polygon class="cls-1" points="443.16 328.88 443.16 461.49 318.23 461.49 291.77 435.02 291.77 328.88 443.16 328.88"/><polyline class="cls-2" points="438.59 456.93 320.12 456.93 296.33 433.13 296.33 333.45 438.59 333.45"/><line class="cls-3" x1="438.59" y1="456.93" x2="437.09" y2="456.93"/><line class="cls-4" x1="434.13" y1="456.93" x2="323.1" y2="456.93"/><polyline class="cls-3" points="321.62 456.93 320.12 456.93 319.06 455.87"/><polyline class="cls-5" points="316.94 453.74 296.33 433.13 296.33 336.45"/><polyline class="cls-3" points="296.33 334.95 296.33 333.45 297.83 333.45"/><line class="cls-6" x1="300.79" y1="333.45" x2="435.61" y2="333.45"/><line class="cls-3" x1="437.09" y1="333.45" x2="438.59" y2="333.45"/><polygon class="cls-1" points="168.58 327.85 168.58 462.65 286.53 462.65 313.27 435.82 313.27 327.85 168.58 327.85"/><polyline class="cls-2" points="173.15 332.41 308.71 332.41 308.71 433.93 284.64 458.09 173.15 458.09"/><line class="cls-3" x1="173.15" y1="332.41" x2="174.65" y2="332.41"/><line class="cls-7" x1="177.59" y1="332.41" x2="305.74" y2="332.41"/><polyline class="cls-3" points="307.21 332.41 308.71 332.41 308.71 333.91"/><polyline class="cls-8" points="308.71 336.95 308.71 433.93 286.77 455.95"/><polyline class="cls-3" points="285.7 457.02 284.64 458.09 283.14 458.09"/><line class="cls-9" x1="280.21" y1="458.09" x2="176.11" y2="458.09"/><line class="cls-3" x1="174.65" y1="458.09" x2="173.15" y2="458.09"/><rect class="cls-10" x="261.23" y="393.21" width="39.5" height="3.76"/><circle class="cls-10" cx="275.21" cy="395.1" r="15.52"/></svg>