<svg id="Layer_1" data-name="Layer 1" xmlns="http://www.w3.org/2000/svg" viewBox="0 0 423 520"><defs><style>.cls-1,.cls-2,.cls-3,.cls-4{fill:#fff;stroke:#000;stroke-linejoin:round;}.cls-1,.cls-2{stroke-linecap:round;}.cls-1{stroke-width:2.86px;}.cls-2{stroke-width:2.24px;}.cls-3{stroke-width:1.08px;}.cls-4{stroke-width:1px;}</style></defs><path class="cls-1" d="M316.07,111.69c1,.72,1,3.19,1.12,6.91a35.31,35.31,0,0,1-.37,6.25c-2.18,13.53-.65,37.53-2.89,65.05A25.93,25.93,0,0,0,316,203.52a24.32,24.32,0,0,0,6.62,8.4c-3.35,1.8-9.07,4.21-15.11,2.8-20.55-4.78-34.72-51.27-18.95-79.88C296.69,120.05,313.13,109.49,316.07,111.69Z"/><path class="cls-1" d="M106,111.69c-1,.72-1,3.19-1.12,6.91a35.31,35.31,0,0,0,.37,6.25c2.18,13.53.65,37.53,2.89,65.05a25.93,25.93,0,0,1-2,13.62,24.32,24.32,0,0,1-6.62,8.4c3.35,1.8,9.07,4.21,15.11,2.8,20.55-4.78,34.72-51.27,19-79.88C125.4,120.05,109,109.49,106,111.69Z"/><path class="cls-2" d="M260.53,91.07a11.61,11.61,0,0,1-5-3.73c-1.63-2.19-2.36-5-3.49-9.38-.59-2.29-.74-3.36-1.74-4.53A7.81,7.81,0,0,0,245.66,71a18.58,18.58,0,0,1-.13,6.4,17.56,17.56,0,0,1-2.67,6.48c-2.44,3.51-5.79,4.87-10.13,6.63-4,1.63-7.11,2.17-12.53,4.48a15.32,15.32,0,0,0-3.85,2.29,13.17,13.17,0,0,0-3.54,4.15c-1.33,2.53-1.41,4.89-1.51,7.7-.07,1.93-.1,2.9.14,3.4,2.23,4.75,20.33.27,22.71-.32,11.41-2.83,22.77-5.65,25.78-14.42A14.7,14.7,0,0,0,260.53,91.07Z"/><path class="cls-1" d="M161.46,91.07a11.48,11.48,0,0,0,5-3.73c1.64-2.19,2.37-5,3.49-9.38.6-2.29.75-3.36,1.75-4.53A7.81,7.81,0,0,1,176.34,71a18.63,18.63,0,0,0,.14,6.4,17.66,17.66,0,0,0,2.66,6.48c2.45,3.51,5.8,4.87,10.15,6.63,4,1.63,7.11,2.17,12.54,4.48a15.32,15.32,0,0,1,3.85,2.29,13.17,13.17,0,0,1,3.54,4.15c1.34,2.53,1.42,4.89,1.52,7.7.06,1.93.1,2.9-.14,3.4-2.24,4.75-20.35.27-22.73-.32-11.43-2.83-22.8-5.65-25.81-14.42A14.84,14.84,0,0,1,161.46,91.07Z"/><path class="cls-1" d="M200.74,110.39c-4-.82-5.83-.74-10-2a48.07,48.07,0,0,1-9.95-4.36c-4-2.32-9.15-5.27-12.82-11.2a26,26,0,0,1-2.11-4.23L106,111a118.58,118.58,0,0,1,6,17.54c2.31,9.06,2.88,15.7,3.85,28,1.38,17.28.57,24.35.13,27.5-1.25,9-3.14,12.89-4.48,15.18a33.72,33.72,0,0,1-12.19,12c1.9,9.68,4.17,23,5.84,38.94a494.58,494.58,0,0,1,2,67.82c-.53,15.24-1.52,25.71-3.48,46-1.74,18-4.41,42.31-8.59,71.3,2.71,1,6.74,2.42,11.7,3.85,11.31,3.29,23.59,5.57,48.78,7,13,.73,22.55,2.14,41.94,1.66,3.33-17.58,7.25-34.57,8-51.76,4-93.42,6.12-187.49,8.92-280.88A57.71,57.71,0,0,0,200.74,110.39Z"/><path class="cls-1" d="M169,124.79c9.39-2.64,48.47-13.87,53.89-14.9,8.21-1.56,16.3-3.1,23.89-9.46a38.66,38.66,0,0,0,9.58-12.19l60,23.14a199.48,199.48,0,0,0-9.45,41.07c-1.08,9-.89,15.3-.5,27.87.07,2.19.49,13.17,5.1,20.9a28.07,28.07,0,0,0,3.24,4.36,26.14,26.14,0,0,0,8.83,6.22c-2,9.81-4.32,23.43-6,39.82-2.42,24-2.16,42.36-1.87,58.6A508.37,508.37,0,0,0,319.2,367c1.72,14.09,4.13,28.37,7.83,60.11.38,3.17.67,5.8.88,7.59-4.49,1.46-10.93,3.43-18.79,5.35-18.37,4.47-32.41,5.69-49.28,7.09-19.56,1.62-19.81.62-32.4.73-5.76.05-10.56,0-13.94,0C213.51,445.66,187.89,227.34,169,124.79Z"/><polygon class="cls-3" points="240.19 330.15 299.69 327.42 299.69 332.34 240.19 335.07 240.19 330.15"/><polygon class="cls-3" points="182.19 330.9 122.69 328.16 122.69 333.08 182.19 335.82 182.19 330.9"/><polygon class="cls-4" points="282.95 186.49 242.59 186.49 245.59 175.72 285.84 175.72 282.95 186.49"/><circle cx="177.61" cy="130.38" r="4.57"/><circle cx="185.11" cy="180.79" r="4.57"/><circle cx="192.61" cy="231.19" r="4.57"/><circle cx="200.11" cy="281.59" r="4.57"/><circle cx="207.61" cy="331.99" r="4.57"/></svg>