<?xml version="1.0" encoding="utf-8"?>
<!-- Generator: Adobe Illustrator 26.0.1, SVG Export Plug-In . SVG Version: 6.00 Build 0)  -->
<svg version="1.1" xmlns="http://www.w3.org/2000/svg" xmlns:xlink="http://www.w3.org/1999/xlink" x="0px" y="0px"
	 viewBox="0 0 423 520" style="enable-background:new 0 0 423 520;" xml:space="preserve">
<style type="text/css">
	.st0{fill:#FFFFFF;stroke:#000000;stroke-width:2.8552;stroke-linecap:round;stroke-linejoin:round;stroke-miterlimit:10;}
	.st1{fill:#FFFFFF;stroke:#000000;stroke-width:2.2398;stroke-linecap:round;stroke-linejoin:round;stroke-miterlimit:10;}
	.st2{fill:#FFFFFF;stroke:#000000;stroke-width:1.5;stroke-linejoin:round;stroke-miterlimit:10;}
	.st3{fill:#FFFFFF;stroke:#000000;stroke-width:1.1823;stroke-linejoin:round;stroke-miterlimit:10;}
	.st4{fill:#FFFFFF;stroke:#000000;stroke-width:1.1412;stroke-linejoin:round;stroke-miterlimit:10;}
	.st5{fill:#FFFFFF;stroke:#000000;stroke-width:2.86;stroke-linecap:round;stroke-linejoin:round;}
	.st6{fill:#FFFFFF;stroke:#000000;stroke-width:3.0477;stroke-linecap:round;stroke-linejoin:round;}
	.st7{fill:#FFFFFF;stroke:#000000;stroke-width:1.0826;stroke-linejoin:round;stroke-miterlimit:10;}
	.st8{fill:#FFFFFF;stroke:#000000;stroke-width:1.0217;stroke-linejoin:round;stroke-miterlimit:10;}
</style>
<g id="Layer_1">
	<path class="st5" d="M106,114.1c-1,0.7-1,3.2-1.1,6.9c-0.1,2.1,0.1,4.2,0.4,6.2c2.2,13.5,0.7,37.5,2.9,65.1c0.6,4.6-0.1,9.3-2,13.6
		c-1.6,3.3-3.8,6.1-6.6,8.4c3.3,1.8,9.1,4.2,15.1,2.8c20.6-4.8,34.7-51.3,19-79.9C125.4,122.4,109,111.9,106,114.1z"/>
	<path class="st5" d="M199.4,239.5c-0.4,66.6-0.1,116.6-0.4,183.2c0,1.9-0.1,20.3-0.1,26.7c-0.3,0-0.7,0-1,0
		c-16.6,0.2-30.8-0.2-42.3-0.9c-25.2-1.4-37.5-3.7-48.8-7c-5-1.4-9-2.8-11.7-3.8c4.2-29,6.8-53.3,8.6-71.3c2-20.3,3-30.8,3.5-46
		c0.9-22.6,0.2-45.3-2-67.8c-1.7-15.9-3.9-29.3-5.8-38.9c1-0.6,2-1.2,2.9-1.9h0c3.7-2.7,6.9-6.1,9.3-10.1c1.3-2.3,3.2-6.2,4.5-15.2
		c0.4-3.1,1.2-10.2-0.1-27.5c-1-12.3-1.5-18.9-3.8-28c-1.5-5.8-3.4-11.5-5.8-17c-0.1-0.2-0.1-0.4-0.2-0.6l58.1-21.7l-6.2,22.9
		l17.8,8.2l-14.5,12.6l37.4,66.6l1,1.3v0l7.8,10.3c-3.5,11.5-6.5,20.8-8,24.9"/>
	<path class="st5" d="M207.4,182.7c1.5,5.2,3.1,10.3,4.6,15.3v0l0,1.2c-1.5,5.1-3,10-4.4,14.6l-7.8-10.3v0l-1-1.3l-37.4-66.6
		l14.5-12.6l-17.8-8.2l6.2-22.9l1.8-0.7c0.6,1.5,1.3,2.9,2.1,4.2c3.7,5.9,8.8,8.9,12.8,11.2c2.9,1.7,5.9,3,9.1,4.1
		c0.3,0.1,0.6,0.2,0.9,0.3c0.4,0.1,0.7,0.2,1,0.3"/>
	<path class="st5" d="M327.9,437.1c-4.5,1.5-10.9,3.4-18.8,5.3c-18.4,4.5-32.4,5.7-49.3,7.1c-19.6,1.6-35.4,1.8-48,1.9h-13.9v-2
		c0.3,0,0.7,0,1,0c0-6.4,0.1-24.8,0.1-26.7c0.3-66.6,0.1-116.6,0.4-183.2l1.3-1.7l10.4-13.7l2.1-2.8l4.2-5.5l45.2-75.3l-14.5-12.6
		l17.8-8.2l-7.6-28.2l58.1,22.4c0,0.2-0.1,0.3-0.2,0.4c-4.5,13.2-7.6,26.8-9.3,40.6c-1.1,9-0.9,15.3-0.5,27.9
		c0.1,2.2,0.5,13.2,5.1,20.9c0.9,1.5,2,3,3.2,4.4c1.8,2,4,3.7,6.3,5c0,0,0,0,0,0c0,0,0,0,0,0c0,0,0,0,0,0c0.8,0.4,1.6,0.8,2.5,1.2
		c-2,9.8-4.3,23.4-6,39.8c-2.4,24-2.2,42.4-1.9,58.6c0.1,19,1.3,37.9,3.5,56.8c1.7,14.1,4.1,28.4,7.8,60.1
		C327.4,432.7,327.7,435.3,327.9,437.1z"/>
	<path class="st5" d="M248.1,127.8l-15.5-13.5l2.6-5c4-1.4,7.9-3.3,11.7-6.5c4-3.4,7.2-7.5,9.6-12.2l1.9,0.7l7.6,28.2L248.1,127.8z"
		/>
	<g>
		<path class="st6" d="M262.6,140.5l-46.7,76.5l-2.6,4.4l-2.1,2.8l-10.4,13.7l-1,3.6c0.2-0.3,4.2-16.1,7.8-27.6
			c1.4-4.6,2.9-9.5,4.4-14.6c0.1-0.2,0.1-0.4,0.2-0.6c0.2-0.5,20.4-84.2,20.4-84.2l15.5,13.5L262.6,140.5z"/>
		<polygon class="st6" points="268.5,120 248.1,127.8 232.5,114.3 235.1,109.3 253.5,73.6 261.6,90.5 		"/>
	</g>
	<g>
		<path class="st6" d="M212.1,198.5c-0.1,0.2-0.1,0.4-0.2,0.6c-1.5,5.1-3,10-4.4,14.6l-7.8-10.3v0l-1-1.3l-37.4-66.6l14.5-12.6
			l14.2-12.3l1.4-1.2c0,0,0.2,0.6,0.5,1.8c1.1,3.9,18.7,81.9,20.2,86.8v0C212,198.1,212.1,198.3,212.1,198.5z"/>
		<polygon class="st6" points="191.3,109.3 189.9,110.5 175.7,122.8 157.7,116.3 161.2,90.6 170.3,68.6 		"/>
	</g>
	<circle cx="207.5" cy="245.9" r="4.6"/>
	<circle cx="207.5" cy="293.5" r="4.6"/>
	<circle cx="207.5" cy="343.5" r="4.6"/>
	<g>
		<g>
			<path class="st3" d="M287.8,228.7h-28.1c-5.5,0-10-4.5-10-10v-43.4h48.1v43.4C297.8,224.3,293.3,228.7,287.8,228.7z"/>
			<g>
				<line class="st3" x1="269.4" y1="175.3" x2="269.4" y2="228.7"/>
				<line class="st3" x1="278.1" y1="175.3" x2="278.1" y2="228.7"/>
			</g>
		</g>
		<polygon class="st4" points="298.3,187.3 273.7,194.7 249.2,187.3 249.2,175 298.3,175 		"/>
		<circle cx="273.7" cy="187.2" r="4.6"/>
	</g>
	<g>
		<g>
			<path class="st3" d="M165.4,228.7h-28.1c-5.5,0-10-4.5-10-10v-43.4h48.1v43.4C175.3,224.3,170.9,228.7,165.4,228.7z"/>
			<g>
				<line class="st3" x1="146.9" y1="175.3" x2="146.9" y2="228.7"/>
				<line class="st3" x1="155.7" y1="175.3" x2="155.7" y2="228.7"/>
			</g>
		</g>
		<polygon class="st4" points="175.8,187.3 151.3,194.7 126.8,187.3 126.8,175 175.8,175 		"/>
		<circle cx="151.3" cy="187.2" r="4.6"/>
	</g>
	<g>
		<g>
			<path class="st2" d="M284.2,400.2h-36.7c-7,0-12.7-5.7-12.7-12.7v-54h62v54C296.9,394.5,291.2,400.2,284.2,400.2z"/>
			<g>
				<line class="st2" x1="260.2" y1="333.5" x2="260.2" y2="400.2"/>
				<line class="st2" x1="271.6" y1="333.5" x2="271.6" y2="400.2"/>
			</g>
		</g>
		<g>
			<polygon class="st2" points="297.5,349.6 265.9,359.6 234.3,349.6 234.3,333.1 297.5,333.1 			"/>
			<circle cx="265.9" cy="350.9" r="4.6"/>
		</g>
	</g>
	<g>
		<g>
			<path class="st2" d="M174,400.7h-36.7c-7,0-12.7-5.7-12.7-12.7v-54h62v54C186.7,395,181,400.7,174,400.7z"/>
			<g>
				<line class="st2" x1="150" y1="334" x2="150" y2="400.7"/>
				<line class="st2" x1="161.4" y1="334" x2="161.4" y2="400.7"/>
			</g>
		</g>
		<g>
			<polygon class="st2" points="187.3,350 155.7,360 124.1,350 124.1,333.5 187.3,333.5 			"/>
			<circle cx="155.7" cy="351.4" r="4.6"/>
		</g>
	</g>
</g>
<g id="Layer_2">
</g>
</svg>
