<svg id="Layer_4" data-name="Layer 4" xmlns="http://www.w3.org/2000/svg" viewBox="0 0 423 520"><defs><style>.cls-1,.cls-3,.cls-4,.cls-6{fill:#fff;}.cls-2,.cls-5{fill:none;}.cls-2,.cls-3,.cls-4,.cls-5,.cls-6{stroke:#010101;stroke-miterlimit:10;}.cls-2{stroke-width:2.84px;}.cls-3,.cls-5{stroke-width:1.42px;}.cls-4{stroke-width:0.36px;stroke-dasharray:1.42;}.cls-6{stroke-width:0.71px;}.cls-7{fill:#010101;}</style></defs><path class="cls-1" d="M158.89,101.91a4.85,4.85,0,0,0-5,3.9s-4.57,25.35-6.64,46.71c-4.89,50.31-1.3,86.89,1.67,122,1.51,17.77-.23,40.53,1.52,66.4s-13.57,84.3-13.57,84.3a4.8,4.8,0,0,0,4.46,4.46s29.3.19,34.94-.24c5.47-.41,28.1,0,28.1,0a3.85,3.85,0,0,0,3.68-4.43s-13.62-58.41-11.72-93.72c2.73-50.44,14-125,14-125a53,53,0,0,0,.83-8.44l.32-87.9a4.66,4.66,0,0,0-4.24-4.58Z"/><path class="cls-2" d="M158.89,101.91a4.85,4.85,0,0,0-5,3.9s-4.57,25.35-6.64,46.71c-4.89,50.31-1.3,86.89,1.67,122,1.51,17.77-1.09,39.7-1.42,66.44s-10.63,84.26-10.63,84.26a4.8,4.8,0,0,0,4.46,4.46s29.3.19,34.94-.24c5.47-.41,28.1,0,28.1,0a3.85,3.85,0,0,0,3.68-4.43s-13.62-58.41-11.72-93.72c2.73-50.44,14-125,14-125a53,53,0,0,0,.83-8.44l.32-87.9a4.66,4.66,0,0,0-4.24-4.58Z"/><path class="cls-1" d="M264.11,101.91a4.85,4.85,0,0,1,5,3.9s4.57,25.35,6.64,46.71c4.89,50.31,1.3,86.89-1.67,122-1.51,17.77.23,40.53-1.52,66.4s17.26,84.09,17.26,84.09a4.49,4.49,0,0,1-4.26,4.43s-33.19.43-38.83,0c-5.47-.41-24.29-2.48-24.29-2.48a4.67,4.67,0,0,1-3.73-5s13.36-55.23,11.46-90.51c-2.73-50.45-17.51-125.13-17.51-125.13a53.15,53.15,0,0,1-.83-8.44L211.51,110a4.66,4.66,0,0,1,4.24-4.57Z"/><path class="cls-2" d="M264.11,101.91a4.85,4.85,0,0,1,5,3.9s4.57,25.35,6.64,46.71a643.72,643.72,0,0,1,.69,122.92c-1.5,17.78-.36,33.78,2.45,59.56s10.93,90.05,10.93,90.05a4.49,4.49,0,0,1-4.26,4.43s-33.19.43-38.83,0c-5.47-.41-24.29-2.48-24.29-2.48a4.67,4.67,0,0,1-3.73-5s11.23-90.05,11.21-90.48c-2.73-50.45-17.26-125.16-17.26-125.16a53.15,53.15,0,0,1-.83-8.44L211.51,110a4.66,4.66,0,0,1,4.24-4.57Z"/><path class="cls-3" d="M224.81,103.32V154a12.11,12.11,0,0,1-11.93,11.15,12.48,12.48,0,0,1-1.38-.08V103.33h13.31Z"/><path class="cls-4" d="M213.46,105.28h9.39V154a10.08,10.08,0,0,1-9.39,9.16Z"/><path class="cls-1" d="M183.5,94.23c14.53,1.73,40.06-.32,40.06-.32A1.34,1.34,0,0,1,225,95.22l.2,10.71a1.48,1.48,0,0,1-1.39,1.49s-10.87.6-15,.67c-10.93.19-24.24.36-40.52-2.47-6.13-1.06-13.24-2.85-13.24-2.85a1.42,1.42,0,0,1-1-1.72l2.59-9.59a1.61,1.61,0,0,1,1.78-1.15Z"/><path class="cls-5" d="M183.5,94.23c14.53,1.73,40.06-.32,40.06-.32A1.34,1.34,0,0,1,225,95.22l.2,10.71a1.48,1.48,0,0,1-1.39,1.49s-10.87.6-15,.67c-10.93.19-24.24.36-40.52-2.47-6.13-1.06-13.24-2.85-13.24-2.85a1.42,1.42,0,0,1-1-1.72l2.59-9.59a1.61,1.61,0,0,1,1.78-1.15Z"/><path class="cls-1" d="M240.51,94.23c-14.53,1.73-40.06-.32-40.06-.32a1.45,1.45,0,0,0-1.54,1.31L198.69,106a1.62,1.62,0,0,0,1.49,1.49s10.87.6,15,.67c10.92.18,24.23.35,40.51-2.48,6.14-1.06,13.24-2.85,13.24-2.85a1.41,1.41,0,0,0,1-1.72l-2.59-9.59a1.61,1.61,0,0,0-1.77-1.15Z"/><path class="cls-5" d="M240.51,94.23c-14.53,1.73-40.06-.32-40.06-.32a1.45,1.45,0,0,0-1.54,1.31L198.69,106a1.62,1.62,0,0,0,1.49,1.49s10.87.6,15,.67c10.92.18,24.23.35,40.51-2.48,6.14-1.06,13.24-2.85,13.24-2.85a1.41,1.41,0,0,0,1-1.72l-2.59-9.59a1.61,1.61,0,0,0-1.77-1.15Z"/><line class="cls-6" x1="175.42" y1="178.78" x2="176.27" y2="429.48"/><line class="cls-6" x1="252.84" y1="179.01" x2="253.7" y2="429.71"/><path class="cls-7" d="M191.4,192.4a17.69,17.69,0,0,1,7.42-5.49,21.74,21.74,0,0,0,2.71-1.26c1.73-.9,2.73-2.63,3.64-4.45s1.89-3.63,2.92-5.4c-5,15.3-6.76,8.34-16.69,16.6Z"/><path class="cls-7" d="M210.44,190.4c-3.3,5.29-6.88,10.4-9.72,16-1.47,2.76-2.94,5.51-4.48,8.23s-3,5.54-2.89,8.7c-.5-3.16.85-6.28,2.21-9.06s2.83-5.57,4.28-8.34a92.89,92.89,0,0,1,10.6-15.49Z"/><path class="cls-7" d="M212.92,183.91c5.78,3.35,9.83,9.64,9.6,16.42A57.05,57.05,0,0,0,225,214.7c.41,1.58.9,3.15,1.33,4.73-.65-1.51-1.22-3-1.8-4.58a45.8,45.8,0,0,1-3-14.48c.23-6.64-3.4-12.52-8.6-16.46Z"/><path class="cls-7" d="M213.52,172a31.16,31.16,0,0,1,12.17,13.73c2.17,4.16,2.64,8.86,4.18,13.2a9,9,0,0,0,2.53,3.72,8.66,8.66,0,0,1-3-3.52c-1.85-4.23-2.5-8.88-4.63-13A38,38,0,0,0,213.52,172Z"/></svg>